<mxfile host="app.diagrams.net" modified="2021-07-01T12:13:48.227Z" agent="5.0 (Windows NT 10.0; WOW64) AppleWebKit/537.36 (KHTML, like Gecko) Chrome/91.0.4472.124 Safari/537.36" etag="ydCnXVyLzxaCgOdlzrJm" version="14.8.2" type="github">
  <diagram id="j02EoNPnO1jdRclpKdZX" name="Page-1">
    <mxGraphModel dx="1108" dy="482" grid="1" gridSize="10" guides="1" tooltips="1" connect="1" arrows="1" fold="1" page="1" pageScale="1" pageWidth="850" pageHeight="1100" math="0" shadow="0">
      <root>
        <mxCell id="0" />
        <mxCell id="1" parent="0" />
        <mxCell id="tO5nInoc9vgvEuEWAI7Q-1" value="" style="shape=image;verticalLabelPosition=bottom;labelBackgroundColor=#ffffff;verticalAlign=top;aspect=fixed;imageAspect=0;image=data:image/png,iVBORw0KGgoAAAANSUhEUgAAAw8AAAFrCAYAAACXJrWzAAAgAElEQVR4Aey9B3QcSXomKK9dmZVW0p20u3e7e3t7+053erc63d7tzGhGo+np7pmedjPtvfe+2d1sek8CJOG9977gPUgCBEnQe+8JegOQIAwB0PZ37/uzoipRKIAFoICG+eu9RCYyIyIjv4yM+L/4TfwW9KcIKAKKgCKgCCgCioAioAgoAoqADwj8lg9pNIkioAgoAoqAIqAIKAKKgCKgCCgCUPKgjUARUAQUAUVAEVAEFAFFQBFQBHxCQMmDTzBpIkVAEVAEFAFFQBFQBBQBRUARUPKgbUARUAQUAUVAEVAEFAFFQBFQBHxCQMmDTzBpIkVAEVAEFAFFQBFQBBQBRUARUPKgbUARUAQUAUVAEVAEFAFFQBFQBHxCQMmDTzBpIkVAEVAEFAFFQBFQBBQBRUARUPKgbUARUAQUAUVAEVAEFAFFQBFQBHxCQMmDTzBpIkVAEVAEFAFFQBFQBBQBRUARUPKgbUARUAQUAUVAEVAEFAFFQBFQBHxCQMmDTzBpIkVAEVAEFAFFQBFQBBQBRUARUPKgbUARUAQUAUVAEVAEFAFFQBFQBHxCQMmDTzBpIkVAEVAEFAFFQBFQBBQBRUARUPKgbUARUAQUAUVAEVAEFAFFQBFQBHxCQMmDTzBpIkVAEVAEFAFFQBFQBBQBRUARUPKgbUARUAQUAUVAEVAEFAFFQBFQBHxCQMmDTzBpIkVAEVAEFAFFQBFQBBQBRUARUPKgbUARUAQUAUVAEVAEFAFFQBFQBHxCQMmDTzBpIkVAEVAEFAFFQBFQBBQBRUARUPKgbUARUAQUAUVAEVAEFAFFQBFQBHxCQMmDTzBpIkVAEVAEFAFFQBFQBBQBRUARUPKgbUARUAQUAUVAEVAEFAFFQBFQBHxCQMmDTzBpIkVAEVAEFAFFQBFQBBQBRUARUPKgbUARUAQUAUVAEVAEFAFFQBFQBHxCQMmDTzBpIkVAEVAEFAFFQBFQBBQBRUARUPKgbUARUAQUAUVAEVAEFAFFQBFQBHxCQMmDTzBpIkVAEVAEFAFFQBFQBBQBRUARUPKgbUARUAQUAUVAEVAEFAFFQBFQBHxCQMmDTzBpIkVAEVAEFAFFQBFQBBQBRUARUPKgbUARUAQUAUVAEVAEFAFFQBFQBHxCQMmDTzBpIkVAEVAEFAFFQBFQBBQBRUARUPKgbUARUAQUAUVAEVAEFAFFQBFQBHxCQMmDTzBpIkVAEVAEFAFFQBFQBBQBRUARUPKgbUARUAQUAUVAEVAEFAFFQBFQBHxCQMmDTzBpIkVAEVAEFAFFQBFQBBQBRUARUPKgbUARUAQUAUVAEVAEFAFFQBFQBHxCQMmDTzBpoomGwMXLLUhMy8fHX87DWx99i1kLglBX34SbN299r49y9+5d7NyzH7MWBuHS5ZbvtS5jefPW1jasCEvA3CWhss1fGobkjAJcabnmUzVOn72AyPgMlFetQevVaygqq0VCah5OnDrTL39p1WosWRGD4ydP47vvvut3faqdOHj4OCJi013Ym3dg9vOWhuHqtetTDRa/Pi/b2fmLl5GSWYhPvlqAz75ZiMS0PBw9dgr37t3z672+78I2bdnpbktLQ7EwMALpOcU4dqLZL99b05adWB6agA2bdvilv2673oHymgZXnectCcXy0HhU1NTj4qUrfqlzSFQy4lNyXa+mra0dxRV1+HLGErz36SwsCozAlu27cevWbVcac3D1WhscJdVSv1xHhfRv5pruFYHxioCSh/H6ZrRew0Lgzt27yMgrwT8/+hL+8aFn8fNHX8ZDT7yGB371Mh58/FVU160dVrn+ysTBIy45B08+/x7Wb9omxXZ0dmHbrn1o7+j0123GXTknT53Fo8+8jR/87Ck8+vQ7+OVv3sR//9lT+NXTb+Ps+Yv3re+OXfvxzCsfIzAkTkjBosBIvP/5bGzbubdf3oDgWPz88VewaetOkKxN9d+GzTvw0bT5eOzZ9/DIU2/Jd/GDB4j9W3j82ffw5PPv48LFSz4LURSUSXybNm/3Oc9kfwcnm8/inU9m4scPP48nnnsPz772KX7x5BsiNFI4JIHYf/Aojhw7gTt37kxoOLLzy+Tb5bM+/vx7eOTpt/HPj7wofeySFdG43t4xoufLdZTjsWffQWZuCW5094yoLGa+eKlFyMIPfv40fvboy3j02Xfx8K/fwE8efg5PPPeuTESM5D63bt/GEy+8L2PLnTt3se/AETz98kf40YPPyv0eevxV/PSXL+Jnv3oZcxeH4HJLa59nqlm9Dk+/8rFg+shv3sSatRsnHeHs88D6z6RAQMnDpHiN+hAGgdUNTfjFr9/Aj3/5AjgbdOr0ObReu4bDR08gOb0A65q2SlIO5j09vbh+vUMGO2okzAzh7dt30N3Tg97em+jquiHXe3pvgsRE8rR3oOtGN+7etWYUb966he6eXnBPIsCZLuZledxfbbsu6U35TLNzzwFJz0GLM2AffD4Hp8+el/JNOvNMk2FvyANJ3IULl9F6tQ2PPP0W/umXL4CaAv5u374tuBvhinu+B9l398jM5vkLl3H23EXYyQOFWZKy9vZOeVeLlkcqebA1GhKo3ps3Bcv9B4/g5be/FCK9/9BROce223vzFq5db8e16x19ZnuJPdsr2/ANZ5u/dKUV4bHpmL0oGJ1dN6Qd22435Q75vXJW+ccPP4c3P/xWSEJPz000nz4HYkyMjp08jW/mBCI1q1AmCdjWTbsm7m3X28E+xmjKTF/D/sFs7Hv4Y//U0dGJq23t6O7ucfVbYwU8ycOPHnwGH325QN59e2cX6tdtxjOvfYIHn3gNEXHpUifzXXZ0dsrzsZ2Zvo3fK/+/0d0t3yz7WT4zf33JQ7dgwvZ7vb0T12zPzPTExmiT2c6ttnyzDxSGPDz85OuIScySPCS/CSm5QqCffe0T1K/bJHnYpxNT9uFs93xPrDOx52beD495L/7OXbgEln3+wiXRZLzwxuf451+9hNkLg3H0+ClcvHxFtN7Pv/GZnI+My5B3yLysf1hMKn78i+fw4BOvSn8YHpum2gdBVv+MZwSUPIznt6N1GxIC7Njf/2yOzPiEx6QOKNRw0Nm19yC+mRMAdvSvvjMNcxaH4MChY+i6cQP5RZV49d2vMHNBED75egGeevlDmUGsrKnH0qBoPP3KR3j301ky600BICgyCS++9YXMbn34xVw8+fy7YibFWXEKWE+99CFeeP1TSc+BP7egQspf17QNTZt34OEnXpeZqZfe/FzSnzl3YUjPPRESG/Lw01++gPVN29G4YSseePQVmWFsPnNOSFZJeR3e+GA6VjU0yaBaVrUab334LWpWrcPuvYfwxvvfIDQ6BcdPNPchDzQ94ID83Guf4uW3p+FXT72Fn/ziedU8eGkYx06cwqvvThPycOLkaUlBMkAzMrZhEovZi0LAcxSc8ooq8ezrn+Klt78Q4Xf33oNIzy7CPz70HB568nVpxzGJmfL+vNxuSpxiv7N3/2E8+vTb+KdfvCBansqaBhEmOaFAQTUgJBY/fug5PPbsu3jt3a/B6+XVazBt5lK88PpnoomkOc3lK60iRFevasSn3yzC2x/NwLOvfoJfv/gBps9Zjs7OG0hMz8MLb3yGV96Zhulzl2PXnoMuoXYsADfk4dOvF7luRzLQuH4LfvjzZ/DOpzPRcvUajOko2xS3BQHhUleSKZosvvjm56Kt4f7Vd74STDgp05c89ODsuQtYsCwcL7/9BV5663N88PlcbN+5F1u275FvPiQqRdrq9l378NJbXyAiJs1VLx4Y8sD2mpCW77pGwhYUnih1jk/OQUdHFzZv24WvZi7Di299Ln1RdkE52D99MztQ3gWfiST6vU9ny/UbPT0orliF51//REhM7ep1oFbvrQ9nyLsyN6NGghNbP/vVS/jwy7k4fOSEXNqz/7CMJSQWUfEZcu3plz/G+o2q1TPY6X58IqDkYXy+F63VMBDgQP3sqx/jBw88LWZARjPgWRQH85fe+lJIAe1316xtwpMvvI8vvl2M5jNnkZJZILOIX88OQNWqRtAmnDPkr733lQxs0QmZIgTQLpeCKwnCT37xAr6atQyNTVsxa2EwfvLw83j21U9BIaCovBY/fOBpuSc1EbSNpXakbs0GNKzbjMefe1cIRnZBGRo3bAFn6ibbz5AHmio99ORrePiJ1wTjDz6fjaMnTslsX1ZeqZg2lVfXi8Ynp8AyX6B/w9bte8TkhgLI8ROnXeRh07ZdSEglnq9jWXAM1jRuxMfT5uOnj7yo5MFLIyLxIlmmCR/JAwXf+UvC8I8PPY/i8jrs2ntANEL0EWpv75D38dI700Soql2zXkh3UkYB/umXL+Ltj2egtHI1duzeDwpHU/lHU52k9AIxA2NfQaJAwb++caNoP5cFxcgEwcwFK1FcUSu+EDRfTMsqwurGjXjn01nyPWzduRcnm89In0CzvE1bduHtT2aJgFtZ1yB401yINvu79hwQ8kHCfa1t7HxWvJEHtqNDR07gp4+8IKRm74EjKCipxi+fehMrwhOlXyRR4vMfPXZSJgH++ZGXQDOngqJKvPXhdDHd4YRLTkGZy2yJmgb2q5xooHnPwcPHxCSI7ZdaSJr7PPrsO6Llmbs4FL958QNs2rqrT1MciDxw4odtmXiSRJA4fPr1Qrz+/jdyr7TsIhkjSAhWhiXg54+9Iv01J31Y92XBsXKf6XNXYM7iUNF+RidmCrGeOT+oTx34D7XNrO/L70zD2vVbRPuQX1QlhILa0lOnzyI4IknqE59CMjP5xoF+oOiJCYuAkocJ++q04p4IcDB47d2v8MOfPw1HaY2YatjTGPONfQcOi93359OtmTOqm6li5swrhX2Sh8eee0cGauan8PqrZ95CUnq+qK6PnWzGp18vwFezA3Di5BkhD7Sl3bhlp6i4OatONTYHHKrUWS9ep51tV1e3izyQONAE57X3vpYZuMnstGrIwz/94nmQFJRUrMLn3y4WoYjP397ZCV/JAx0zjdkSZ/M4K/nkix+Ajpb8BQTFykCvPg/21m8de2oeaJrBWe0HHnsFsck5YlZD2336l7S0XMM7H8+Qa+9+NlsEKpprkCz8/PHXRFtBoVF/EBLGWfPtO/dhYUCECLFi2jNtngjVeYUV0idQ8DbmOdevt4s5ZWFZLV5//2v8+KFnpQ/Zvnu/CM98H+wTKFD+44PP4lTzWbz3yWwhGcGRySL4zlsWJjP43nx/Ruu9eCMPt+/cEdMt+pm98cE3ohUgUaBfzeIVUUjOcIjm6p1PZqCufr2QB/p9rarfINXkhMzPfvWiaGMycotd5IFkgZqXF9/8QkwdmXjximjxD6CpUUZuiRBZmkrRt40OypxEsv8GIg98X9RY0jeB+UkWfvPSh/joy3mITsxCTFIWnn/9Mwk2sHP3fsH527nLxRmeROLo8ZOi8aDGqbymXo7pp8HyqDXiRJH50fSJWmamfefjmaAP17nzF7F4eZSQDZIH9lfUrP7yN28IhgcOHTXZda8IjDsElDyMu1eiFRoJAlEJmSI4Pvrcu+LfwIGjpfUazpy9AKq16ZjMWTHOTFN45UBOAf7beStkcLDIg0Nm/jiryh9nZOnsS1LR09srEX4YTWXarGVeycP6pm2iWYiITZPZKJIHCmfeyMO585dkpuuND6eLmQOd74xd8EhwGG95DXn42SMvofn0WbGBpsO4aCJ+/bpocEgq6NDrKK2VmVSSNTpODqZ5oPBBYe2plz4SVT9NbZasjFbyMEAD8NQ80F6dZnmc2eUsrKO0GgUlVWDUF/qbHDl6EoHBsTLby3dhtA8U1OYsCpbvgZhP9R81D+xfaHZEe3kGZnj82XfFLJKTCXmFlUIe6PNA00him5SWL4LxirB4idBEp9r1m7ajs7NLJjNo4kSSQC3plzOX4ubNmxIkgL4V9Ofie8ovrpL+iQ7bY/Uz5OGDL+bKs5Lg0El4zqIQ6VepqeUs+oz5K4Q8BITEuetaUYc9+w6JkEzHcmoTaPLESGo/f/xV8f/yJA/Pv05zxC/FlI59IyMXUbtMLSP7dpIQmtFxwqbOSUbsWLjIwxOvia8OzZWutFxF7Zp14qPC4A00kSworhIiTc1lcqb1LeQWVWDdxq3yvqhpYB3/8cHnMHPeSiEHHDt+/PCz0neTSDOy2S9/8zoee/Zt0MyV7YHR4ehzt3SlpX3i5AbbC/uu37z0gfRVfAZqv0nkqVWh2SUnwOgTQlOpk6fPysQVJ6MYYY7152QYtS/8pnmsP0VgLBFQ8jCWaOu9Rh0BOuKKmvuxV2S2nzNADElJG9Rf/uYtZOaV4NLlVrFXpX3stl17UbdmPZ57/VPMmLtcOmKShCeefw9lVWukviXlq0SITc1yiDaDA/Vn0xfhq1mW5oH+EhS+qC7n4DYU8sDBhfXljBftaymAjDRayaiDPIwbnGo+h8eeeUcGRfqI0E6Z+NNk4P0v5opDec3q9UK6FgZGSsQRmhBQYCV5o9kSIzORKLh9HuaAZksMj/nYc+/K7OGWbbvx+fSFEv2FZgg6qPZ9WdQ80PzuwcdfE7Mltld+Hw889jKKyuskktWRYydRWdsgxGD12iZs37UfCWl5YoJCwZG+QYwmQ7MlkgnabU91AsEZcvogMAQzZ7CpGaNpIk11Dh+18KSASBNHYsbvnDPcz7z6MYgxzzNiEfun1mttqKpbK+Y4fDe5hZW44AwpStNGlhsUmQy+Jwql7HcoxI7Vj22A2t1fv/ABOFkTGBIvvi8PPPqy+IixvXBWP89RIRqY4MgkHDxyXNoN68r2ExadIsI+TbcYxIK+ZfRZ2rZzn8tsiZpI9uffzl8p0dmIEx3QX3jzMxGyL7dcFS0Dy//Rz5+RSRj6U3j+aFrKMNEkZ+9+Mgt0SCauT738kZS7MjwRDAXNdzht5hK859Sy0cmdWrbdew8IUdh74DAeZR/28PNST5rF8j0x8INp/3zu2ORseUckAezbFy+PFJJC7fMHX8wRrQx9V6LiM6U/XLAsTN4htRE7d+1HaFSK9HVfzlgqWqslK6JkYot+XzQNe/29b+R5GJ1v2sxl4oPXNoZma5746v9TEwElD1PzvU/qp+ZsFAeIj7+aj9c/mC6mTHSkXhQQIYMttQ07dx/A9DmB+GjaPHz2zSLMXxouqmRqFqrqGjBj3nJs2LRdcFq/cZukra5rxK1bt3Dh4mWERaeCqnbGdud6Ep9PXwyqmSmMcWZt2oylcBRXickSBVjeg4IEVdnUaPA668AoIhw8GW2JpgsLA8Kl/Mn2gogZHT7f+2yOxD1n7HPOXHKWkkIQZ+1IpIg7naTpoLh0ZbSYOtCPhDN6X88OREqmQ2b5UrOKZACl8EStEs0M3v1slrzPT76aL34PFFL4PvTnRuDcBZpKROKLb5dI2+WVS5evYEFABN79dKaYfUybtVQiwDDqDIUsmiy999kseVfNZ85LxJuMnGKx6X/zg+lizsfvYir/2HajEyyHV9rMsw3PWRiMdRu3CYFlEAT2GW9+OF1MFBlhLTouUxxvGbiBwRne/WQmPv1moWhHOUtN85W3Pp4h5yj8Np+9IEI5+x067HI9Cfplie/VGK4Zw4AG/H7f/2y2OPuyb6W5UGRcep91Vyi007+LJInP9dXMpSIwG/JA3xBOIFCg//DLeaioaRAnY5oiMjIVJ3XMTDsF7E+mzRdzUfqm0e+AP2otGEHp54+9ihxHudcmSDKWlV8qwTRYb24ffj4XM+atREFxtWgvmJF9EPv6mQtX4sNp86S//npWABrWbZJ+mv04SSHfFc33+KN2lJoV+48O1dTc8R4026ITOTUj73wyS7QlJBicgGKUJY4J5llMGdQs8H1zzNi6Yy9Ijj7+cr445dMxn+88JDJZtLfU9rDfY0RB/SkCY4mAkoexRFvvNaYI0J6bdsInT50BF+3xtM+m4M41BujzYLdP5XmG/TQhALnnLI9Jw0GEM1wcBDj7xD3DCNLulz+aHvF/E8qP52jKwLCw/PE8rzMdfyyPM2yM6sF0nvWURBP8D4V4YkoHSLMxuomncE9zDgpaNC0g3sSJ+BPb9o4ucawmXkzHd2AwZxrOzl5pvSpRU6i9MdcmOHR+rT6x6+i8gevXO12hhnkDnqd5xPGTzWi51ua6J4UkmtZxZtventl2aQ5y5txFiYzlyjCFD4ghfXc4i01zEoZetf+I37kLlwVntleaIXHygd+D4HzhkjipczLh1y+8j+lzA5GWUyRmeDTvo7aOP/YPXDuCpiwkLWPdzvlc5htmf9XW3je8r/2Z6UjPutKM6UoLI3jdkWhF1DzQbIkmifzeafpE/Pjjd9/e3uXqb3mO+fh9nz5zvk974/PT3Oelt790kQD7/XnMPoZE2ApFzLC4HVbfcdv7ehtMy3GB75F9jL2P4sQUI0mZPppknOc8f7zO8+m5xSDBpq8DFyulpoW+D6z39Y5OVzhYe37mvXGjRzA2Yw9Nn4x2g6SMdeSPYxzL0p8iMNYIKHkYa8T1foqAIqAIKAKKwAAIcNaapjA0YaLZDE3I6KMVl5w9QI6JdZoz82FRKeKrYBymh/sENGmkfwDNp8bjj8SOjtWMwkRNAjV+fJ/UmOhPEZjICCh5mMhvT+uuCCgCioAiMKkQaGm9CgZboOkO13GwTJPiZAZ/Mjxob28vispqwHUtaLo5kh/XRpi1cKWsBTGSckY7L7UJ1NhQg220FqN9Ty1fERhNBJQ8jCa6WrYioAgoAoqAIjBEBGgqw6hLLVfbJp3ASeGZpp40VaKJ6Eh+9FEz/gcjKUfzKgKKwNAQUPIwNLw0tSKgCCgCioAioAgoAoqAIjBlEVDyMGVfvT64IqAIKAKKgCKgCCgCioAiMDQElDwMDS9NrQgoAoqAIqAIKAKKgCKgCExZBJQ8TNlXrw8+FATuffcdeu/dQ9edO7h17546vQ0FvGGmvfvdd+i+exc37t7BbV2vYZgoDi0b23bnnTuCO9u8/kYXAWLcc/eu9Cs3tV8ZXbCdpWu/MiYw600mOQJKHib5C9bHGxkCFKYOdHUi69J5LD9zEotPH0fI2VMoabmMCzd7cQ8qYI0M4f65SRY2XL+GuAtnsPT0cSw5fRzR50+jse0q2pxrY/TPpWdGgkDLrVuouHoFwWdPYWHzMSw7cxzJF89iT2cHKGzpz78IENODN7qQffkClp85gUXNxxF09hQKWy7hTE83lLj5F2+W1nX3DrZ1XEfixbNYdvqE9CtR55rR0NaKq7en9iKH/kdbS5zsCCh5mOxvWJ9v2Ah03LmDspbLeGrfDvy7jWvwB+tq8LuN1fgX62rwX7Y04pNjB2Qwuv2drmI8bJA9Ml6+dVPI2Y93bcKfb6jD7zVWy/av1tfhhzs3YmnzcZzoueGRS/8dCQL7uzrx+bGD+N+3NOIPGquljf9eYxX+qmkVHt+3HWmXzqHXuYDXSO6jeS0EqGkob72MZw/sxP+0qR5/sM7C/A/X1eA/bV6Ltw7txZb266pt82ODuXzzJqLPncaDe7biLzascvUrf7q+Fv/fjiYhzCe6u1Wj7EfMtajJjYCSh8n9fvXphokAzWQqW6/gJ7s2yUDzW2ur4Ln98fpavHhgF45231D9wzBxtme7cfcugs6cFKL222urwM2OOf//txvXYFHzMVwaYYhH+32n8vH5m71489Ae/IvGmj54G/xJ3v526zoUXLk4lWHy27NTh1N59Qp+umuzEDV7+zbHv7+2Gk/u34HDN7rwnfYsI8b++p3bokX737Y09mnjBm/u/2bjGsw/dQxne62Vm0d8Uy1AEZjkCCh5mOQvWB9veAgc776BVw/uwe83VrsE2D9urMFfrK/rM+j/yfo6hJ9rVnOa4cHsykUzjt2dHfjPW9a68P7dtVX4V+tq8a/X14HHv9VQKYP/321dh5zLF1SscqE3/IPA0yfwrzesElxJGH5vbRX+esNq/Mm6Gtd7+P3GGpmxPdOjgtXwkbZynuvtxSuH9uBfGnwbKgXrv1xfhz909jXyHhqrMfPEYdAPQn/DR4BkbeP1Nvxo5yZXGzf9yp+vr5P2zn6FBIJ9j+PKRdxRM73hA645pwwCSh6mzKvWB/UVAQ44pa2X8T9vqncJUP/XlkYsOHYICc2n8P7Bvfh3TWtc136yazP23+j0tXhN5wWBrrt3EXDmhDUz2FCJf9lYjX/avhGRp04gqvkEnt+7Hb/v1ETQtObDI/vRfue2l5L0lK8ItN++jf97+wb87lqLIJM4TDu0H6lnmhF08hj+65Z1QthkZrZpDWLPnfa1aE03AAIUTmkeRoJAXP/PzexXDiPx9Cl8c3g//ocNq1z9yr/f1ACa8elv+AjQfyrq3Gn8QaNFhqnV+dmOTQg5eQzRzSfw9J5t+BNea6jE76ytwufHDuCSYj58wDXnlEFAycOUedX6oL4iQCfp+AtnXBqGP2qswbTD+3GhoxPd3b3Yf60Nj+3eKoMNBYA/X1eLxZU1yC+pRoFuw8IgubQGP1zvJGsNlfhPGxuQdfYMOrt70HGjG+UXz+NvN691CbM/rK9FTGXdsO6l78hqpzHVq/GXDdUuwva3m9bi9PUOWbG3resGYpuP47eds7Ikcw/W18FRUqWYD/UbL66Co6QajtIavFZXiz9d6zYRm3XkEM61s1/pwZnr7XhoxyZXv/N7a6sRXlmr/cpQ8Wb64irZUspq8PSqOhch+48b6xHbfBLXb3Sjq7sHFRfP479tdZPkh/ZsxT6dCPJ1qNR0UxgBJQ9T+OXro3tHoPfeXUSea7ZMZdZW4c/W1WLFiaMywHf39MrA88b+Xa7rf1hfideiEzF3SRjm6TYsDL5eHon/pbLYNcj//db12Nl6DcS7p6cHm1tb8OPtTS7y8F/KCvFReNyw7qXvyGqnH0Qn4E9XlVuYNlTigR2bpI339PSKYLXpyhUXQf69+kr8XW9BPRoAACAASURBVGE+5mv7Hn6bWxaOn2Vl4w/qLTMZznQnnT6F9hvd6OnuRU93D17cux2crOCkBLUT74bHar8ygjb31Yoo/L85Oa5+hdq08gvnhSCzne++ehWP7Nrs6ld+sGMjdnS2ex8Y9KwioAi4EFDy4IJCDxQBC4E79+4h9eI5/NG6Whl0qOp+Zd9O7L92Dde7ulFz6SJ+tL3JZXrASEy5+w9g/8GjOHDomG7DwGDTwSN4ZucWa5BvqMTfbFiFhccO40rnDVzu7ELi6ZP4mw2rXYLur7ZuQMOhI4r1MLA2bXTN4SP4N+vrXJqHf7thNZquXEHnjW6c7ejE5wf3uYQqRrt6a+c2HNA2PqI2N2v3DvyV0zSJWp1X9u7EvmvXhEBsbmnBP2xd556UaKxG7cFD2D+Cd2ze9VTdbzxwGB/u2OoiD3+1fhXmHKW2pwMtnV1IOH0S/3lTg6udP7lvuziq61ioCCgCgyOg5GFwfPTqFEVgTdtV/N3W9U5htgr/ZsNqPLZrC17bvws/2taEP3USC84QMuTiiZ7uKYqUfx6bC/BlXDovYUJpf0ynxv+4cQ1e3LsDL+/bib/fss5F1v5kfS2+PXFYFu3zz92nZikMv/rA7s2uoACc6f7p9o1498BuPLNnO/7H9atEqPrttdX4D5saUN56ZWoC5cenbmi7iv+2fYOLBFOYpQnkWwd24+c7NuGPjCP12ir8w44NaNP1B0aE/q3v7iHj8nkwMp7R5vyvGxvw3N7teGXfDvHr4eQQrzE4xsJTx8DoTPpTBBSBwRFQ8jA4Pnp1iiLQcusmZpw4jD82JKGhSkw4KNT+doMV+YcDzl83rUbhlYuySuwUhcovj00n9dO9PXhgt1v7YJwYTaQl4v07jdWSZv31a36571QvhOsNMPytceAl5hSm7G2c65q8cXgvuO6J/kaGADH8+vhhWWuA7VnatES5cvue8ByFXQq9GvlnZHgz96EbXXjx4G78jpMk9O1XnOGgG6rwk52bZCFKXaBv5JhrCZMfASUPk/8d6xMOAwEKs4yg9M7hveBMtxno7fu/2bgaS04fA4mG/kaOABfbq73WIovB/Y7T7tuON9cc+IftG+BouYhuXbRs5IADYDQa+vf8xQan+ZJToBXcGyplQcRH923HvhsdfrmfFmIJs+8e2Yc/W+925LW3c/Y3nAHXfsU/rYXhbhvbruGh3VtBJ3Q71jym78nfb9uAnEsXlCD7B3ItZQogoORhCrxkfcThIcC1B5p7uxF1rhkP79mKv25agz/bUId/v6keLx3cjZKWS2i9fUtXJR0evF5zcaDf3nEdc04exX/dtkFmaLkOwf+xdR2mHT+EpvY2cDE5/fkPAc6G115twWuH9sgCfX+6vg5/1bQG/317EyLONeNoDxdBJJ3Wnz8QMFq2+Atn8Ys92/A3m9bgT9fV4d9urMczB3Yh//JFtN66pYj7A2xnGexXdnV2YPHp4/h/djThL5tW4883rMLfbluHL48fROP1a+hUzZofEdeiJjsCSh4m+xvW5xsRAt999x3a79wR1XdT+zU0Xr+KLR1tONlzA7QZ15//ESBpu3LrFnZ1tmO9E3NGQLlws1fNOPwPt5RI85jm3h5s7mjD2uvXsKG9Dfu6OnH9ttp/jxLkMst9uLsLG9vbRHjd1N4GLk7Zo/3KqEDOfoWTPXu6OkCzx8a2qxJZif3KbV0YblQw10InLwJKHibvu9Un8zMCJBI6A+tnUO9TnIX5fRLpZb8ioDoGv8LpU2Fs5/obOwS0Lx87rPVOkxMBJQ+T873qUykCioAioAgoAoqAIqAIKAJ+R0DJg98h1QIVAUVAEVAEFAFFQBFQBBSByYmAkofJ+V71qRQBRUARUAQUAUVAEVAEFAG/I6Dkwe+QaoGKgCKgCCgCioAioAgoAorA5ERAycPkfK/6VIqAIqAIKAKKgCKgCCgCioDfEVDy4HdItUBFQBFQBBQBRUARUAQUAUVgciKg5GFyvld9KkVAEVAEFAFFQBFQBBQBRcDvCCh58DukWuBACDC29l1dAGkgeEblvGI+KrAOWigxv3fvnmyDJtSLfkXAYE789Td2CNy5exeK+djhzTvduXNHMR9byPVuHggoefAARP/1PwIkDBs2bUVYVAIycxzYvGU7bty44f8baYl9EDhy7ARiE1ORmJKFVfWNuHKlpc91/cf/CFy60oKC4jLEJKSgtLwGx0824/btO/6/kZboQuDGjW40bd6K6PhkZOUWYfvOvWhv73Rd1wP/I0CidrL5NCJjk5CQkoX6tRtw6bL2L/5Hum+JV69dQ1ZeIWIS0lBaUYNTzWd1kqIvRPrfGCGg5GGMgJ6qt+Egs3vvfsxeGICFy4KQmJKNkrIabN68DT09PVMVllF/7rPnziM4MhZzFwciIiYJBYXlqKldg46OjlG/91S9QVvbdeQXlWLuokCsCIlCZrYDlVWr0dx8Brdv356qsIzqc9+6dQtbtu3AvCXLsSggBInJWSgtq8HOnXvR1dU1qveeyoVfvtyChQFBmL1wGaJik+EoLMfatU1oaVECMVrtguNlYloWZi1YhqCwGGTmFKKqZg1Onjw1WrfUchWBARFQ8jAgNOP3AlXExjSCs/pmoyrz7jjbqGFITM+WDm/hspVISM5EUUklVq2qx5EjR0T9Ot7qPBnqU1m7BktWhGLuogAhD/mOMlRV1aGpaYNiPgrfCL+93fv2y0zsnIUBQh4ysgpQVl6D+vp6XLt6VXH3M+7E/EpLCzJzC4SwLQ4IQUJSJoqLK1FTU4fjx48p5n7GnH0jca9b04D5S1cIeYiISYb0L9WrsHXLlnE3Bk2G/pyY791/ECGRcZg5fwmCwmIt8lC9BpWVlbhz+/a4x53PYGQV7jmxqOZu41fOvF/NlDzcD6FxcJ0fGD82fnycaevs7ERLyxWcOnUS+/buwY7tW7FpUxPWr2vA+sYGa8/jcbA1NKxGWEyijTxkobCkEhXlVaisKMW6xvpxUc/xgJW/6kBMk9MzsSggyKV54OBeWVWHoqICxXyUvouCwiIsD4lEH/JQVoPSklKsWV2n7XwUcK+trUF4bKK088WBITI5QfJQVlaOmqoKrBtn/aG/vvHvsxyrf8mykYckIQ+VlbWoKCvWdj4K7ZyYFxQVIzA4wkkeLM0DNZvFhY4J0advWNeATRs3YPu2rdi9exeOHD2MixfOo729Hb29vRbRV1IxDiRO36qg5ME3nMY8FWdL+EHRzOT8uXPYs3snVq+qQWlxAfJzM5GXk4HcbG7p43rLykqX2RLLbMnSPJA8lJaWT4j6j3d8B6pfdFwiFixbKUJVeIw1uFdU1irmo/i9JCanICAoHHMW2TQPZTVw5Ocr7qOEe0ZGGoLDY12ah3in5qGkuAx5OZnjum8c6NudCOej45P6kIcCRxnKK2qQl5OlmI9SW09KTsXSFaF9NA8kDwV5eRMUc0uGyc/NQnFhHupqq7Bt6xY0N59CW1ubmDXT3FO1E2Mufvp0QyUPPsE0NomoXbh16yY6Ojtw8uRxrFtbj5LiAuTlchDkh5bm7CR4nIXcnCzk5WQjLzdnyFv+MPIM5z45Odn9yENRsUUe8nKzhlzv4dRhKuTh+7RvMQnJ/cgDZwbZXuzp9LgvbsPGIy8HyalpFnlwmS05xGzJUUDC76f7eClnorfvkWCTnZWF4IhYzFkcKD4PJA/sX0pKykYV85HUeaLnLcjNQXR8io08WGZLJA8T/dnGc/2TUzOwdGUYZs6j2ZJb81CQn99vHPV8Ds8+wvO6+d+ebrBz5hr3Jo/n8WD/M09uTrbIMJRjcrPcE6GcGC0syBVt7aGD+3Ht2lXc7O0V6wslEmMji/pyFyUPvqA0ymlIGugMdeHCeWzduhllpUXuWbOsDORkZ8qHxg8uPy8XBfl5cBTkg0KJbI4COBwFKCwsHHdbfkEBQqLixTbW+DxYmocKeZbxWOeJXieHg9E4Ul3kgQ7TNFuqqKiVjt7hcIy7djLRMWf9U9KyEBAU4TZbyjbkwTFuv8+Jjntubr5MTjAwgPF5oE9VSUk5CgrytZ2P0pgQl2AnD1b/Ul5ejfz8PMV8lDBPSc/qQx6ycgolIAPJw4Tp0x2OPnJLQUEBWH/KNUIocp2EwmZVUVJUgPXr1uLM6WYJgnD3roapHWWR1KfilTz4BNPoJKIPA/0XTp08gcaG1XDkZ1sahpxM5OVaM8RUSXIQtEiCJfQVFRWjqKgExcWlKC4uk41qeg6Y3IpLrGNzjf9b58pQUlqO0tIKMRtyXWcZzjSudCVlksZKy/QVMpvXJ4/z3va85pj1YJ6i4tJ+5IGDe2lZBdhxmDrfb08zJ918w4BYxiamCXmYs8iKtiTkobJWOmnz/kcXT6vN2NvP5D4uR1pGjlfyUOhwyLc6uZ//+3jfJAhFCI2Kd2kexGGa/UtJOYoKi5x93fdRt0l8T2f/4ukwTc0DTfTcY8wkxkDG0LF9vrTMXCyj5kEcpmNgyAMxN+My+3QzlrqPKQ+45QN3v+9Zf+a10tnzGpnAnc/IEBXyrq08TjlExn3bdZFJLFmC6Uw9rX2pyDGUZwoLi1DoKBQSRHknPy9PtFiWGZyllaB5U211JY4dPYzr19vE/3N0JDMt1RcElDz4gpKf0zDKQPeNG2LbRwfnwvwcIQ38UMSsRLQL7tkEflyGKPADLiurQFlZFcrLq8TOlJ02twrZakHb9orKOuucHFv/m/O8JscmfYXJY9LxurfN4z7MxzKc93PncZdTVlaN0KiEPpoHQx4462nltd/f27Ht2eSevO8k21zvydvze5y777PXIC4p3UUewqPdPg/UWrnfvxPDodx7sLT2eg2W7r7XTNuzP7ezzXptlyb997mvRUZ2AQK9aB7YzsvKKgf4pr7POk/8excWVwh5oOZhUWCw5TBdUuWcHCkdRcztbdPb8cTH1t2f938W9i9u8pCE/ELL54FEuf940D//YGXrNW941SIzO39A8lBebsZI7p3jsrf+2Ns50x+78pmyPMaHAfN6pGc6U6Ztb+QUa1+N8opqkWPYN5JwugmFIRPUUuQjP59aCWPiRH/PTNRUV+DwoUPoaG8XcyY/i2hanA8IKHnwASR/JqFPAyMMbN7UBEcB7f4yxMmMpMEyR7LMjwxh4CwCyQJVwkIQKmslak5V1WpUVa+RrbpmDVxbbT1qautRLdsa2fN/s1XX1INbjXOz0lnpTZqB9tW1LM8q052v/z3s+SsqV/UjDzRbYodRXFziqpc9j9djW51N3Udjb/AZi73X57S9qyFfN++0ph7xyZmgmRiFKjt5oAarprbBwt1gOsR7DoaNq86m7CHuByt7tK+56j5MPDJzCxEYHOl2mHaaLRUVFYH+Jqb+w72PZz5T3lTec82Y0OgEUMPGdR5cmgenhnW0sLlf32Pu6/nOJsf/DYhPzuhLHpwO00WFhb736UP8zgbDzuA9mfdc12FZUHh/zUNBvjX+O8d9z7Zpx8TzmvnflYZl2GQEc+y575PPnse8U2cZnvms/y25hWtUVFWvRmXVKovkV9SKnEPZgFpaS1NRIloJmmVZ5k2UmeiUnwFqItasrkXzqZPo6elWx2p/Cqo+lKXkwQeQ/JGE2obOzg4cOXwQFeUlyMlilCQSh2xR0VGo4wwlBWp+NDTrIWEgg2eITX5kFkEwRIACoFMIdH6wJBPuj9V+bDoEi2RY6db06eTd+Uxa7m2kxHnsrQN35+2fvryyzkkeuEicWeeBmpMKFBeV2Oprv+/3eOwkZIaYjebeG77+OheXnOHyeSB5yHP6PLADdr8vg3P/9zZYPQbCpLpP+zNlD3E/hvh7PsdgzzzYNVMOB/eA4Ij+5KGwSDR0TGdhNDS8B7q3ue9U3heXVgt5EM0DyUOytc4DzZa4jRY2/b+hvu3c3Hegdzexz3NyIgPzlyx3rvPg9HmoqAHJw/fybN9jv2He9Wju2W8MTB4KBHMzNvdvm05hfZD+2dSdeVmOKcOc557v1ezN9f57pnPnt+ex8hr5xewtGca0Gco5VVWrZLKFVg2ilaApdjFNnIoss6b8POTl0VGbQWMyUJCfjd27tuPq1VZdbdsfwqqPZSh58BGokSSjg8+VK5exZfNGFORmWcSBJko0T3KRhmKUlJahrJzmDTV9CIPVKZiPrN45IJKxr0ZlJT+0VS72TmGdal+zNypg/u95zrrmZP02cxCT1qQ3/5uyqE2wNm/qVfc55ispq3b6PNjJg+XzQDvHioo63fyIQXkFzdVqEZdkIw/GYbqyTrRbExFz81zjte6sX3pWgXefh8JClJZWajsfhXbuKLLMlkTz4DRbkmhutK8uKlXM/Yi5/dvrZ7bk1DwUFjjAb8GeVo/9gwf7l4F8Htjnm3HfjNuD/W/GdLN3j+1u+cFejr0sk8fs7ddMOeaa5966bskP1DgIWXBOjLrlHEvWcWklRCNBU8SKfiRCIjYxoEx2OlbVVeP8ubO4ffvWSMQ1zesjAkoefARqOMkYVuzmzV5xiK6pKheWnJtNZ+gcUcHRQYjmSdQ0kGGTNFRVr+o3i+D6iMSPoQ7l5bUoLasBVfYlpdXOrQrFJVUoKrHtS6vlHM/br5n/B9ubcvql8Siz33XnvXieZTiKKz3MlrJkhWnLYdrRp36DlaXXrHfoCw7EPTbR8nnwNFtiVIvikr7twpcyNc398U/NzMMyL5oHahSLihjI4P5laJqhYZRXUOr2ebCbLZWUo9BRrJiPUptj/2I0D5ExSTDrPBTkFyjmo4R5akaeFW3Jm8M0x2Xn2Ow5dt/vf1/7HFOO5573NedMWd7+5zm3vFKN0jJuNRLO2pAfQygsTYTRgljmTbTCoJ+nRSKc5kwMg52X6zJlKi7Mx6GD+3Djxo3hiGyaZwgIKHkYAlhDTdrd041DBw+gtNjhjqKUlyuRkxgJpKSkVMx3qJ6zPhrLlIhqP6r4qFkgUy8zZMHWORQWV4Kzbo7CctnYeTOijn0rKCzv87/9Go/vd91b+qHm4eBuhWq1NA+JyZkWeSitQF5e/qD187y//t/3/Q6GR0yCFW2J5CHC6TAt6zyQuDrKZbBnm9HNfxgkp+dgmTeHadrrFpQo1qPQ3rJzi1yhWsXngWZLzlCt+fmFivkoYM4+g6GgjcO0mzxUIz8vXzEfJcyT03IGJA8cl2XzkAEGGyM8r8lYwHKGUIbJ41mW+d+zLNbRyCyUXyjHGKIhxKKsBqXlDMxCc21LM0F5yDKlIomg1qJWHK3pD0ozbzrp019UnKo5OZuTgR3bt6G9/fpQRTZNPwQElDwMASxfk1LjQOa7f/9eOBhJKYfOPdmyEqQVtrFEoguQRdOfwbBsizSQMKySj4cfET8oflyGLMjHWFAKCuW5+SXIyStGTm6RbNk5hZAtt8i957H87zxn0nBvrtn3OV7SmTz2dAMdm7TOfWa2ow95oE0yHaYZXSEnJwfZg93PoyzX8+l56/0OgAND+EXHu9d5cDlMV9TKeiGKo/M7GQC/4eKTmJLllTzQnyk7xzHoOxvuPad6vvTMfARHxklgAHe0JWudh5zcfAlnOdUx8vfzZ2Wzf+m7zgPHJUbPyc3NA6/7+55TvTxiyv5FFonz0DzQj03w4Zg80j5NyvBDOQPUw8gqObnFyM0rRl5+CfILnBM4heUoLKqwyESpUysh5liGRJjJVU6srgIjTBlTJmp3GeLVEAiaMTWtb0Rb2zVfxTZNN0QElDwMETBfknPtBi6zzmgAOVzsRCIpWQsWkSmX0kSpwpgoWc5FNE0S20GnloGqQDthIFkgUaCwzY4kM8uBjMwCcPBMz7C21PQ8uLdcpGXky/8pHudT03PlPPOZNO58fcuw0jI9y8uT9GnpeeDGPH3Ltue1jpPTchESyUXi3D4PFnmoQGZWtjO/Vb79Xno8EkzyEBmb0sdhmjNB1DzkZGcp5tL+R4Kvt7x5Yiq2bGV4v0XiOLinZTAPvwlvefXc8HDJQ1JqDoIjDHlwOkw7NQ+ZWblIUbxHoc3lITIu2aV5MItQMhpgTnaOYj4qbS5Pwm97Jw8cl/uPvX3HdM8+xjO91T9ZY7znNc9+y/Z/v/ua+5g0pixTvlNeycxHRma+yDEW2SwS+YYTovkFpaJFMUSipJSmTfTpIIlYI5EijXUGw9KWlVeJ6TdNwDlRQ7NwkbuyM1C/ZhUuX7rki9imaYaIgJKHIQJ2v+RdXZ3YsX2rc4VoO3GgmRIdoquEJMhHIFENnCy6gn4Mlt0iHf6o2uNHRHZuEQaLLKRm5Ivwl5yai6SUbCSlureE5Cz02VL4fybiPc87/09MyZbZjD55BkjLNIncJI8730BlmzLpuMuZQTd5yAKfjyrH9PRMxCd51HmQ+5sydX9/zDigL/ASqjU7KxNxSZl928n3gDnbzWTbouJTJZTinEUBWBEShQxnqFaaciSlsK3zW7S+x4nx7Ka+43cfm5iBoPBYL5qHMqSlZ9kwH7/PYLWJiVU/9i99zZbKRfOQlcnvemI9y0SpL7XJS1aE9gvVyoVkE1IybWNztozVQx8nrXFBxnifxwTeN0tCJPtyP6al3JLolFtoikWCT9LCidDMrALRFlJDIUTCUSbaCPpS0D+Czvg05zamTJZ5N/1Aq2VtFyEQDgfy86yQrlwTYnVdDVpbW+4nuun1ISKg5GGIgA2WvLe3B9u3UeOQaa3fQPtyiabESErl0sCpbnM3fOPT4DRPcpIG0TLkFouGgdoFziBwBp8fHT9QCiFxiRky00nbdnYqssWlIioupc8W7eWcSWPPx+Oo+BRr8yhDzselgGW5Nt6T/9v3LMMzb1xKP/JAzQMXhElJTfOa3lsZeq7ve70fHmHRCV7JQ2ZGBiJjk7933CPjUjDZtvDYpAHJQ2xCqszWcsZ24jw36zrOt9hkrAyPsciDzWGa/UtySvr4r/94x3eA+oVHJ3olDxkZmdK/jEm7iU227jWF9t7IA1dj5njgGovNOG3GdC9jcp/xwzbu95EJnOX0SWvKMnni3XKBpON5exqn3MBzRl6IiU8F5ZaYhHTEJaYjPilDJjlJLJJTc5xWDvky+ULTapo20SyOmghaZJBEWFoIi0S4zL05ASsRmUokpCsdqUkeaDbeUL8Kra2tg4lvem2ICCh5GCJgAyW/c/cu9u3dbREHrt+Ql2M5Rks0Jc7K0Cl6tUvlxmOyaH4I4tNQVCHOwzRNyswuFBaeQsKQSsJgkQV+bCLkU/CKTUZEbDLYiYdFJcgWGhkPn7eoeCtPVLxEKwm17z3LsV/jMa9725tzHvn7ah4sh2kueZ+UnCImTT7X2aPcgfLRTIrXzN46jhPHypDIKbKPivdKHjLS06cWDmP4vvlN0KxgzkIPzUNuHqJiE6U9Tpn2N0a4E/MVYdH9NA8kDwmJ7F+myPc+xs/JyYl+mofyaqSnpSMkYoww532m0EbMlywP6ad5yM/Nc4/hnmPzAGOya+zkdbOZvPfLY0/nmdb+v/3YmcfIKnyW8JhE10QW5RoSCk6KcnKU2g9qJaiRyMhyiH8mJ1VpkSFRm0QLYTlVu3xGq9eIObidQBRwdeqcLBTkZWPDukbQpFx//kFAyYMfcKSD9PHjx1FYkOtc+M2DOJRXu1RtZMnUPtCGz/g1MAIB2TVZNmM5U41HLQM/IobE44dFssCPjR+fEYZp6xsUFoOVodGyrQiNEnOJfvsQ53n7PjTKncfks1/3OF7O/5nObB7XaabhdQuNQlBkrM1syXKYtgb3JLBca4vE8hBfN5OHe5PH27FJZ9JMnT0JmzezpfS0NCwPnjo4uNvH6D9zUESsV/KQl5uHsMjYYbTz0a/zWOIzGvcicVjulTyUIjY+0dY/KJb+wD8wJBLcKHB6Iw+pqVb/YtKN1p7PMlplj9dySYQXD0AeKAO4xmYzRvs4rpsx2Gt+b2WEmnHV2rvyecgA/WQGqZclqwSFRSMoPEb8lSjPhEXF28iEk0hQI0FthJCIfLHEoBm3aCGKK0V+snwhuIiutTid5TtqaSAsHwgrEhNXpXbIYnI7JHy+H8S+KV+Ekgc/NIFLFy9KOFY66dDbnw6S1voNlh2oaByc/g1Ut5WV10gsbIYqI5vOFm2DQ1g2HQCFNCSki/ovIjZJCANnWPixrQiNlgExMDhSFqSigyYXjuG2dEWobFRtLlnuPF5uHfN/+2bSLl1hy2dLw+sDp/eex9zTKptprHQUqtw+D07NQ3EZYuPipTPkbMpE3tihW1soFi8fHxsxN+TBhGpliLu0tFQsDmR9x0c9J1M9lodGWeTBw+chJycXK0Minbhbbd16B6bdhMg1fgPutvT9fhOmHp51MueHuh+N75t1WBYUjsCQKC9mS6WIihm4fxmo/t7ryb5w+O9joHuNxfmR1Jt5B6ojJye8kYeUlNQB8wxUlp4fGGc7NivDogXbmR7Rlqh5sMb/MPGJMOOwkQPs4/hAx255wJIb3P+7x3H3Oc80oa77uu5tZAnKEc6N8oCRVbgPCAoXGYaTWSQgnAjlhGhoVALoU0NTJ9FGODURNN/OyCpwaSE46Wp8IRhsxhAIaiI41lEDQTmMpuO0BKH5UmlxAQ4d3I+7d+/6QfKb2kUoeRjh++/q6hKP/lyJqpRlLf4maziUuXwczHLvFnGotYgDtQ0kDtQ2ZFraBtr8UW1HTUNETLKbNHB2LSTKSRbCRKhnp7IoIBgLlwVh4bKVIiguWLoC3OYvcW48tv9vzi+x0i1YuhLW1j+fZzmm7H55PO7hTscyrXqt7EMerEXiiorLEBUTi3lLlsvGBYeGuo0k71DvNVh6U495S1ZgvGy0AzfkwRWqtbIWKampmLuYmI+fuk6WunCNhyUrwuDpMJ2dnYOAFSGYJ7hb7dzdZqz2z//ZxuznB2tzo33N1MOzTub8UPf+rq+5P8OzcqaY65nYQ7VydemIyJgBR4penAAAIABJREFU+xaT39ve/sym3iad/RrPmetmb9KZa/LO+d6d795+fVSPnfc09RrufqA6ciLLG3lISkq22rF55vvt2eYHSmP/HpjGM639urdjex5zfaB7DfW8Z12Gmt9r+kDMW2zf7NgESjvnpEN/8pArcgDHWxnvzZhs39vGfm9p7OO2uW6d6ysj2NPZj00eyh487/qfx857s36UVVxbQBAWBwY7JzotMsFJUWpRgsNjRbtFEkFfidiEdPH3dGkhcgrFoZoEgmZMlh+EB4GoYCjXcieByHcRiKqKUly4cH6Ekp9mV/IwgjZA9rp9+1bk59EpJ0tWOrTWcSiVqErGOZqmSkIcnP4NbPCMJMB4/AyVKtqG5Exh2XQ0C49OEFtOfkT8mKhdIKPnh8YPjx8mO9K5iwLEvnr2gqWYZbb5SzFLtiXuc7zGcwuWYNZ899Ynn0kj6ZzlmbQLlkqHJXnNfex7SWfuyz3vbd1/9sJl4tDo1jxkyToPhUWlCI+Mxsx5S/y3zV8i9WTnOmU3J56cBe9HHipqkZSUghnzFvsPc3++vwld1mLXDJunz0NWdg4WLVthw9zgb/bmG7D/z2Pzv+ee6b2dM+ftec05+57HZvNWjjlnT2PKHD97tmOShoDgiH7koaioFCFhkc627q86GwwNPoOVa09rT2cwHYu9L/W0183bsfd6chacQiH7d2uROCsgSEJCorNteStrqOcMhp57ezn2awMdMz2vWRvbzUAb07j7R2/3sZdlXR+oLH+fpxxAguxJHvJyczFn4TJrvDfjf5/x2YzNZuw3/99nb5cJjExhynftWaaRFwYrzykPLFiK2QuWSX05yUKyJIRj2UosIplYHiLa28CgCLGyCI6IlUlUmm1Hx1s+ETTpphaCa0jl5hWLryjD2peII7VFIGpqG0ATJq49wiiXhYVFlgYiNxv5OVlY11iPjo6OEUh/mlXJwwjawNmzZ1BSVCAe/Ywt7HAUoKioBKWllbL4m9E4VDpNlciQ7cSBy83TIZrRBrhip2WiFI/g8BgxTTKkgR+VEIbFy12dhHRycxfj2zmLMH32AnwzewG+5n6Wdcz/B90GTLcQ38zm1resrwdMP/h9vp27CCvDYvqZLZE8hIRH4uuZ88Gyx91GPMdjvVx1mo+vZnnZZs7HVzPnIzA4QmaAKFzZNQ+JSclynWl08y8GCwOChEB4kofMrBzMWxSgeI9Cm5s5f6loZD01D+xfVoSEKeajgDn7DU5OeJKHsvJqxMUnSL85VfoWjl9j9ayLV4QOSB6mz7GN2Z5jNf8fzmZkAHteb+fM/ezpvB27ZJKFmD5nEb6da5Evkg9OLvIbppxDawpqWGjaxHGM/hH096D5bVRcqlhn0EqDa8OQQDDIDNcxYgh4o4EwTtRckdqsA+FwFMoELx2oiwvzsXfPbjVfGoH8q+RhmOB1d3ejoX61EAdZPVr8HLiWQ7l4/JvGS38HcY62EYfMHAdIHBhRgOsgWGZKSTZtQ4T4LhjSMHdRIKglIGEgWaBwL4IjO64Z8zBtJrf5Pm2moxssvUnjuR8sj/2aPd/XsxdixUDkISxC6m9Pr8e+D0Z2zD2P7eTB+DxwkTiSh6G0F89y9f+BvzMXefDweeBiiNQSKnYDYzdcbGbMW+IiD9TMMjJdcUmlTOKsCA5TzH0cF4aKP81oKeh5ah7i4xNEmB5qeVMxPce6gZ7bfs0c0z/Mm+YhNzcXX81aIGXZx0/Psu3XBjo2ecx187/Zm/P2/UDX7OfNsexFZnGPcyQ2JD/U1NCCgn0liSnlH1pc0DeCwVhCwmMRFp0ovhDGjMkQCGogXCZM5Yxs6Q6JX1lVh7Iyq08wi8gxhGt1VbmaLw1T/mU2JQ/DBG/f3j1WdKWcTBTk54HLo1M9RjUZ1WUSe9gQh9JqiHN0fqmYKhmNA/0buIYCPwiq59ghU9tA1k3zJDJxkoYZcxdjOgkDOxt+eB4fX1+tgKU5YPq+mgfn+Tlk/dZx3+veNAgL5b4syyrP5PO2d+eX9M77cHaB9vdusyXLYZpmBeERUVLut3MWQrehYsCZm4E32oF7mi2RPNAmmZoqwXuQ/IOVrdf6486ZNKrc6Rzo6fOQlZWDBUsC5btT7PpjN1xMps9dhNmLAmxmS84VpostQSE4NFwmW4Zbvubz/q6mz10oJiXeyENCQoJi7ud+dYazPIaB9kYeaPVgxnszVpu9ZUXA8Zrjc9/xnHKASWf2nunc+funtfK7yzXyhCnLkjMW2GQHp4zg1J6LPGOTaTghyjL4vEIiFgeK3yQnBfjsjLBFXxtGnKQZE52pOVnAkPZiwsT1IJw+EJywtQeqYah8+j8UFhaLX2puthW+tWlDI27dujVMKXBqZ1PyMIz339nZgarKMissK82VCixzJbJbslwxV5KYw7UoKa0G7fGMc3RaJn0cLI0DowlwnQY6B5E4mM6BnTIFEGoaKJS4PjKnilTIAgXuuYss+0zxMbD5PdjtHb/nY/F56OMw7SYPkVEkFU77R91bdqBDwYE+LwNsDGFpJw95jjJUVtQiNSVFCCltZAfKq+cHxnUgbNiO+f16Iw852TlYEhhktfUB3tdA5er5wd/F/GUrBnCYLkFYRJRiPgrtbfaiZRCfBy+ah8TEJMV8FDBnP0DfHu/kIReznT6GLt/HAcZ9TkZ62zzzMY39XP88y+Q928+b9K5zC5e57mWu0R+Scg19tii/mIlMozmhZsIiEQslHftVOvszOAyjPVlmTDGWM7UQCDpSZ4oJU1a2Q0Lec6KWcld5Ra0rAhM1EeXlVSguLoUxX8rNyUR5aRGaT50chhSoWZQ8DKMN7Nm9U2IGy+IjonUoElZbUVEjGgezloMsAFdcKXGJudw6l183xIGmSoY40CmaHwbVdHSE5sfHD4skwaj7+HFxFoDn6TAlQrezk7IieZgIBybigtmb89zznNns5+3H5rq3vT2d57G39N6iLZlQraWIibXWIliwLAjf2xYQhAWTcLNHW7KbLaWmpmI+o3NNwmf+vp8pICQSS7hInIfZEkO1BgaHDQ1zf38Tk/R9U9sTGGoL1eo0W5JoS9EMV/w99i2T9t4rwVDQnj4P5eXVSE5OGVo7n6Tt0h99Ec0g7RvXM2F793SYZqhWTji6x3bvY/H3e30F5jHQiwn2sjgQcxZZ5II+DzRZIpGgzGMsLL6eNV/kHRIPOlYTC8pJJFH0o+T6EJGxKbIWlvhAZOQhO6cQ+QWlshq15UDtNF/i+lqVdc7wrSUy4Utzc8pwGzesQ29v7zAkwamdRcnDEN8/Vyisq6l0ax0cBSguLhGnHJorUevAeMNmETiyYEZWyuTib2k5iE/OFB8HOrFaGodICe9IJyGSAH4o9Gsg+zYmShZpWCxRDeiMaRyL2EEtDAyWDkXi5a8IBZ2qxtNGYapvqFZrkTiGao2NTxBha+nKcOjmPwyWrAxHkJdF4mi2JOs8cP2NkWIeFI6lurkwWEK73PAY0T54Iw8rw6NcaQV7g515D4P97+2aycc9rw/0v/2at3LMuQm6XxYcIc674jAdEIKEJMvngTOM0XEJ4HvRdupfDNinc50HhljmJJY92lJKStqgeDOv2fS9DO29cBwdiDz4MuYzjLQv6UaaxtzH7PuUR7+N5SEit1B+Iemh3MM+k7KPkAibiTaJBEkFAyMIgVi2UrS7nHAVE6boBETGpSAuMV0mZjlB63KgLqkSOayqinKZM/pSuYm+ZDlP52ZnorK8BKdOnhiiJKjJlTwMsQ0cOLAPxYV51pLndq1DZa1L68AFS1zmSo4yWcuBocW4WiLt9Bi7mIu+0QmIC6eIxoHEYb7TTInEYeY8YeC0H6RTIDtpfmQ0RaHqkh+k6Xw5gAZw0bjQKHD2c1jb/fLe7/oA9+WsoOcK00UlleAK0/GJSQjkGhaMLuVcKVb31oq5I8GBmAZHxfcxW2I0CpKH9PQ0C3PF269tjpiTsNF0yZM85ObkIjQqTnH3c5sj5iRs/FaEPNgcpkkeYhOs/oXpxsM2km96POUlliHRA60wnW59V176dG/vYDw913ivC/v0gchDn7E/9D4yAMfyYY7nA8oWfe5p5BCzd9eHsopsJPUrLTJDeYZyDa0u2HdSs8IJVLG8cPp3cgKV5xk8hhOt1EDQB0JCuUYnyoQso1ba/R+M+VJFBWWzNTKxS9nMLB4nztMMsZ+bhU1N63H79u0hSoNTO7mShyG8fzrWrF5VJ8QhPy9XQrOWlFhrOlhaB4vdUutgwrKSBXMROMYmJjumow/VbVwp2nKODpaPhqybRMFEI+CHww+IhGLOImcIM5IGriZNshAS6eqkOYByVmJlZJx74/8RsaJeDoqwnTdpnNclny0v09o3b2W68pgynGXa81GQYl7u+5IHa52H4pIyJCaniJAbHJ0A3fyLQUh0Qj/ywFU309PTFetRam/E3Bt5yMvNQ2RckuI+CrgTc/r3uDQPxmypuBQJyalW/xIVr/vBMBjGewmNTvAabSk9PUOIhfbn/u3PiWdYTOKA5CEoKt4a+23jd5+x2zXux2GlN3nA47oZy00ZMo4zn7e8Ij94yB+mPPveKS+siIgV0k8ySTlmaXCEaKMWBYY4SUSgTJYyUAxJg10mIoFwmzDRiTpKJmIZ5t5yoGYIV6f5ki18K30eLKsQRr+slsnLQkeRhG6l70NNVTkuX7o0BGlQkyp5GEIbOHf2DMpKCsHGVpCfLxGW6MFfUWn5OtTIYnCW1kGiKxWUShQAsmGy4qj4VIRFJ8gy7Aw/xqhKxm6UjtH2j4S+DfR94KBIu12aJVHTEBASJTP1FOA5E8GNHXloTKJ0LuGxSXBtMUkIN5v9/GDHJr3ZD5bW85rJw725FpMoKm57tKXCkkqUlVUgIzMLcSmZuo0CBhGxyWIjyvZDTRcdpkkesrOzFe9RwJvtODohFcuCwvtpHgoKHEhKG//tPD4lEyPdxvp7jk3OQHBkvJs8OM2WGPkuLWNi9i/mHYw1lr7ej/WLiEvuRx7Yv3BBRF/L+b7TGZw99993vQa6f0ximlgq9Pd5yEd4nHPM9TYGm7GYe3Pdfs7bsbd03s55yzvAubDYJJFRKKsIuXQSHloeUBOyNChCLCro22BM4uhcLQTCpoGwfCAsJ2pOwHIiNjQqHlxglxEs6VeakZkvC8gx+lJxSRXKK+q8aB9KUFCQj7ycbBQ58rBv72589913Q5AIp3ZSJQ8+vn82qq2bN6IgL8syWTIRlsqrJKYwbeqqnb4O1DrQTCQ7twhpzvUcYhLS5cMNjoiTVaOpduNy7TRHIlFwOwkxVNliy0xpyQqxDaSN6LJgS9NgSAM/QHbgSWlZKCguQ31jEzZv34Edu/di99792LPvAPbs497a9u4/AM9tz/4DMJu5ZtJb+wNSFsuzb7v27MNuH7cdu/YgIo4ROAIk/CwjI9BsqbKqFhs3NuFySysut1yV7Ypzb/5371txxSOd9b+V1zOf6//Wq5LP9X+L9b/3e7Is3seqi3VsnXPXw1xjOfZjH+vX6vmcVj7zbCzTX1teUZmYt5E8mEXiaLZUXVWBK1ev+e0+/qrvRC+npfUqGtY1SVhiT7OlyooKHDtxAlekPfrvHU90zPxR/yPHTiA2Ob2f2VJFRRV27NypmPuxT3G/r1bkOIq9koc1q1fh8hWrH3Wn1zY/Yixar6K+cb3493iSh0JHAfbs3e8a3/05hstY7zH+u+ULt4xh5AfujUxh37OcLdt3onHDRpRWViM1Kw9RCalCJqg9pGZjeViMaCIo79CUyR110qmBcBII+kBwYpXXOQEbEBTh8n/gKtTxSZlISc+VsPiMcmkWj/PUPtBqpNDhsLQP2ZlYv64BXV1dPkqEmkzJg49toLv7BtasqhFH6XxZTdqs60Ctg2VPx5Wk6eFfaJyksx1ITssRNsywrGTHK0K5loPl50DBjg5CjKT05QzLx4GmSvwwyLypxuOHRG3DivBYUDUZFpOA6MQUFJVViUB/6dJltHd0oLu7Bz29vbh565bELaaJ1XjYOjo6EZOU1oc8UPNQW7sa+/ftE6ZPrk/CLxuPB/vfpPvuu77peN6ez/X/d+6y75vXM63zHvZyvdWPdXGVbZ5lKPXzkrZfeaZc3/allTVYvDxYhCpDHjgz2Ni41sJ8hOX3f17f6jWZ85G48xv3JA91tbW4du2alzaimI20PbS0tiIlMxdzFgdikc1huqqqFseOHVXMR+U7/w4lFVX9yINMCG1Yj3te+0Nt6yNr699h5569CIqI6RdtqaykWKIFjYfxfrA69PbeFDmls7MLnGw5cvQ4alY3iLaTE6G0oqCcQ3mHASDoWM3IgAwrTjmJptxfSijXBfI/+1nj/7AiJFLMl2gWzgXkLO1DgThPi/ZBQrfWgdYhjIZJPwhajRQVWqZLOdkZqKooRXPzKR8lQk2m5MHHNnD69ClUlBUjNyfLuShcMUrLKkAHnOqaBiEQjCtMFZmjsBwMzco1HbiKdGxCmqV1CI+VOMXGXInqN7tKjqZLopJbslw0DvyAqM4z2gaaAmXlF2HvwUNou96OmzdvjXs12+07d1BSWS0CFRe+S0i2fB7Wrl2PS2pj6GPrG3qyzdt2SFuzax5IHo4dOzb0wjSHTwicONmMxLSsfuRhx46d4Ir0+vM/Ap1dXaioWSV+YZytpGazpLQK69Y1af/if7hdJe7et78PeXAUVqBuVQMOHTroSqMH/kXg/IWLYppDGSEoLEZm1rkQWlPTBv/eaAxKoyXHnTt3wO/3+MlTKK+uQ1RCCsSHKSIWAWHR4gshBILh60kgJHy9FYWSRMLyf1gOLiJHM3CuPUKz8Oi4VOfaD5bvg2gfTOQlZ0RMaiG4LhcjZRYUFIg1SVFBLvbs2jHuZaoxeD0+3ULJg08wATu2b0WhI8ciDwX5KCpieNZKWU3a7YhTKwvCMc5wVnaheP5ThRYVl4rQqASnk3SYsGWyZpe50kyurOiMJuCMZywaBydx4AfFD2tVQyMut7SAAvlE+XG2pfVaG+KS0rEkMASMx1xV24BTp8/g7t27E+UxJlw9qYUqKa8WB7uImGQUFleIpoodtv5GB4Hbt+9gy7adokLn4E6zxaaNW3H9ersOSKMDucxynz5zDknp2Vi6PFT6l7rVa9F8+qz2L6OEOYvt6e6Bo6RCIgAy1j417vv2H8bNmzdH8a5Tu2iOlxs3bxXLBYZ5l/5l0zZ0dHZOaGDu3ruH6+0daNqyDQnp2WLKRDMmRmrkBCrD0TMSE0nTt3MW4iuaL82YB1lhfuEyMf+mGTjDtzKKJf396PtAq4+MrAIJlU9rEGvdB+civjVrUFFhhW11OBzIy8sRq5ING9bi5k1d88GXBqXkwQeU7ty9i4b61cjLzoRlsuQAHfLKK6pFBUbyQCbLReFkXYe8EmQwwlIqtQ7p0pgZUoyNewlVcUtXyIfApdj5EUhkpbmLwTUcGLKMYVgZUYlRCUKi4hGdmIr1GzejvaMT9+7d86HG4ysJZxnYORw7cRInTzXj+vUO3LmjxGG03xJN2UjSjh0/gZaWVjFjG+17TvXyb926jYuXLuP4iVPgTCE1DhPxm51I75H9MzWxJ041o/n0GVzv6ADP6W/0EGCffqO7G81nzuL4iZPiW0byrL/RRYBmQRcuXsbR4yekf+HiZnwXE/3HZ+B4tWvPfiRl5EgAGMo/NGFihEmuCcEJV2obvnEunktzb5ozMYQ9w91T+8BJm7DoRJG7aPWRlpGPnNxi2E2X3GbmlulSYaFzzYecTKyuq0bLlSsTHc4xqb+SBx9g7uzsQK0sDJcpzjVsbFaUJZos1YsdHW3oikurZTXp7BzLUZomOtEJadKYV4ZGI4B2fAHBEqvYpXUgg56z0GmuZPk5MHQZIxDQBjAyIRXrmkgcOiZ8J8EOwmw+wK5J/IAA7Y8pvE6GAcYPcIxJEaaNK+ZjArfrJoq7C4oxO9D+Zcygdt2I7Zx9+mSclODky9YduxGXwpC/CeIDwWAxnFDlpKsEmOEiujMt8yVP7QPXzgqNjHOu++B2nGYAGwayYRh9E1bfMl2qQFFRMfLz88SqhNE0T5487sJaDwZGQMnDwNi4rpw7d05WIeRqhGxkhYVFQh4qq6gCs/wdzNoObKQuk6XEDIijNNd1cC4IR80CPwCzpoOwZ5fWIUgcpANDo2WtBcZ1Lq6owpXWVldd9EARUAQUAUVAEVAEFIHJiAD9IBo3bEJEfIoEieF6EAxTT/Ml+vDNnLdYtA8MMvPNrPmijWDIey6gZ0yX6DhthW2l6ZIDA0Zdot9DUYmE3s/PyUZhfg4O7N87GWH1+zMpefAB0gP796GkKB95udnSyMhUS8v6+zswJFhufgkysxwukyU2YtrhBQZHSFgx2u5R9SaRA9j4Z9u0DstD3OZK0Qlix3v46HG13fXhHWkSRUARUAQUAUVAEZjYCFCzcu78BRQUl4NrQ1jmS07twxLL5JvWGjT5njZjvviO0qTJbroUHp0Ihsfn4rzi95BXIibl9HuolCA39RJav7y8GiXFpaDfA4Ph5GZniH+r+gbevw0pebg/RrK+gyMvWzzyHY4Cp7N0Naqq16Da5u9QWFwpocHc/g7uKEu0xxOTJROelWq3mfNlFWlqIhiSjE7SonWIjJePZl3TJolG4EMVNYkioAgoAoqAIqAIKAITHoF7d++BEQMZ5p3m29Q+LKH2ISBYfB8kxL0xXeK6D3ScXrZSFtGjiTjJAxftpOm48XugPypNy7lgHEO20leVC/zSf9Xye6DTdCY2b9yA3p6eCY/haD+Akof7IEy7Qi4ekpeThTxZ34HO0qVgWFbxdyB5qLCcpenRLyFaM/Kk0cbEp0kjDgqPkQgJXDmRDFlYs4lXPHex+EDwo3D7OiQgITULR4+flGgi96miXlYEFAFFQBFQBBQBRWDSIHD23HkUllYg1OX7ECFrP0jkJafjtJguzV4gPqNcdHfJilBwzYewqARExdtDthbJwr2eq03T9Ny+3gM1D+sa69HW1jZpcBytB1HycB9kb9++hfrVtX0XhytlpCUneeCCI5V1lrN0YTlcztLOEK1hzoXh2KjZuO1rO0is4nlLJAwZ4xkHhETKmg78WLjIV8vVq/epnV5WBBQBRUARUAQUAUVgciHABW/F9yEuWXxAKR8Zx2nKUZyEJXn42un3QFLBNR+W20K2ulabzi4U8mCcpk3EpSpGyeRicUWFyM/PFTlv9aoaXLp0cXKBOQpPo+ThPqAyFNqq2mrk0Fk6L0fUWybSEp2lqf6SSEslVRIOLCvHWt+Bzjr0dwh1OktLiFanvV4ff4f5SySKAD8KfhyMb8zVFps2bwNXZNSfIqAIKAKKgCKgCCgCUw2Bnbv3Ii45w3KcDo2yyIMz6My3cxYJeaDvA82Y6ExtLRgXgZCIWETEJLnWe8jMdjpNm4hLVavFbMkiD1bEpQJGXMrORG1NBc6fOzvVoB7y8yp5uA9kjNNeV1sljSo/L9cZaclaWdqQh/Jya2VpK9KSQxaHM+QhJDIey0OiZH0HxiOeMW8JGGFJFjmZvRCzFyx1+TssD4uWjyQqIRW79x0AF0/RnyIwURDQ0KQT5U1pPRWByY+A9kcT/x3TdDstp0DCtlI+YtQls+bDjLmLnU7T88Rpeu6iQJfTtJCH2GTEJqYjKdVaLC4vv0QW8ZVwrVWrxey8qtq50nRRMQx5qK4sxenmUxMfvFF+AiUP9wG4q6vTY40HE6Z1lTNMaz1IHqgOG5A8ME4xV0n0JA9zFomjj3GW5sdB5yDGOD5w6IjG5r/Pu9HL4wuBcxcuoqX16qgsAHj37j3RxHXd6EZ3Ty8YD3y0hIPbt2+jd5yvlEtfLGJw8+atCRmNjdFMiLE/3iEXnOzp6QXfG8slJq7t1i1pj0O5D/Oa90+cb3T3+KWe4+trndy14YJjJ5vPyrub3E86uZ/u7PnzyCsstchDeEyfkK2e5MEecYkrcFPz4EkeGBHTkAc6THPNhzJbuNa8nEyUlxXh5Ald6+F+LUvJw30Q6ujwXCDOkzyskcbojTyw8TJMK23wSB6oVuujeXCSB0YJYKQlQx7oLH34yLH71EwvKwLjC4HGpq2IScrC3v2HRJgbisA20JNQeOPq5PsPHUVBSTWiEjKRnOnA2vWbcflKq18EZxITU1fa2W7cshOVtQ2jQoIGes6hnm9ra8faDVtQ37gRFy/5tiIqV102zznU+400Pd+j/d479x5AWfVqWRl6pGWfPnsejtIa7D94FPsOHkFpxSqUOLfqVY3YufsALl1uEbLly73qGzfJ+ycZOXvuIlIyHH6ppy/31jT+QYArjjtKq5GQmouW1mu64rh/YB3zUi5dvoLCskpxmubCufb1HmiqNG0mw7VamgdDHpatDAfJQ3iMM1yrTfNwX/KQnQkuFHfs6JExf9aJdkMlD/d5Y7K6dHUFcrIznKtLD4E8xHojD4vdqyN6IQ8hUfFITMvCkaPKfO/zavTyOEOAQv43cwLw1MsfIiuvFKdOnwWF8eH+KNSzjEWBEXjgsVfw0JOv44nn38Pjz70rxyvDE3ClZWRBBe7evSvCZWdnl1TzWls7Pv5qAT74fA5arl4bbtVHPd/Bw8fxxofT8fzrn6Fh3eb73o+CMIVoko6x/vE9HjvRjCutV12rnS8LisEzr36Mg0eOj2ilXL6/VfUb8OEXc4X0hUWn4Ac/ewoPP/EannnlI/z6hffx0BOv4c0PpmNVfROouRrsR83FC298Lu3r+vV2pGUX4ZGn3sL6jdsGy6bXxhkCbHObt+3GL596C59/uxhNm3cIAWR70d/EQaCltRXF5VUIjUmAkIfgiD6LxclK0xLyfqFEsjRrPQRHDIE8lLsXisvNzkJJsQNHjx6eOCB9TzVV8nAf4EdGHqwF4vpqHpQ83AdyvTyBEYhPycWB0rI5AAAgAElEQVSDj7+KHz34DD78ch4aNmyWmXEKr0P9UbOwMjwRP3n4ebz01hdISMnDho3bsGbtRkTGZyAzr1RmFTmjTdMSpr9w6YoICWaRn+6eHrRevSZCI/e83uEkCpwNP3j4mBASCuOcoaRwSQ1KadVqMYOh+QrPt13vwNVr1+VZOrtuyCw6AxqYsvlsNJ25eq0NvCfrxPKZlpoB3re9o9MlKLMOJD4GF5KXyy2tuOUkW7zOPMzb2XmjH3QHDh/DGx+4yQNJGutHAsdZV+a73t4pM67UOOzacwAffjEPa9dvkfu47+us38Ur6Opy34f1Z91ZR26sG8unSQ/vca3tujxv69U2uR9NqHi/i5dacOGi89537srzHj95GjMXBqGsarXUq/fmLWzZvgeFpTVSDh+Opkcs/8LFy6IlIJb8sR68H3GmKQo1CHzPxqyI7ysjtwTfzA7EqeazIHn46SMvYkVYAk6cOoOtO/aAROWR37yJl9/+UgiG0YLwfRAnlmneGdvNi298jod//TpIHs6evyhtjXUjrqwH05g2Z+pFoZT15Dtj/VhX/ogz8/FeBk8em7KIJ3+8xnZmnktO6p8RIdB8+hw+/WYhfvDAU3j06bcRHpsGfuf8ttgG9Df+EbjS2oqi8iqnz0OMLKJrX2naRR7mLhLywHD4Ls2DWSjOQ/NQWlaDqv+fve8Aj+q80k42fZNsks1m9/93k91N2822P5tix7Edx93Y2MZ024CNbcAYg2nGBkzvRYguem+iiabee++9jaRR1/TeJPH+zzl37mgkRhpBaIJvnudyR3Nn5t55v2+G837nfc+RDdM3yJZOCfIwyGkhyIMfoG6KPJy7jJOnegzTvmVLPeSBqgVIzU0CPLIlkXnwMyD3+LDLrdWm/+TFdiMGtNo3dtJM/OGZUbz9+eW3sXD5JqRl5nKgNthMBP3nnp1XhOdem4Rx78zi1WUK2OQb3Xe5OjnopGCNZCor1+/A4pUB2L3/BAqLy1mmQivGazcH4WxIGLbuPoxZn67A4RPnmSRQsEYBJV3r4lUB2LR1H8qrarBr33EOQikLUVBchuXrtiLowEns2HsM8xevw+nzVznozS8qw9qAIETGJnFAmZ6Vjw2Be5GUmgWb3YEGZTOOnQ7B0jVbsXjVFhw6fg6KeiVoDl28EomlawJBkhv6LBRYL1yxiVfoKbg5ePwsPlu6ASvWb0fItWj5Y3v2fclDeWUNAnceYpnGgaPBnAEKOngK9cpm3uYuXIM/D3sLcxauxupNO6FsakG7SsMEbMmqQCxbsxVnzl/lAJhOQsePnLyADYF7OPOzaMVm7NhzFHSeA8eCGcvYxDSs3LAD+48Go6SskuU99Dw6156Dp6BsbAGRi9WbduOZ4RMwfc4SrNqwk6VFFPDTeNUrm+B0uUBYbtl5CItXBGDp6kBcDo3hgJtICWG4cv12XA2P4+v8bMkGzgRQwE7BP43v5m0HOGgn8vDMKxNw4EiwBysidKs37sIfnxvNuFKg3tTcxvK3Jau2YPm67bgSFstjSsE+EdUXRrzD5CE+OROLV27mrE3wxWtYs2kXyitrOdi/EhGLTdv2ISe/GBSoEu6LVm7Gui17QHIpIgk0vnsPneIMxvlLEVi6eiuCL4YytnRNJLOic569GMo4V9bUDVouR/NG9meI36Ibf4to7p0IvuT5Lfrjc2Mw9p2Z/P2neczkulNkIjxflPvwjlqjQci18IEzD16yJSIP1JCXZUu7D2APdZn2QR5C+yMPIvMw6FkgyIMfqG4HedjQj+ehhzz0eB4EefAzIPfwMP1nXVpejWsRcbgaHis2HxicCwljOYpMHmj/6NMj8dSwN1k+EBGTyCus/oaRgsbo+BT+j3/OZ6thMBh9vsRisbEP4vXxHyJw52GcvxSOd6bOx+TpC1BZrcCJM5cxfMwHmDhlHigrMmXmIvzppfFMTDJz8vkYyVyIBOzed4KDuXc/XIA3J89Cc2s7B4GPPz8Wb703Gzv2HMPcRWvxxlvTOfgPjUrAy6PfR9CBEyzPOhcSjlfHTsXxMyFQNjZzIEzPPXrqAk4GX8KoCTMwb9FaXplfvXEnY1JUWsGroCTBIqwysvKRmJLJxygQp9dSEE9zz/vWlzwQSaLAaOTb0xGw8yA+X7oRz706EafOXkFMQhre+XC++z0DsC3oCAf2AdsPcpaIyBYFtK+Meh9EOOhcRFyIuO05dBrL1m5j4rFw2UbkF5VyRmnYyMn49Iv1mPLxQgTuOsTfCQrwCeOP5y3H06+8jeCLYexD+GTBSjz54njMXbgWW3cdQUWVAp8t24Snh08AfX76LKMnzgDhHhGThK27j+CxZ8fwuSkDMWfhGh6zeYvWMYl7bewUTJm1iMlCRVUt5ny+mskGZUh8kQfCjbTvfx72JmchKBOydtNuvDZuGnt0Dh47ixHjP+QAnoiFlHmYzOTh8PELPC7h0UlISc/B86+/g/WBe1GraGDiOWPuMiY+K9Ztx+gJM7D30GkE7jrMnyXkWhSTzw9nf8GEesbc5Xj/o88QfCEUh09e4IwXPZ8I6vszPsfkDxegsanFe5gHvE+Zr8iYJPE75ON3iH6fL4dG83x44oVxHgJB3zHKipK0cnvQURQUSf6sAYEWB+8ZAj2ypQP9y5b6Iw9kmPZBHsgwLcjDXz6kgjz4wfCmyMP5KwNmHqRqSz2Zh888mQdBHvwMw31xmFbDL16JwiefrcLMT1eIzQcG0+csxXOvTez1nzX9h01SktETPwatGpOUxN+NVmPJDPzE82NZz06r2H1vNB5EEEiaQBKegqIyDnxp5ZfOF5uQyquMRB5opZvkP6fOXeGg+uLVKM4WTJm5EI89OxoqjdRRlFap6b3eeu8TlqBQMEsr2fSetEJORmqSZVFQHR6ViFdGf9BDHi4ReZjCq52kwx8/+RN8vmwjS3FI6kLBL2ViKGAhHwcRqhvJQwFS03PxypgP8Ob7c/i6q2puLBvokzxMmgkiJR0qNQeVFJDv3n+SV9SXrAnECyMmM0aEo1arx4T352LYyPeYCEXHp3IAS6+hax09aQZnfCggJwP5S29Mxt6Dp7iCDcnRCAMiUyRRam1XQa3Vsamdnrt87TY88/LbOHYqhGVYlLF4ccS7oEyFrDn/YlUgZyNo5X33gZN4+uW3cfLsFT63wWDCky+Mx8uj3oPFYmXyQL6D4rIqtHWomdhQxogM0hnZ+UxmaCW5P/JAc4mySUQaSQYXn5yB9z76nIP/M+evITI2GZOmzscnC1ZxtTBv2ZJMHqLiUlnuQj6TURM/4kwWeSn2Hz7DkjD2VXz0GZNNmmvTPvmCM0FpWXkg8kDXf+ZCKGd0iAiTPItID73fohUBLKs5cebSTVUHIpnU58s3id8hH79D9PtM3qWJU+exbIl+g+SNFgNeGjkZ789YiANHz/JY9P1tEX/fHwjI5CFQ9jwE9PU89DZM98o8BPnOPAxEHs6cFp6HwY68IA9+kPJNHq4hNEwu1Xqz1ZZ6yIPIPPgB/z48LGRLN8oDvCUTpCmeMEWSAsmkgVb9abU2NTNv0I0PafWb3uvN92bjldHvY3vQEdTU1rMMhmRKdIwqMJFU6ON5yzB15mIUl0rljTcE7uOAn1ZlDx47x9mFS6HRrGunCiwU+JJsiIJkykQQeWhuaeMMAEkdmDxM7iEP9PzAXUdYbkRk4vlXJyHowCmEucnDzr1HYbFacfrcVQ4SSSpBJIMyASQJImkNSawWLNmAP730Jstc5MxDXkEJB9Qk4SG8snOLOGCmbMPM+Ssw7I3JWPDFelitkgdA/kr0Rx5I6280mhETn8ar3ZRVIL3+ktVb2ARMEhvyF9A1kTGYjOiUddkWdBTb9xzjgJdw2XckGK+NnYqde49hzabdoBX29Mw8D3l4+4M57Beh66HgnCRmlImgzAoF4c+9OomlOiSrIfJAwTWNB3k6iPQtWrnFQx4o00Bk78KVCB4Tkm09+dJ4Jhwk/aHMA5GypqY2JghfrNzCgX92ruSbWLB0A8gzIpMHIiIkM6MxIW8GERq6fvqsVJUpOT2HyQKZ7wl3+uw79hzHvkNnONtA5EGWLXmTB8LlwuVIPPXym5xdIwxIhkaYkixr5NsfsdeC3o8kcmGR8Uh3kwfKvhDR9b4dPx2CEeOn4amX3uRsB83nvhkm7+f3vU/P9f7uifu9f5vIV0JyxseeG83fLSINNI9IVkff0bqGpkFLxPpiL/6+Owj08jxs78fz0G/m4RaqLQnyMOiBFeTBD1S+ycNV3+Thlj0Pm7EmYDuXahWyJT8DIg7f1wiQdptWWZ98YRzGvzuLNeLkg5CNwDdz8RQ4kpzm9XHTOPicv3gtr1JTYDZj3jJ+b8pibAzcx+ciOQhVFJo5bzkHzuR7IL08ZR76Iw9frN7C1XloVTgtIxckaSHyQLIlMr+Sdv2F197xSR4SU7J4dZ6yC/FJ6RyIklyHZEul5VUs03p3+gLExKcyyXl32gKWs9TVK1ne8+zwCSDJDBEgOieRh6ycAnR0aFi6RLr/MRM/ZskVZQq8bzdDHiiI2hi4l2VItNJK1ZkoY7Bw2SYeKyI6VdV1TL6i4lI4gG1qaePPRv4VIjoxCalMEqh2PmUeSGJEsi660Qo46f2pChZlZIhwEFkgLwL5PsjrQQRwy86DbHZvbe/A58s3e8hDXFIGS8G+WBnAskDK6Dz+/Dj2gMiyJQr6qGwqEQSZPJBxfvO2/ZxNoEBaJg8kkZrz+RoEX7jGONMK87BR7+GLVVtQWaUAnZ98OG+9P4clPyR9Kiqp4Io8ZouFJWovvtFbtkSZB7oRLkQKiSys37KHsSJj9kdzl7IkibCl98vNL2FyRcSCMg/k5aDr977V1iu5qhd5MUguRh4bcbt9CBBBJk8OLQ7QfJwxfzmOnQlhE/zNkLTbd0XinW4WAfI8XLoWDjnzsM5XtaX+yEM/noeB+zyIzMNgx0iQBz9I+SYP/WQebpI89MiWhGHazzCIw0MAAWreRsZbCiLnf7Ge5SAkO/lLbhT4ngy+wqvZZGQlWQ1lIyhYIwkSmZ6zcouwYt0OfLZ0IxYt34zZn61mUzMZIsMiEzDr05VcZYhWZqMTUvDh7CWgWv5UhSg1PYflCyQRmr1gJevXSeNPhIDem7Il02cvxcmzV3mVkko+UhlXMr+SGZZW1UmvTquZny5ehw8+XshZB6oCRFkKyjZQ9oGujZ5DwTlV4iGZDa3SvzvtUyxcEcB+gHemfori0grOqpCxe97CtZg6azF7FPqSLwri+TqXbkROXjHyCktZEnbs1EWYzVYuU0nnJkJFOn4KtEnKMXHKfA7+a2obkJVTiIXLN3IVJsoMkbF53Za9nBmgHhIk86HPs2XHAdAqeUFxOWdoKFNBJnAqvUo3qlQUGhnHONDnXL5uG5MLwp3M45RNoXlBGSj6PFl5RewLIGkPlXC12e3sFaBqUOsC9vBYk7ytqraOvSSbdxxkqSBVRaJMAmVTKBiPS0rHms27GW+6Djp2KvgyJk39lDML70ybz9dEn5t8GbTyL8umqOoUZUpmL1jFJIeM3GT8JkkReU2IIFE240poLL8XyaPoRlW9qHzrh58sYbkSPUYEJyktmwkLSRrXB+zhbA2tepMsa/WmXdi59zja2tX8HvI/VAqYpEv0fcnNL/Zcm3xc7G8dAcpukYxx1NsfMRkkfwONPz0ubkMHAZIteaotDTLzsM7LMB3kw/NwQ7Ul71KtIvMw6MkhyIMfqG6KPPTjeZAN08Lz4AdscXhII0CyIQr+KLii1d3b9R81yWxIqpSZXcAmapKhkLGU5DLyjeRGlOGgoFBRp+QqNHSMVqNJG0/SHboeCtholZmeL68+VlbXISo2hQNwkrpQkEGyKKoMRavB9LlopZ6eT3/T+9GqJt34vFn5TDpIBkEZAbpWClLp+fS65LQcJKVm84onfRb5RqvyJC+i81NJ0PzCMtbVk9SHzkkBPwWVvnoTEAEhL0RFZS1X9aEsDRESqiJENe6JdNFnoOukc9L10Io4kSYiGnIpVAq4CTfS/dNqOT1O702GaQr2t+0+wivsr4+bilkLVvG5KOAnjLwJDUmNcvJLWL5EONA5KPNDATjh0NTcymNDY0jXSs+hz0jnohtdI70neUUoE2MyS303aMyIKFGhAsKFxpwqNFEGgTIfdO00xnSjY83NbewpIaJD56fPTF3PvecKPxngOUrZJsoMFZZUMDGga62oVqCktJKvqa2tg8eW8KQbHSdfDM1BkqLJN7r+5pZ2rgJFngoaFyJFRDaqa+r589L1e98o4zNm0kyWOtGcEbfbhwB9ZyiDRdk1KkBA5nJxG3oIyLKlrbv3Y9MgyYN3taVBkQfuMB2Cc2fPIliQh0FPEkEe/EDlmzxcRWjowJ4HaovuKdUaKHWY9pCHxculrojCMO0HfXF4KCFAwSet9smB6VC6dnGtPQhoNHquKkQr9hk5BYiKS+bypeTBEGPbg9Nfco/I0ZLVgRg+ZopERDp7iMhf8r7itRICRFCJhJIMUdyGLgLe5IGaxPmULVGTOK8+D38ReTh1QvR5GOR0EeTBD1D9kgc/hmkqEdabPARCIg9rMH8xSRKWQRim/YAvDg8pBGgl9nZlG4bUB3/ALpZW0ckw/cXqAKwN2I31W4KwdvNuzgo8YB/1nn2c5tY2LjG8+8AJbsB3zy7kAT0x/Q45nD2ZyQf0Yz7wH0uWLW0N6r9U61yOpaQO072qLfXTJO7KlQi3ZzUOYX2axIkO04OfUoI8+MHqdpCHDZx5CMTS1RuwcNlqzBeZBz+oi8MCAYHAvUSAytKSp4MySdSFm6Q/JNkRt9uDAHmBSOak1RuE1+H2QCre5QFEQC7Vuu12koerkf12mBbkYfCTSJAHP1jdLvKwasMWd+ahhzz0GKZFnwc/wyAOCwQEAgIBgYBAQCDwECFAsqWQq2EYKPPAKg4fsiVSfvTXJC7Mu8O0MEzf0owS5MEPbDdFHvqptkSZhx7yIGRLfiAXhwUCAgGBgEBAICAQeMgR6CEP+2++w/QgSrWGk2xJkIdbmmWCPPiBrV/y4Msw7Yc8eGRLi4Rh2g/s4rBAQCAgEBAICAQEAg8xArJsacA+DzdpmB6oz4OQLQ1+sgny4AermyIPXqVavQ3TvTMPosO0H8jFYYGAQEAgIBAQCAgEHnIEZMN04G4p83A7qi0ReQj1li1xqdZLXKr1jCjVOugZJ8iDH6j6JQ83UW1JNkx7SrWKzIMf1MVhgYBAQCAgEBAICAQeZgRUGk2vJnFrfXWYvunMA1VbikFE5I3VloJPnxKlWgc54QR58APUTZEHL9lS38zD6g03lmoVhmk/4IvDAgGBgEBAICAQEAg8lAj0zTx4kweuXCkvxPowTG/vp1QrdZjujzyIzMPgp5kgD36wupPkQfR58AO+OCwQEAgIBAQCAgGBwEOJQF/y4C1buhPkQXSYHvw0E+TBD1Y3RR68PQ8HjmPHnkMI3LEXQrbkB2RxWCAgEBAICAQEAgIBgYAXAnKHaY/nIWAHVm7Ywj2zFsk9s25attSnz4NXtSVBHrzA93NXkAc/AN0qedhL5CHooCAPfvAVhwUCAgGBgEBAICAQEAj0RaCv52FdX/JAsqUByMPN9nkIPnVCeB76DkI/fwvy0A8w8sO+ycM1d3vzeIRHxILc+xcvheGsd+Zh/7GbIA8BWLN5GzZu243AXftw4OhJVFbVyJcg9gIBgYBAQCAgEBAICAQeKgQGki1x5sEPeQjafwwHj5zG8ZPnEHz2Ei6GhII9D1xq322Y9s48CPIw6PklyIMfqHyTh6sI9dXn4SbJQy/DdMB2QR78jIU4LBAQCAgEBAICAYHAw4GATB62DlSqdeEyfN6PYbq/zIMUv/motiTIw6AnliAPfqDqlzz4KdXaW7a0C6s2BLJOb+GyfjpME3nYHiQyD37GQxwWCAgEBAICAYGAQODBR0D2PGwLOiB1mPYlW7oV8sDxm4/Mg+jzMOhJJciDH6huD3nYyeRB6vMgyIMfyMVhgYBAQCAgEBAICAQecgSIPIRcDYOHPNzQ52EZ5vYhD+s2b8eW7XuwPegAfMmWpCZx0T77PIhSrYOfcII8+MHqdpEHX30eekq1BmCNyDz4GQlxWCAgEBAICAQEAgKBhwUBki3J5GHT9iB4l2qVPQ9MHpasxJJV67FyfQDWB/SQh/5kS2E3NIkLkTpMnzopDNODnFyCPPgBql/y4Mfz0Fu2tBMDk4fNgjz4GQdxWCAgEBAICAQEAgKBhwcBmTxsDdovyZYo87Deq1TromWY1yfz4CEP/TSJkzIPXh2m2TAtyMPNzipBHvwgdnvIg2/Pww2G6e1B2CKqLfkZEXFYICAQEAgIBAQCAoEHHQFZttSLPHj3eVg4MHnoL/PQX4fpYJF5GPSUEuTBD1T9kofBGKa9msSRYXpAz4O7VKsgD34GRBwWCAgEBAICAYGAQOCBR+CWyIOX56E/8tBLtnQ1DCEXL7FsSZCHwU8pQR78YPUXkQc/TeJ6ZR5Enwc/IyEOCwQEAgIBgYBAQCDwsCAgl2qVO0yv7WuY9pF5YMP0jj3YvvsAfJEH7vNwg+dBkIebnVOCPPhBrF/y4MfzQJN2R9Ah0WHaD77isEBAICAQEAgIBAQCAoG+CMjkQe7zsPa2lWr19jyEISREkIe+2Pv7W5AHPwj1Sx76kS2dOHkeh4+eQf+G6dWYv3iFZPJZsgpfrFyHFet6OkwL2ZKfARGHBQICAYGAQEAgIBB44BFQaTQIuRaOQG/DtNvzsHDZasyjDtNkmPZZbemgz8zDDYbpK16yJdHnYdBzSpAHP1D1Sx58ZB7ODarDdD99HoTnwc9IiMMCAYGAQEAgIBAQCDwsCMiZB1m2tM4r80DkYT6Rh0XLe3WY9vR56Kfa0oCyJUEeBj21BHnwA1W/5MFX5uHcZZw85ZV52HPQh2xJkAc/kIvDAgGBwAOMgOP6deSbjbimbkeRyQhLV9cD/GnFRxMICARuFYFBG6Z9Zh58N4kj8tDLMH0ltMcwLcjDoIdKkAc/UN0qeWDPg1e1pZ4+D262vHAZfBqmd+/DgaMnUVlV4+fKxGGBgEBAIDC0EGi22zGiOBffSo7ClxLD8ZWEcPwkIw4zq8uQqtPBLojE0BpQcbUCgTuIgIc87Hb3efDKPMhN4vpmHrjPw469bJj21WF6IPJwRpRqHfRoCvLgB6p+yYMP2dLZQcmWyPMg6/Rkz0NPkzjhefAzIOKwQEAgMCQR6OzuxoeVxfjrpAh8OSEMX+q7xYfin9Pj8VltBWpsFnQPyU8pLlogIBC4XQh4PA8yediyA6s2BmLp6g0YkDxs34MdQb49D97kITw8Ble8Mw+CPAx66AR5GACq69evQ2/QIyLsKk6dPI7g4DM4f+EiLl26imuhUQiPiENYeAxoMl4ICcVZL9mSd+ZhY+AurN4YiGVrNmLR8jX4dPEK1up9vnQ1t1RfsT4AawO2cwfFQG4SdwplFVXo7u4GXYO4CQQEAgKBoY5Avc2KZwoybiQNfUlEQhj+KjECv85JwbG2FrTY7bB3d0H8Eg71GSCuXyAweAQo9mlr78DFK2HweB76lmql4jPseZBiqVUbtmB9wA4EDlCq9cqVCFCTOCl+i2bycPEidZgOxplTJ3Ap5DwqKysGf6EP6TMFeehn4ClwN5nMKK+oxLnz53Ds6FEcPXYcx0+exqnTZxF89iLOnr+MM+cu49SZizh+6jyOHg/GwSOnse/gCQTtO8rMd+vOfQjYHoSNW3Zi3aZtIPnS8rWbeFu1PgBrNgVi3Zbt2LhtN7bs3AsqSbb38AnEJaWgobERJpOJSUQ/lykeFggIBAQCQwKBSosZf87P8J118EEgKDtB29+lROOz2kpU2iywdXehWyyoDInxFhcpELgVBCj2stpsaGxuRnZuHk6cOYetQQcQsGsvNu0IwvrAnVizeRuIKKygWGrNJqykipWbtmJD4A5s3haEwJ37OP7ave8I9h48joNHTuHIsTM4cfIcTp6+iDPBlxB87jKCz13C6eDzOHnqDI4dP4kjR4/i9JnTSM9Ih06ng6uz81Y+wkPxGkEefAwzTd7yiirsOXiMJ+TazduwdvN2vk8T9MZtm4/HtmLtpm29tjWb6Hk3twUdOIrK6lp0iknsY6TEQwIBgcBQQcDa1Yl3ywvxzf5kSz4IhCxtIhLxnaRIjC8tQJxODZXTAZcgEUNl6MV1CgQGhQBlGxqUjTh97iLWBWzHmo2Dj5cGirfoWE/c5v2ecjy3jQkJkRL5edt27UdaZjYcDsegrv1he5IgDz5GXKc34Nips1i8Yi1vJDW6tW0tFi2/ma3vedaCypEdPnEGrW3tPq5UPCQQEAgIBIYOAkk6HZ7Ky8D3kqPwtcRwKQsRHzooKRMRCSIR306OwuvFuYjUqCQS0S3cEUNnBogrFQj0j4DNbsfVsEgsXr4Wi5etxaKla7BomXdcdDPxlPdz6T1W31Qct3DZGhCBqKqu7f+CH+Ijgjz4GHxFfQNOnD6HgG1B98W299AxKBubfFypeEggIBAQCAwtBGqsZqypr8FT+en4SVos/iYpEl+hrAORiEESCSIR302OwmvFuYjXaaHrdKFLZCKG1kQQVysQ6IOARqvDldBIlnrfD/HXzr2HUFxa3ucqxZ+EgCAPPuaBSqVCTGwiexlIH3cvt1NnQhAaFgWVSu3jSsVDAgGBgEBg6CFAvgWLw4lirRYBiiq8mJeBX6bH4/vJUfirAeRLsoxJ3rMnIjUGE8oKkKjXQO1yCk/E0JsO4ooFAoyAxWJBWno2KO65l3EXnftUcAguXApFfUOjGB0fCAjy4AMUl8uFsvJKREXFIywsGqGhUfdmC4tCZFQcKiqqYbPZfVypeEggIBAQCPRGgHTDtArv6O7mBmyGzk4OqtucDjQ77IeKpk4AACAASURBVGh02NBgl7Z6u5XvK+02NDnsaHHY0eF0QOtywtTVCXt3N1zd3bc9IO/uvg6n0wWSKdBmtNiQqVJjQWUp/pCVgn9MjcU3EsPxpXgfJV19kAsiHP+aEY+FtRUoMRthFh6x3pNC/CUQGAIIkN+0rk6JmNgkrmhJVS3vevwVFsULtuERscjNK4LRaBoCyN39SxTkoR/MzWYLSkpKkZychPj4OMTHx9/1LSkxia/BbLH0c5XiYYGAQIAQoIDZ2XUdOnsXGowulGmcyGu3I6vNjoxWG2+ZrTbkd9hRqnGi3uiC1tEFR+fQ1ctT6VLn9W7oO10c+FdYzcgzG5Ck1yJU04GT7S3Y2dSAFfXVmF1dhnfKCjC6JA8vF2XjuYJMPF2QydWPns7PxEtF2XitJBfjSvMwtbIYn9eWY0NDLQ61NuKiqg0xOjUyDDoUm01Q2KxMMKxdXbcsFXK4XLA7nLDZHbDZHLy32uygrd1oRnBzI94qysX/ZCSyP0LONPS3pwwEbV9PisBjeWnY3dzA1+kUfgjxAyEQGFIIkEG5trYWKSkpSLgHcRfFeomJCcjPL4BaoxXl8vuZPYI89AMMPcwlw6xWGI3Ge7LZbDZRpnWA8RGHHm4EiDDYOrvRaHIht92OsDoTDhTrsTRNhY9i2zEhtBljrzRj9JUm3sZebcaksBZMj27DklQV9pZoca3WhKw2GxMOW+f93UmAsgmWrk7ODpRZzEgxaDmwD2ysw4yqUrxQmIn/yErED1OjuaIRdW/+ckL4oM3IfQNzCsZpRZ+Mzd9JjsJP0uPxWG4a3iwrwLL6ahxrbUa0Vo18sxF1dht0LhdXQKJxGejGRK+zEw6nkzOqlFUlEmG1yZuNHzearUhsb8eMsiL8JisZf5scJRmsfWQevK+dPvMPUqIxubwQcToN9C6XCAAGGhBxTCBwnyFAsReRiHsRe1F5fKvFgi7R7X7AWSHIw4DwiIMCAYHA/YYAhaYGRxeK1Q5cqjFhVYYaE8NaMOZyE2bFtGJHrgqXK7TIaTKhosOMOo0F9VoLqlRm5LWYEFmjx548NebGtWH05SaMudqMJWkqnK82olBl5+yFn/j3rkFCmQWSEZWaTYjXaXCkrRFzasrwTH4G/ik9Dt9MjhxUQO0dXN+O+19ODMdXE8Px/ZQobub2dlkBtjTW4aq6HXkmA0gGZeny3ZOByYPTBTtnHewSgZAzEEwgbJyBsFjsoM1otiGzQ4155SX4TVYS+yIG8xm+khiO/81J4SxEnc2KzvtlUO/a7BEnEggIBAQCdwYBQR7uDK7iXQUCAoHbjADFfnpHF9JbbdhdoMVH0W2YEtGKrVkqpCuNUBmssFilYJQDT6sdVt5ssFqlgJSlMfQcqx12mx16sxVFbWbsztPi/fAWTIlqw9ZcLZKarFDb7k2DIHtXF6gbc5Jeg6NtTZhfU44/5WfgR6kx+GpSBGcSZJnOYILou/Wcv6IMRVIk/jsrGZPKC7G9qQ5hmnaUWUwsrepp7nYdTpcLDocTduoeTb4Hki65N2oQReMkj6HZaofZYofBbENWhwqfV5Ti0ewUfC8pcsCsiozRD1Kj8U55IRL1Whg7Xbd5Voq3EwgIBAQCDx8Cgjw8fGMuPrFAYMghQH6Gcq0TB0v0mB7Tio+jW3GxQodmnQUWiw1W2ogguAkDBZ5832iAobIUhooSWPR6z3NIKkPkQV79dtgdMFjsiFIYMC+uHe9HtmJnvo4zEY6uO++L6OzuRpvDjhSDDsfamjC9sgT/lZXE8iMK/uVA+G4RgdtxHspM/Dg9FmNK8hCgVCBSq0K11QJzpwt2p7O3bMlDHsj34CYPVjuTQSIPRAppM1ts0JosiG9rx/TSQvxPZiK+ScZqP1ImknBRd+vDLY1odzowsLBqyH09xAULBAQCAoG7ioAgD3cVbnEygYBA4GYR0Nq7cE1hwvyEdiYNlyq0aNdLWQYiDkwe3BkH1s+Thp7MtwY9tInhaFw6E40Lp0EVeRlmnc4jkyHiwOTBvZf/NlrtiKszYl58G2bGtuFMpQGtljuThTB1diLHZMCRVpIjlbNn4euDCIb9Bcv323GSEP0kPQ7jSvOxTVmH8I42KAxGmKySv4GyDux5YJIwMHkgAmEyW9FmNOFqSzMmFufh5+nxUonXgfpExIfhx2lxWKyoRLHZyFWkbnYuiucLBAQCAgGBgOjzIOaAQOCOI0ByDXtXNzS2Ljb31hgcqDU40WByod3aCZOzC53dYi2070AQbi2WTuwt0mFadCu2ZHWgssPEgaPZIpMHKcPgTRrovsVkgjYpAspZb6P29T+g9pXfo37aaGhiQmHV6z0Egqv9uMkDyWjkjYhEu8mO/QVazkJsztGgWue8Lcbb67jOPgYy825pqsOwoix8N3lgCc5gyQCbnBPDuenaN5Ii8J3kSPxdagz7I36RmYj/yErCr7NT8LvcVPwhL423R3JT8ZucFPx3dhL+LTORS57+Q2oMVzn6VlIEvpYYAZIk/SXma+/r/3ZSJBug55SX4GSjEiVaHQyyrMzq8EjMONtAvoc+mQcmDxYbl3clU3W1Vo8diho8nZPuV8pE10Hnn1RWiBS9FjZRjanv1078LRAQCAgE/CIgMg9+IRJPEAjcPAKu7utoNLuQ0GhFSLURwZVGnCgz4GipHgdLtDhUosXRMj2Ol+pxukKPC9VmRNRbUKR2wOjsvi1B6s1f9f3ziq7u61AYnNico8UHkS0ILtVCZ7KybEUiDkQeKOvQlzzYYDFbYNZp0Ry4HIoxT6F2+O+hePUR1L76ezR8OBaa2DBYTWaJQLilSzJp8N47nU4YbQ4kKU2YFUsVmjqQr7LjVn23RA+b7TaEaTqwRFHJATxVMqKA3zu4Hsx9WcZE1ZC+lRzJfohfZSXiibw0vF6cg4nlhZheVcJ+CSrVGtBYhwOtjVy+9WJHG5dyjdaquAQryYmuqNtxtqMFR1qbsLtFiXUNtVikqMQn1WV4v6KYpUcvFmYzyaAMwt8kR7FhWr6OwVzzjc8JxY9TY/BucT4OKuuQp9HAQJkkJhK0l3wPfWVL3uTBRCTCbIXGaEZcaxs+Ki3kZnOejtU+sKVr/mpCOF4pykGIqh0G4YO4f7744koEAgKBIYHAA0EeqHoHlfaSN3+lAm/XyNyt89yu6xXvc+cRoCpAiU1WHC7RY2+RBhszVVid2o6ATBWOFWsQXq1HYr0RyQ1GRNcacL5Mhz15GmzIUGN9phrb8zU4UKTHpRozavXOhzIjQUmYcq0DS1JUmBHdipQGAweIJFWRiYPkb+hNHtgMTVKlpBhos5KgIcnSko+gGP0kal99RCIQnIEYBXVsGGcnKEvhTRh633fA7nDA5nCiSm3F0pR2zIxrR1brzREIIg0NNhvOdrRiRlUJfpGRwJmBLw0ksekT9MpBOsl//iY5Ev+elcj9Gj6oKOIgf2tTHS6o2pBp0KORmq51um5LdSG6djJwq5xOVFgs7Fs40KLE6voazKwqYxnSo7mpoEwFya3k67yRKAxAkOJD8f2kSLxekIXNimpkqFQwWd2ZJfI5DJB5kMmDwWQBbfU6Aw7U12FYXgb+ZgBDtXyd/y87GYSd2um88z8O4gwCAYGAQOABQeCBIA8JyRk4ezHMs124HIHo+FRU19bfsVq9eoMRV8NikJFdgM4hVg9YkJ7b/+21dnYjudnGfQY2ZqmxNq0Dlyp0qFNbYKQVc3cAJBl7pWZYcgDM+nybAx1GGzKaTNidp8G6DBV25GlwsdoEpfHhqVNPq/pKo5P7MMyMbkV2k9GdbZC8DRYOKm80RrNUyaiHNjkayk8moXH+e9AmRrB0qWXrUig//wCKsU9JBGL471H/0VioY66BeqkQQXDYndImS5fchl46Jm9EIFalqzAnvh257bZBTaI2px3nO1rxcVUpfpGZcNOr9RTkUlD+z+lxeLYgA0QWVtRXsak612SAxuW6JwSTxsnS2cWN2ELVHVymdXZ1KUaW5OI/s5JYhkVZkZslEd9OjMCIgmzsrK9FoUYDIgf03ZG/P5R18JV5MJit4M1kgdpgRnxrG6aWFOBf0mL9ZnZ+nB6HNfU1aLYTKRTywUFNbPEkgYBA4KFG4IEgD7M+XYE/vTgeI8Z/iElT52P8u59g5FvTMX/xOkTFJoPkB7f7RsRkxJvTsHzddu6Uervf/068n8vlQr2ymUnVnXj/h/U9i9R21uVvyFRjT64aBc0mrk0vmXl7NNtyJSDec0WZnvKhslmXylbSCnqz3oYrVXoEZKm5dGhkvRlm152v+nOvx7DN0skB+uzYNhS2mDzEgQJGC/scJLlSLyyJmFHGIfYqlHMmuT0Oj6Dxk0nQ5aTB1FAFXUkOmjYuhmLkE5KMafjvUTflDWgiLzOB6EseZMJAjcx6NhcUWhtf37ykdlTo+v9d0bmcuKRqw8zqUvw8M4F9A4MNpGXC8LOMBIwtzcPSukoca21iYzU1YuspeXqvR6v3+W1dXVxN6ZK6HRuVtUx0Hs1Nw9+kDK65G+MTH4YvxYexd2EkkYi6WlRq9TwP5GpLRCg44yDvzVbOTBnNFtBGGQi90YwytQbbFTV4NCsF36BmeQNker6fHIVZVWWgfhD3K7690RZ/CQQEAgKBe4fAA0EeZsxdiideGIeV67YjJj4V18LjsHnbPgwb+R4mT1+AjJwCD8IkS+hQqaFSa+B0uqQu0jY7zGYLXJ1SRRVaxTQYTaBgm24mkxktbR3Q6Y2ejs9VNXV4Zcz7+GLVFpY90PNINqXW6NDc2g6T2eI5Z2dnF4xGMz9GGYt2lYZXM+kJ1MWQg0x31RGVRguNVsfnpvej53d4PV9+Uwqk6Jo0On2v7IreYOLrpWC0pbUDRqOJX0LZEbrmTdv2I+RqFF8PBUXidusIkK8hVmnFxiwNAty9BkiXL1cA8hg9++jyWV7jJg/ehl2ad7TR2FHpULvdCaXOitOlOqzNUONUhRFN5jtT9efWUbh9r7S6urG/WI+3rzUjU9mTcZCIg5R58C7HKhMIKsFKWQbl7ElQvP4HKNweB8WwR6C6GgyLTsu4quPCoBj3bI8HYvgjaPjgDaijrsBus0nyJafTk2noIQ09BMLucKK4w4rFKSpszNGiw9p7PJzd3Ug36LCirpr9Ad9MjPC78i2TCiINf58ai2FF2VwR6HhbM0otJlBQPtRuru5ubhRH/o51DTWYUF7Aci1Z2iR/5n73FOjHh+EfU2LwfkkBghsb0WE0e7IOMoFgEuEmD7J0Sd7rjRa06I04q1RiRH7WgGZqwv7byZHsE6mwmkUp16E24cT1CgQEAncVgQeCPHw0dymeeulNnAy+xOBR6rm5tQ3L1mzFM8MnYF1AEDo7O6FsasWJ4MvYsuMgduw5ipBrUVDUKxGfnIG9h06jrKIGFMxdC4/FvsNnUFffiOy8Iuw+cBKBuw9hx95jSEjO5JXhvuSBtNjnLoUjYMdBbAs6gp37jiMpNZtJQFNLG7btPsKvp2PrA/fizIVraG3rgFqjxaWrUXy+o6cu8us3bz/AGZPo+BQEHTiJ9Vv24MSZEKjUWv58dJ37jwYjcNchPteVsFgOfKg++pYdh7Dn4EkcOXkBazbvRtCBE6isVjChWbVhB14c8S5mf7YKew6cQlZu0V2dbA/SyWyd3QipMWFlmgqnS7VQaixcBUhaHe8tq5FNvUQaiBxI5EHaE1GQCYSHPMjSGdqTadfqQGqjGRuyNZzhqDM8eI2uqNpUeqsVY6824WK51l1RiUyzlGmQsg1spPU0fpOM0pxxiI9A46fvo/b1xzzEgAzSild+h+b1n8NYUw6r2QSjogpNS2ZAMeKP7uzDI0w06qeOhDb6GhMIOeNAe2pkxs3MemUfnLA5XUhpNOOTuDacKDeASCTdqKvykdZmNuL+bUr0oEkDmab/PTMRH5QXYVezEhkGHSxdvUnJUP7uUJfsKqsZx1ubMKe6DH/ISeVmcv0SB2+5U3wo+0N+nZGEpVXl7IcgeZKvzINMGuTMA2Uf6L7GYEJCayveL87HP6TE+JRSEXmg7ZtJEZhcUcgZFCFgGsqzTly7QEAgcCcReCDJAwFGQVloZDz++NwYkKyprV2FvYfOYMIHczkgP3LiPOYuXIPDJ86DgvY33voQx06HICe/GNM++QLzF69FeHQS5i1ai9mfrcbp81exZedBTJ25GIXF5aioqumVeTh2+hJeGPEOB/RXwmMxc/4KvDPtU+QVlqKgqAxPDXsTE6bMw+GT57F0zVa88eZ0JjKVVQqWV73x1nQmDgePncO7H36KNyd/goDtB3Ay+DI+nrccw8dMQWJKFpOAZWu3YeLUeTgRfAmHjp3DW+/NRlpmHhORx58bgxdem8TkgQjMs8Pfxsat+6BsbMHcRWvx/OuTsGjFJpw6dxVFJRV3cm49sO9tcXbjTIURq9I7EKswQGMkGQVlHKSsg6/VcQ9p4EZmPbXtJfIgkQo560Cr297GXfqbtnKVBbvzNdiWq0HlAJKZoQh8s9mFD6JaEJilgt5MunaZMPiWKVHWwaLXQZMQjobZE5k4MGFwG6P5PmUgRv4J6thr0NeWwZCfDn12MpqWz0QtEQjZRD38ERCB0ISdlzIQMlmgLsi0Od2bw8kSSKfLCZPdieMlOsyKa0NCixmxWjXLdH6WmQgyNcvB6EAB8reSIrlz9PL6KlxVt6PVYX/gV7w77DbEqDqwSVGN1wqy8bfJg5A0cRYilAnHy3mZ2FVXiya9kaWB/WUeiDjI5IH2OoMJ+R0qrKwsx0/T4gYkdl9PimAjOHXGFjeBgEBAICAQuBGBB4I8kGzJO/NAH5NWKc+GhOHx58fwSntpeTX7IV4bNxWbt+/nFXsiEouWb2ap05yFa7Dgi/VYvXEnRr39EZOFw8fPgZ4/ffYSzj6s3RyEF15/B6fPXeHAW5YtUdA4ZtJMPP78WDQ0NnOWgzILf375Lc5A5BeW4ulX3sbiFQF8XanpuRg94WMsXhnAZGX+orWYOmsxEw2SS63dtBvPDp/I8iIKRA8fP49XRr2PC5fDQdmIse/MxNhJMzmTsX3PUSYtazbt5kzG48+Nxsi3PmTZlbKxma+B3pvkT/uOnMGINz/E5bBYlmaQnErcbg4BWmU+X2XEyrQOJDcYoDVJpSXlYFeW0njv5YyClHmQiEOvjANnH9ySJTLv9iIPsmHXyV15a7U2bM9VY1eBFk3mByMD4eq6jiNleoy+3IR6jQVms2yOlrDtL+OgSYiA8tP3JI+DLFXyJg90f9jv0HHlDNQ5iWheNZ8N1PqcFHSc2oeW7StQ+/qjUAx/BLWvPYqGaaOgibwCu90m+Rz6kgenRB5cLidoq9fbsTpDjddjavHnnCzuH8CkYYAmb7y6nSh1O6aKRfE6DfSuh0c+SBlgyqZprTZkaNTYVl+LkYXZIM/Bl90koV/CFR+KryaE4edp8fi0vAQp7R3Qe/wOku/BO/sg35fJAxGIarUWgTVV+C+54pV3lsPrPmWDxpflo94+OGP8zf2KiGcLBAQCAoGhjcADRR5OnLnE1TJIakCr/VNnLeJgf+fe4yDyQCbq8e/OAj3vcmg0zl8KR3xSOlrbVZx9GPn2dLw44h3MmLcMhSXlLCUaNnIylq4OZCJyOTSG5UZEBkrLqzyZByIPL418D0++MB4GgxEUlIdFJeBPL41nyRQ9/5nhb2P5mm08Wyhz8eZ7c/DZso3IyM4HkYc5n6+Gok7JMifKOND7xSWl8/PPXgzFiPHTQPuQK5FMbj78ZAlOnruCy2ExCL4QytWlyBtB5IFIEd3Uai3LtqZ8vJD9Fkc4wzId1yLi+bj45+YQIDlcdL2FiUOsQg+tUeo7IEuV5CBXlil5sg2yXMnta/EQB5sD1FmXZEv0GG99yYO8Cu7e09yu0diwJVeN4+UGqG1DW97CEkOTE69casTlSq3HIE1YSnj2SMC8CZmhqgRNq+dA8fpjPR6HvsSB/n75d1ARechKQP3k16CcNQnmpgbYDHqYW5Ro+GSC9Ho3+VDOmgCzso4DXPJEyb4Huk8ZB9rIC0Wbs7MTcQ1mPHmpCl+9nMQa/X4D34QwUNO2p/IzEKBUINOoh/kBkiYN9ptEv400h+XsGjWHK9RqcUBZz1WWvp0U4VNW1BdXKsP6Ym4Gl2VtM5jdhunBEYhGrR4n6+vx24xkfI2M1F6kQb5PJI8IxJjSPCjt1sF+PPE8gYBAQCDwUCDwwJCHJ54fi4/nL8eufSewedt+kA/i2eETODCvrKnjVfklq7YwgTh19goqq2qRmV2A5LRsaLV6JhtTZi7Cky+Mw5ETF3jlPiU9hwPxmfOXIyElk6sUxSSkIregpBd5oKBvxfodeOzZ0bh8LRp1DY1YsioQw954D5ExySDyQLKlj+YsY5/B/iPBeGXMB9iy8xCTmv7IQ2xiGk9CJg/jpiH4wjW+zvc/Xoi33puDiJgkJhzpmXm4Gh6HDrVv8jB15iKQH+Li1Sg8/9okrhCVmJrFHo+HYpbfpg9ZoXVgfZYa58u06DDIxKG3kZeIg0wevL0NTCSskhm6L3nwRRpk7b0cvNKeqobx3y4XijqsWJaqQlSD5Z6U6rxNkMLZfR0HCrWYFN6CDoPFXVWn/4wDEwibHfrKEjQun8VZgxvkSt4kYtjv2DStyUlE/XuvQfHq4zCU5MFOxnSbDcrPpnrIB8mY6j8YAVNjvYc0yLgT9hJx6CEPRCBUZgcWJrXhO2cy8aUYCkRDbwhGv5oYgf/KSsYSRRWS9FoY3IUYbheGQ+V9iChSUQpJBiZJ85g82xzcHC5LrcZWRQ2ezE6D3zKv8WH4ekI4/jM9AcurylGm1rK/gRrG0SZnHeQ9ZR+0etpMLGFq0Rpwpr4Bf8xK4ffxVYnpy4nhXCaXzN6iD8RQmWXiOgUCAoG7gcADQR6IFIx4czrGvTMLEz6Yx/IkIhJBB0+iuLSCqxHRyiGZn8lETR4C8h2QEflqeCyMJqkS0vago5g26wsO8Ok/OnqcekbQ8z/9Yh0ThA2Be1leRKVa352+gKsXUYBRU1uP5Wu3Yea8FXyOGXOXsZ9Cq9MzeaAsBPkaPlu2iSVKC5dv4uwGlU5dvXEXVm7YyZIn+s91/+EzeGfaAvYx0CS4FhGHD2Ys5L1Ob2DSQJ4K8mOsXLcN67YEsfSKqjSR5Gr2gpU8d4gUvTl5Nj5bsoGzIeWVNfhozlKMe3cWy7XkzMbdmGhD/RxkkN5TqMfWHBXqNVT1xV1VybNCLpEGJg+yqZfM0exxkD0NUnbBY5D2yjYQWZDlSr6IA2nvOYB1kwi704VLVXqsy1Kjagj7H7SOLjx/rhGh1TovnwNlG3xnHORsjlmrgSr8Auo/Hu/xLvgkEUQeLp+GRB5eRe0rj6Bl/WLokqOhPncUdeOf594PXKFp3NNQhxyD3WLuIWpMGqRMg5xx6KQGbJ30WCecrk5crTbg0Uvl+HJoXC/y8OWEcPx9WiymV5XiiroD7U7HQ10GlMmDS5ItMQl2OD1dvmUSoTZbEN/WjsVVpfhxauyA5VUp4KcMAVVkmlKSj9T2NujdzeJk0iDve8hDD4lo0xpwUanEk9mp+BplH/op5Uom6rnV5TAPwapXQ/13V1y/QEAgcH8i8ECQB6p8lFdQ6tlIFkTBPZVW9b7Rf1jKphYmEelZ+exbIKkPlUSlG5mKyytruWyr/Doq00qPZWTlc0M4kj9R4EjBTVFpJVdrkl/f3NKO7LxiDvpLyqo4e0GlWFm29Mrb7L0gQ3ZWbiHqlU28CkfBUK1CiRpFA8tW6D/YxqZWfm/yKdCNrrG4tJL3XV3dLHOpqq7jzAnJnsj4TNdJxCO/sMyTUaBgp6ConKst0ftQcEqVlzJzCpBfVAYqCytug0MgqcmKDZkqpDToYbJYJHO0F3HwltTIq+PUgIzmCY0xZxf6VFYiuZN8XCYODndTMl7xdlf7IZkHy2Zk6QwTCBc0Fgc2ZqpxvtoEk3No9oCIbzTjT6eVUBtlY3QPaeiVxXETMpk8EG5mVQdUkSGonzGuXwJR+/Lv0HHtLDS5SZx5qGUT9ZNomDoKdRNegOIVqeKSYvwzUF8+AbtOKuHswdvpmziQdp8kOLRvNTrwSUILvnY+FV+KkxqjkUTpxcIsHG1rQqPddlu6PQ9upt6/z6LfSSJcTBwoi0aFANySPpk80PjarDa0GI241tqM8YW5+MYAHhJZZvTdpAi8nJeBYKUSaoPJ0+uhf/IgZSE6dEZENjbhsayUAQnED5KjsVBRCWe38IndvzNMXJlAQCBwtxB4IMjD3QLrVs7jIQ9enodbeR/xmnuHgMHRhZ0FWhwq1EBt7E0cuJeDD6kSEQdpcxuh3VkGyjoQuaiqUXAp3a27DzMx5EDKizhwgOU27HoHslL2oSegzWoxczfmQpXj3gH0F5x5dlwb1qS13+Bv8CYOHsIgl7n1qlhlUavQcS3YN4EY/nsoZ70NfUEmzG2NaFrxCRQjJI8EkQgmEkwmnoD60gnYdGp3dkcma7JBugfvTlcnePOQhy44XJ0IytPgH87n4MtRUfintDjMrylHllEPi1it9syO7u7rvUvfMnno8f1YbQ53GWPpu0OVlPLVGpYy/Tw9/gY5mEwceB8fim8lRuDRrGQcqFegVW/0VFsiAnFj5kEiD1qdCR1aA642NuLRzGR8hZvU3Sg9+6vEcPzftFjsb1GKLtSeERV3BAICgYcVAUEe7vDIE3koKavk6khkhBa3oYdAYpMVAdkq5DYZOfD3GKOpXKgsUZL3HOD2EAdaIdfqDZx5YLkSNSS0WHH24jU8+eJ4jJ/8CcqratiTQo0FvTMOcplQb7kS3aeMEktnXC5YHE4sT1Xhcq0J9s6hlX1wdnXhN8fqUdBicpMHd++GPmTMIpMGjwxMyubwKrXdAYtGDVVUCOqnj+mdgaCsw9lDsKo7mMipfzwOAAAAIABJREFUI0KgGPt0Ty8IdxZCE3oGNoNOwt6d1ZEx75EquUkDkQfKODCJoMyDtKU1WfBMaBX+lFSA4I6Wh16i5OtbTlh5/A6ezIMDdnfhACYPViLXNtCYE4GkBoEdJgsiW1vxdnEuV1vqT15Ej1M1pl+mxWNNVQWUWr2HQPgiDzqDGUQeNDoj2nUGRDU3s4eiP78FPf6rzERcVLX5+njiMYGAQEAg8NAgIMjDXRhqMiuT9KmpufUunE2c4nYiQM3L9hXqsC1bxWVZveVJ3qvjHnM0kwgyUVtRUa0AldLdue9YL/JA5XjJ8/KHZ0ZxB3TqSk5Su5UbtnMpXvLJSNIOqb+AHMjKxMFDHjo7WaoWX2/Cxiw16o1Dq3RrlcaO3x2vh85d7paw7YUpYenuxM17r4wDEQdZCkZ7i1aNjtCzvQhE7fBH0LY/AJbWZpbHdJzeD8Xop3plHJg46HVwOFwso+mLtSRP6kMc3HIlJg5dXaDu7W1mJ6bHtGBdXgdMogSyz68g+UM88jwiD3YfsiU3eaDvE88Fq0QgqDFckUaLldUV+GFSVP9ZiPhQNlv/JDUWK6rKUa3RMYHolzzoJfKg1hnQptMjpKERP6c+ED7KxpK/gnpAPJabhmKT6AHhc5DFgwIBgcBDgYAgDw/FMIsPeasItJpd2JmnwbkyLSyW3np8byLB5MFqg8FgYk8LmeCpSSA15Zu7aI2bPEgBr2Rsn44nXhgHMvvTSitV/Xr+tYkYNeEjblB4LiQMLW0dUklL8jr0yTh4S2e0Fifmxrcjt91+qx/ztr2uw+mE3e0hGuhNydtztFSHSaHNsLpx7UscJLmSTSIQ5B3p4x+RyYNMJCgDQQSibsoIJghcPWniMLSu+hTtG5eg4b0RULxKfR1+D8UbT0B98SjsnozDjVKl/omDO+PAxKGTyYPd1YmlKSpsydXC4hK6+L5jT+NNZIskeEwg3JkHzh6x78EtX2LpkpRZovlgJvJA/hYLNWK0ocFgxDFlPX6dmdTLnN5LwuTuFv2PqTH4rLwUlWqtT9kSZx6IPOiNUOsNvG/VGHCyrhbfp5KxfQzURB5o+1ZSBCaUF0LrfHj6c/QdT/G3QEAg8HAjIMjDwz3+4tP7QSC5yYpdeWqUtpk9EqVeQa5bUkOm9mvhsfhkwUruVk5NCymz8OjTIzFn4WrPKjkZQ8kcT8SBSglTM0Gb3Y7ktCw8+cJY/OGZkdzY8KU33sXk6Z9h195joIIAVIGJMw4kWZKlM+4VcDLKr8tQI7LBDKoKdS9v+UYDNihrUWExD1hZ6Hp3N6ZFtWJXroolS96YSqSBsg7uzIM3ceiTcZAJBO8dTlh1WqjCz6F+2sieDMMbj6Pujce5qhL7HN54HJqws7C5zdEsFWMzutTLQcrskDzJV8ahN3Eg7CnzQPLE7blarMtUo80ytHtv3In5w5WW3A3ipKyad6lW8gV5kwcyTUuSQJIFMoGwSASCSITaZEZMayvGFeb4Len6g+QozC8rQalK4y7VKldboq7Tku+ByYPOAMo+0Nas1mJXTS2+k3hjzwmZQPxtSjTm1ZSjaxBE+U7gKd5TICAQEAjcSwQEebiX6Itz39cIUMATXGHE1mw1NCytkaQUcsaBpEmK+kYcOBbM5XeHj/0ATzABkEjDH58bg0nT5iE0Mp7JA624WsxWhEclMKl46Y3JKC6r5OxCtaIey9ZtxYtvvMvHiHT88dnReO7ViXjr/dlYs2kncvKKYLZY4HL1aO2l1fEuhNcasadIi5Z7HLgaOjsxqjQXf8pPx7n2Vtj6Da6u46ngBkTVGnqTB4+/oSfjwHj3IQ1yuVtv8sCmczKk6zToCDuHuveG9/ZAUP+HkWSOPg67TsuEjFfCPT4H7wyPmzzIxmiPUVomD0QaJOLQ2dUNqoIWXK5n/0m5duisSNMct3V1Q2XtgsLgRKnWjtwOKzLabcjqsKFAbUepxg6l0QWNrROO7u5bNgzTXPUQB4/noaeMsex5oAyTt4TNTB4YN5ngDITZCq3JglyVGvPKSv1WY/phchTmlBWjTKXtRSCIPJDfQd5k8qDS6tGg1mJheXG/8ijyP/w0Ix6n21vu698wcXECAYGAQOBOICDIw51AVbznA4GAq+s6jpUaEJSrZsmSvDpuNJqRm1+CVRt2YszEj/H0K29zg0DONDwzkruUrw3YjfSsPPa5kJSJ+zjYnVy+l/qBUIZh7KSPodcbOKCiVXaVWss+iVNnL+PdDxdwBoJIBL3vky+Owyuj3wc1LAyLjAf5JGjV29XZxZtC58CHCS0IqmnDlY6Oe7Zdbm/HiOJcfC8lCj9KjcGbJfkoMBnQdf16rzlBQeu/HVSgtJ0yOj1yMCnbQAElPSZtLG3xqlYlEwfa+yIP9JjNaGQTdd0Hr/cQiJFPQhtxHjad1hPEctdody8HKonbyyAtEwfey2RC8jj0EIcuXn2mFeiYejMWJ7cjq83W67PeL3+YnF0o0dhxstyA+YkdeONyC/54qhH/fbQevzxYh58eUOCf99XiJ3tr8c/7FPiX/fS3tP/ZgTr826EG/PpYA548o8Toq81YkqbGhRojqg0OJiADfU7Chz0PRBrkjaot2alZH21S5sHa1/PApum+5MEGk9kGvdmKOr0BG2qq8KPkAXwQCWH4TlIkZyDKOANhYhLRizyQdEkrZR5UOj2IQNSptHgjL/sG+RJJpCgDQeZsIsmFwv8w0NCLYwIBgcADiIAgDw/goIqP9JcjQMGt0dGFIyV6HC3SugNZqelbVGwSPvh4Iajx32NuadLjz4/Fux9+ijPnr3GfDSIClJmgoIiCWdkoSmbo0RNnsGyJvBD0uFyKlYIqIhlkqCZzfWJKJlZs2I6XRk5mAkEkgs7zwuvv4OipizCaLCyZoZVvg92FYVfq8HfRyRy0U+B+r7ZvJ0WynIQCrL9OisRPMxOwsLYCSrvds2pNxOzHexVo0Fp4lVnOLniThx49vLw6beceJyRxkXGVyYOMr/febjJCFXMJ9R+OgmLMn6G5chI2Mke7V70ZexdVr/LqGt2XKFCWh2VicpZBImtE2mS5EgXGtGW1WrEwqQNUnet+uNm7upksbMvXYszVFvy/Yw341/0K/ENQDX6wswbf3V6Nv91Zw2ThPw/X4bFTDXjhbAPeCFHyNipEidcvKvHc2QY8erIe/3aoDv83qAbf21HNr/3hrhr8455a/OyAAr87UY/JkW04WmZAndEJV1dv+Rz1eCBy5nA6POTB7qNJHI0tzQGWrsnZBm8Jk1u+RP4Ho8UKMlI36o3YU6fAP6XE+Az0ZT/E95Ii8UV5CWrVlIGgTtNu2ZLOKEmW+pAHKuFa2q7iCkz9+R9ork8oKxAlee+HCS+uQSAgELhrCAjycNegFicaagi0mF04WKTDxQpdT4BrteHStUgmAJQVoG3ilLm4GhaHuoYmUAdwWjH3EAa7VFWGg1qnE3UNjZxFeGb4BBw7fdFdulKuqkSae/fmlLrvajQ65BWUYOX67XjqpfEeSdOu/SdgMJk85MHR2YVXrtTja2Fx+BLVqqeOufdok3Xh8p5q5H83OQr/npWIZXVVqLPZ4HB14//uqUWLztyDrSxZ8s44eJqIuQkEZRXchMyDsUPSz3uIA1XxkbMSJiNMdZWwKCpgNxpATfiIPHiqKnllG3p5HfqSCDdZkDM9RBw85MF9v7DDhoXJHYhV3jvy4OzqRoHKxp3Hnz3XhJ8frMPfB9Xib3ZUc6D/x1MNmB7Vgt15aoRV65HTZERZmwnVKjPqNBY0qM1Qatyb1oxGrRlKrYWP1ajMnCnKbDLiapUOgVkdmBzRgt+eaMDf767B93dW4/8E1eLfD9VheEgT9pTooDA60NV9nRtxyuRY/i5I5IHGk8aWSIO8yV4XKeNAngdv2ZJsnjYSgTBbeWt2E4hfUD+IPkZn7+8BSZi21lShQaNnAtFXskR/y5kHldYAlUaHuMZmfDcx0uf3ieb4j9PjsLlRMdR+3sT1CgQEAgKBW0ZAkIdbhk688EFHoE7vwL4CDcKr9T0BrtXuJg8feQJ58jaMeHMaNm7dh9LyKlC/hhsCW7dUIzouhV83bORkFJdWMHmQMg9yQCtJZyjAam1X4XJoND785AuWRpHUSTZhM3kwmtioS2ZdkoSMvNKAr4fee/LgHax536dA6xuJEfg/qbEYX5KPHwbVolXnzjzIxIH2XlWV5OwDkwGWtlD2Qapa5SELXuSBAlKWiHk95qDMD+NPJE2SzUjkQcKatPhsfPYQBso23JhxkAmDhzRQxsFtlqbHiDx8nqxCjNJy178aGnsnjpTq8dL5RiZl391RjR/srMZvj9fj88Q2hNcYQMF/u4H8AhRw27l6kdynhCqJSdXEeuRiVB7XWz7G8jL3ONHrjBY7dGYb2g02VHSYcaFCh4+iW/GrQwomK3QNP9lXi7fCWnC1xgSNWc7CucejV+ZBNsgTgZD8Lh7CMAB54AyE2codpTsMJpxSNuBX6QkDEogfJUdjr0KBFq3B43cg0sCeByIMWkm2xDImrR4dGh12VVezVMl7PtN9mtNfSQzHb3PTkG003PVxFycUCAgEBAL3AgFBHu4F6uKcQwKBWr0De5k86NyVf6QmZs0t7SBfwpuTZ+GJ56lC0ig89uwovv/caxMxY95yRMQkoUMtmXLllVYKXNds2sXkYczEGdDpJL8DPU7SGQpoKXAmUhG48yBGvj1dkkY9O9otWxoJMlmv2xyE0vJqzlLIwavT1YVRV5X4+n2QeegbYPX9m8ym/5gSh+/urOYVbTlYlILVHokSEQaWr9DKdJ+Mww3kjMgCyb7c0i8mCW4C4WRpmDs7IZMHwtstV5JM516eBq5i5WVK75LIhSxV8pCI7u5e2QeSLX2e1H7XZEvkImkyubApW4vfn1Di+ztrOGj/9dE6LExoRUqDAc06C/fRII+AZELuIQdEBnr5Taw9ciFZPibt3eZ1Jg7yfa9Gfe7MAWUI9GYbGnVWRNYaMC2qBT8/qACRiB/urMHTwUocKdKi3WTzEDzJ6+A+LxNHiTzSeYnMSKVa+888yOSBMhDUSZoIxKH6OvzHQAQiPhT/khqLq41KdOh6CIRMHog0EIGQPRBqjR6KDjXGFdzof5Cza1S+dUpl8QAFAobET564SIGAQEAgMCgEBHkYFEw3/6Tu69e5VCVp58VtaCLQZHLiYJGWJRqyDluWWFDwqtMZEZOQig9nL8FTw97y+BJkOROVW9266zBq6urdem8nxkz8CJSpmLtwjSSfcZMG6v1wLSIW0z5ZzL6GR9xGaSIm9PzRE2bg8IlzUDa1wkUafC/ZDN13uDrx2uUGfO0+zjyQfOm/spOwv1kJo92BXxyoQ0m7yaNxJ2w5w9DHHO39WC/S0EcSxhkHt/mZyYO7ihJ5T/bs3IqPp4zDpQvBMBmNNxqj5fK3nHGQKyqRNKmnqpJM1Hrt3X4H8jzE1puwLKUDOW13vt9Gm8WFDdla/PJgPb6xVcoykFchpEKHDoNFyiJQ/wyv3iRyFkfes8+EVvUtEimWH++9d2cf3BkH6TUSAek7LvLfsqGdzNCtBisOFWrx1Bkl+yS+HliF3x6vw9FiDdqM9N49pnd+ndXBZVpZxuSVcfBkIXp5HqTeD7J0icgDbRqjGUcb6vGzNMrChfqUG9Hj/5uRiPiWVqgp60B+B9nzIGceNO7yrRqSL+lR1t6Bf02N8/1+XH0pAXualUPzx05ctUDgAUJAxF93fjAFefgLMbZ3dqPW4MCFKhO+yOjAmGst+HNwE353ooFNhI+cqMczZxsxIbwVS9M7EFxF1UnssIkutH8h8nf25UT5VNZOHCjQILhUy/INDqpkLb3XnoLTvMJSUBWl516b5JEzyRIj6vNAXgYyS1N/hydfGIfjpy+6jbq0Iu5ASloOnnhhDL+WXkcbVViaPH0BLodFQ63Vg4zRUllQqa8ABbFEHChwtbq68OJlBb56H2YeaHX2PzKTcLClCbbOTjZNX++6jidONyC6VvKIUFBK+PYKQL1q/1M3Yl8yJZkkyHuPZ4Q6RlNDMqcLuVlZePmZ3+DX//5DPPXor9BQp/CQB6PBAK1Ww6Z1T/8MN649xEEyRLMxmo7J8iYv/Ok/q7OVRqxIU6HiDpZqtbi6cbJCj/89UYdvbq3Gj3bX4J2wFiTWG6A3WaWqYNzl3CuL4Ma2NymQCEP/xEEmDTZYKAvgJg+e9/Ca//KYee+JCFhpc4+pwWLHpSqSVSnx3W1V+PqWSjx+sh7RCgP0Fve18vNlD4R0fTeTefAmEWqDCVtrq/Hj1NgBCcTI/CzktnX0ki+x50Gn98iY1EQetHq0anQ4rqjDV/rxElFG7fmCTCjt92e1rTv7iyneXSBw9xFwXb+OZosToQoL1mapMDGyBc+fb8QjJxvw+xP1+P3JejxxWolRV1qwIKUdxyv0KNbaYem89ZLTd/9T3p9nFOThFsbF5upGQpMJH8W14VeH67jayMsXGllbfLBAzRr59EYDcpqNyGg0IKJWh0OFGnyW2IZh55X45QEF/utoHT6Oa0dsoxkUEIjb/YeA1dnJq6b78zVSOUmvgKlndVXWcZPWngzRTdi+5yheHv0eEwDKQsjkISuviMkBNZArKCpzm3YlHX5yeo67Sdwo9jfMWrCCG8eZLdYe0uClsfcmDhS4dlhceO1aPR5PzcOLhVn3bHupKAu/zEzAN5IiWA/+92mxWNdQC4PL1WuA6frfC2/hJnHepME7AL3hPpmdvb0MbgmSTBxo7yEP3JVb6hpdWlKCV194hMnDS8/+Ho2NSjd56MTUyePx+O9+irb2Nu6ATF2QpaxOT8aBCRtJlNwyJSIPTCRoPK5f540yjNtytFiboUab9fY3iaPzFKrsGH+tFd/eVs0Vj94IaUR0rZ5X22meWKy0yfKkgbIJUrDuIQJ9TelMFkieJPkQ6HmytMzfWMnfC9r3HT8iyWRyPleuw5On6vGdbdX4623VbOCu01qZbEjGaen6uDRyn+wDmaVlwzRJlmTZEmcdSLrkNlDT3206I1ZWleN7PrpFe6R08WFYWFYChUrrIRByvwciDXyf9mye1qOqXY0Jhbn9EpIfpERjRX01RL6519dd/CEQuG0IODq7kdNuw+L0Dvz2RD2ojDRJImfGtGBPrgrXqnVIazQgt8WIrCYDYhQ6nCrRYmlyO94IaQJVlqOiDm+FtnCpaa399v9e37YPex+/kSAPgxgcCgwcXde5idK6LA2XNPxzsBIbMzpQ1Gpkna9Uk17S6fJ9Oc1Pe14JtIGaH9F/vlSfvKDFiI2ZHXj+bCOeDFZifZYa1Ton7J3XPeUsB3Fp4il3CAEac9K4HynWYVuOildeKRji4IhWxN16fHqMA1rPyriD9dwarR4XrkRg0rT5WLRiMxOFLTsPMXkYNuo97u8gVfch8uBAenY+931YF7AbFZU1vGLu3cfBI5Vxy2QokKUAlkpgdl/vRk6rFQHZatQbegfpdwieft+WiMyE8gL8Q1os76utvjtNd3Vdx6EiLd6+2tSLmHmCT69yrL0Igzd5kH0ODglzbxLB92Wvg92O+NhoBO0IQGF+HmeRyF/S3taKx3/zL/jNf/wIrS2N7JdgHwRlFtwN4Pri7iENMv5ueSKNx5IUFQJztbe1yzcTQ2snAvO0+Ke9khH5qdNKnC7RQme0ciBtZu+C1V1OWCIPsiRpIILg6xj9dtH70Z4yamT+N8ubpec3TH6thyB4ZYk83xE3KfF8R2Qzu9PJ2YY9+Wr8z9E6fGd7NX5xQIFTpVqojDJpofNLkipqEidXXPImD3KmQdpbYDTTJnkfZAlTk86A2WVF+C51i+5HwvStxHAcq6tDs8adbaBO07KMifZe5KFdpUVWcyt+kuq7LCxl2f6Un4FUva7f74g4IBAQCNwcAq7u62im6oclejx7Xok/nmxgX1dqg4F/M6gjPfuk3FlX+v2i3yheAKH7/Lf0GC04VHRYsL9Ag9cuNuGRUw34NKmDq9RZKSNxc5f20D5bkAc/Q9/ZfR2NJtIXa/DY6UZMDm9BUp0BRnNPdRJ5tY/+w2YZgHvSyql+mTzQhPb8Z+sOOqliSUK9AVMiWvDk6UZsytWi0ewCnVfc7h0CRB4oML9UZcC2bBWa9dLYeQIjWlmVg1YKYmXy4Dbsyvp7s5W6UCtZmkQlXclYPWXmIv67s9MF2sgsTY3nWttU0uq3W2cvkwdPAOuR00hSJSYO7iD2cImOr9XguLdZrBqLBaOKc3G4tRHGTt8rOjSzu7uvo6jVhN8cq+PVYvpe0KrzDUGpTM68SYM740AYWywWqNVqNDY2or6hHi0tzejoaIdKpeKNOnK3tLSgrq4OdXUKNDQ08GvKSosxd9Z7nI3431/9HWIjryA7MwX0OFde4q7RPfIwIg2ceXDjLWccKLinjSRu8xI6cLBYz3/fjplLvwElGgfGX2vGX2+rwk/312JubCuXTqXfHMo2UKBPc4yyDvT7IpOG/uVIN2YdpNfZYDSZodFo0dLaBoWiDoVFJchIz0RScirS0jNQUFCEmppatLS0QqPRwGg08TnlMfMQP6+x9CYO3iRQ/n5Ua6wsuyL5FWUh5sS2ok7jzqK4O0t7S5duJA8SYZCIw43kgUhEhVqHd4rz8PXEcN9+hfhQ/Cz1/7P3HmBSVdu66Dv3nPfuve+c8917zzs73HvO3iqKEQEFBBREDIgiiAEQEFABkShIEBAFRBGRHCXnIDl07qZzzrE6d1V3V85VHaoT/u8bY61Ztbq7CLoNG7rq++Y3V6+KPddcc45//OMf4xqu1epA6VkFy+AFEArwYLLYUW2yYlNJMf6RUiJ3ACQEHv45Pgyzywrhud72S0yDwGcERqDLjgClebY0tnEmOXLYvn6hBldK7LA4fSGaQg8lnA20Boo1iRlTL3hQhMXKjg1aW3L0dVgaa0D/ExosiDNCZfOguS1gf91q0gXAw01GiMKJLpa7MOSHaky8WovEaifT7hJIoEwlglVQTlYZAcvUfz1XyvXIIkDf5BUgQkxyAhpxGhfeDdLh9YtaXK5wo66lDQG99U0u0K/8FIWwZOvrsTndjFiNqx3w4+tH4IGMWwEcZE+4MnymiQpjtbTA4XJh6KsTMGT4O9i9/xiDhtaWFkitVSpERmLdtja0UHYf2fMthdBIRqw4pp5ZBzlkhgqukeEaV1PfqTjXrzxEnT4+2eFAVUMDG9qdnpRPEDCjsSXg/NjBShQZ3TyOdC+Qp4jvCY+UklVpcIpjAdocDjuuXDqLd8cMx9NP3od+Pf+CwU89gBcG9cBLz/bEy0P7ICoiGLPeH4t+Pf4DTzz6Zzzb/0Hk5mTh2QEPg0ADNdJCPPHIH9Gnx5/x3oRRLEhnhkGRhlUABy/jI4MGBg/XryNF14AlsSaEV9Xhl7hpPW0/ctamRw+r8a/byvHsKQ0ul9jhrmtAHTUCDhyqROvQjcGDciMVaw2Ps8wuEKtAgKGiohLnzp/HjOnTMeiZZ/BI9+64/9575XYP7r/3Hjxw7z145KEHMbB/f7w/eRIOHzqEgsJCWKw2Zij42sns3I1Ag7iGoqdQv/rGJuzNteLh/ZX475tL8fQJDYqMdXDXecCsgwwiaL1tBx4UYUsdGQeHqw7UCDxQH2swYEhGEhcv7GjwcwhTdBBnUyo1W2GSBdPejEsdwAMBiHStHoPTEzuBBxEO1TczEVF2y41ugcD5wAgERuAWI0DRHsm6Boy5oseIc7UcjmRx0VonOWmFg0Syx2THrWyTSWudyAwnZ+tThFJ6HR3e/aYJ+QY3FkUb8PwP1did54DN0/aLOYJu8a/ekU8HwIOfy0Yev0pnExbEGvHKuWpcLrHByiECvg37hpuywgASHj2ayAIsUC8mrjgnNtLmpha4GppwvMCGURdq8GWKBaWO5gAL4eca/Ran2tquw+r2YEOqCd9nW9mw5WsmZ4jh60bAQYAHbxpQCTAQaKAwmKaWZuj0RqxZtx3fbPgeqrJyjrmXgIMyJaivenGL0nDlMBqfOFp4u6lv+/E6KKUs6WlyjQ13TMgbsSZ0f0wL1eKrZLPXU+She0XJ6HRgHMRzDQ0NOHn8AF589nH0e/z/sKbh3THD8PKQnnjy0T9i4BP34r2xw5GSGIddW7/BcwMfYqAwqO/9KFUVYuM3q/DK8329AGL54rn4etUyHDuwiwXRAjx4AZtgHDhMTGIbxHUgTcT3OXasTDBBbW/6m6+B3dOGXbk2/PuOCvzn9xWYGqKD2lLHmyaDBxk4EIigcZCaj3XouJkqQYMADg6HE2q1BsHBIZgx/UP0ePQR3PfXv6LbPffgsYe64+l+fTDy5RcwdcJbmDttImZMHotxo1/Bi0OewYA+T6D3Y4+ie7du6PHIIww4IiMjYTKZ+Zp2XNfE+nbDXr5vVOY61oT923YqaFeOi8UOWN3EsNx+qlYRrtQRPFA16cNVavRMicU/+GEMyOgnwfPO8jLUWGy+Wg8UwtQBPFDmJZ3ZhrOVavwLFY/rwD7QZ5HmZ15ZIZytv28Y4W+xTga+IzACv+QIUNCFsb4VGzOtePV8DXZnmVFrrwelmxb1aJQsg/KYw5QYEMgJH8hJ0uiL+BC2l+hprfKtS00cnhxV5cTEID1mXTMi3dgI0lgEHp1HIAAeOowJ0VWphgZMCtVjTqSetQnk1aI4OYoBVoYG3AhAiA2anhevERuqFJohAQieuMrJKyrjNjWhwFiHD0J0mBFpQJaJaLTABO5wqX71Pym0ptHTjIM5Zta3UP56vo4k3BWAQcE2iJh7Eu0KxoGAg6gnICoYU8/HlB6Um8w4tPrAA4tySZirBBEKxsFruF6/jj25duzLMcPkJsP1Vx+WX+QL6PfTQn+12Iz+xzSgbDxekH0D8CCAA42zyWjElys+Qa8H/w3vTRiJ5MQ4vjaXL5zGqy8q92HgAAAgAElEQVQ8iaEDH0RaaiJvDKRvmDblbfR57M8Y1K87qtWVzPAsnDuNwQOxDiSYZsBAIEEec+q94KGtTdaXtAcO9H+QWH15nAnbM61obJaySf3cQTI1tOLLVAuLoqlGwvo0M+wu2jhJfyCHKnG4kmAbOq9JNwIPtHa53XXQanUIDgrC2LfeRu/HH8fjjz7KoOGR7g9gcP9+WL1kNirSglFflYbGmmw0VGdJTZMJe2kCCuIu4tDWNZjw9igM7PckHn2wO/o++QTWfbMOVVUaL4Dwbco3yJTlBYa0gUthgPY6D6+7f9hRhn/ZXIJ9uVaYnJJI+lbMg8tdD2qCbRDMg/jb4pAE1H+MD/dr8JPR/+f4SETX1nrZh46CaWIdCDxQX6A34p2cDPyDH/BA4UtPZSYhyGr6uVMh8L7ACHS5EaBooVJ7M5bEmTEhSOtNCOEmllVhfwnAIHphZynBg89560veIEAD9cImU65TtMfQ/lLj8ODzeBPGXdEiVF2HhkBSm05zMQAeFENCYpkwTT2r8DelC7RLYQI+xHsz8MC0vUyDiYkrJqh30srCQnHeO3GVxqgsLDS5Pfg62YwpIXpEaOpBaWEDj99uBCi8hsIqcqut+DpBh4slDjQI1kFcLz8ZfwRwkDL/+MADp/j0AgYZOHjFuVSITAIP/oxXPufH602G67woPYJKrCyyvkOwA3788TqDhSqDDc+eUCO43OFdzHkB9xqWPsNTgAcaV8qYtHzxTPTs/r+w+OOpKCrIYy1DYmwU3h45mEFBZHgwf0dLcxOmT3mLwcMzfbtBo65idkEJHoxGfTvwwKBB1jmI6yEAm7InwEHVk+dF6RBd5eRwrJ87Q0kQOC1Sx8BhwHENzhRROBCBBlkYLRgHb2YlCUAowyeFw0IACLGpUnhSdXUNoiKjMGfWLAx99lm8NXo0Plv+GebPm4OhgwZiydxp0GSGKcBCBho06ahXp6GuMgV1lclwVyShrjKJe1tJPHIiT2HN4pl4cfAAPNHjMcz66CPk5OYxSLnRdfSued5rLIEHAhAMIpqbsTPbgvv3VnDhO2J0qm313pAlCl2iMRFOHeqVTYCFjuCB2Ae11Y7JeZn4lxtlYIoOwutZqSgzWRhA3Aw86E02XFCr8b8TIjqBEQIP/y02FLNLC+HokGns586PwPsCI3A3jwA5bjNNHsyMNGDhNQOHsyqdJh11Xco1zgcayAkli6UV6b999pcIi/UPHqS1iZyDTXA2NOFIvg3jgmpxuMgBZ1NAw6ScfwHwII8GZTm6WlmHycF67M+xweAQm7aEeEmgKAmjfeEBncIBKGSJ2QZp8gqA4J24spCQqqqK57wbqTBGxYbaLHniXI3N+C7NjImUy722gbM+KS9g4PjXGwECD80trZyucXeqFhtSjdDYJQqUr1sH4KBkHOhYMAyi7wwepJAlSRgtFX4ThqroheebveLKOHvKBtV2HSdVTnyXpEWRXqoD8euNxi/7yRS25PG0wGB1YFtyLcZcroWjXqo83M7o7CBAlwBZC+x2OzavX42nev4Hhg3pie2bv2Z9w5L50zHwib/i+YEPIzUpno1RYn4E8zC47wOoVlcw46MEDzdiHm4E2oRY3e5pxcpEM5ZHa2F01INC3X7OQ1vXinfDtZx5aMCxKsRWOfwDBw5VojVIClfi+F+F9kpaf6R1iLxy5MSw2ezIzs7FsmXLMezFFzHhnfHYv38/zp85iwVzZ2HimNGIvXgIrso0NFRnol6dDndFMlwlMXAWR8CpCoNDFQpHEbUQuYm/Q2HND0L8+V2YOn40evd4DB/N+AgZGZkgsbp3fRPrmrIX9w87S6RUx3zt5fMXShx45EAVA4jP4ozQyABCpGdl8OAFDu2zLSnDlgSYIPBALVanx5D0RKlegx/W4L9EB+FwZSX0FnunVK3EOgjmwWS2I19vxNyCHNB7hN5B9AQg+mUmIdJu/TlTIvCewAh0mRGgUPF0owdzrhnxZaIJVZY62Vngs786Om69a50cKi4ABL3Oy2LLDIPXBqOwWEUY+Y3XJ4mBaGhqxqkiO8YHa3Fc5YSr+eet73fjhQyABwCUBiy2ph7vheixM9MCk0Oq0EoeLqLKuN0gk4l3wnoZBz+hSorsIzSJGTh0zFkvNlUCDc3SxBVhMHWeJmxIM+O9UD1S9I38e+/Gyfj3+D9RNWeHy42sKj2WXavGsQIrXByX38z0prhG7dkG0jq0Bw+dgIPMOIiMSi2tVADOl91HgAY+15FxoL+vX0eZ3YPF0XpcLtDD4aoHZaa4Ux4MzJpbufhdocaAISeqECKzD8oFXbANwqgU4IHGPS46HJPGvIzeD/8BfXv8bzzV8z/Rv9df8OLgx7D+6+XQaWsYwFHomAAP3rCl1lb4wMMfoNdrvSFKAriJvh3TIIvUafxJ6xClqcNHYbU4nWdk5wKBvJ/6oGrR74brWCxMwmjKTS6Ewd5eFkoLRvOGG6kMJCQ6vxFmswWXLl3G2LfH4JVhw7B18yaEBgfj23Xr8PqI4Vg8Zyoq08PQoJFAQ11FApyqCAYIzqIQOFWht9UIVGSGHMCCDyei12OPYvbMWSgsKGLwwiF+wjmiAAy+66zIXCaelwv8hVa40ONQFf64sxzL44xy7LMURtoOPMghS3SOwELHRmCCgIPNQc2NbRXl+M8E/+lWScNwf+I1ZOmNUspWP5oHClsymW0g9uGyWiOlbu1QPI7Aw/8bF4aV6jLUtwW8lj/1vgi8vmuMAG1bxfZmLIgxYWmsERqrj2UUySA6Om4FcCCQ4M1qKUAEZbVUAAQGDuSw9ee0FXYX9+0ZULG3N3iacVrlwKRQHS6Uu0HJLAIPoMuDBzIMSBQzO8qArelm6OwEFqSsHv4mrDLGTgkc6JhyDQvE60W6XuAgp6H0yOLpjuCBNk15AnvBA8XOy5up29OMlYkmzI4ycrGoO8hOvKPvMzL6na466AxmHErVYEWMFmnaOpBHgq6N15hlcbQkkKbUq4JtEH178NCecaBwJWGoUu/N7KPQOLRLDXr9OmyNrVibYsbmRA1Ka01sbJJG4055EHhoaWmD3elCjd6EbUkajDxXgxpHg3QfyPNegAe+D2QtCY15o8eDnKwMfDxzEoYOfBiTxg3HrOnjsXThLFw8dwoGg96rNWloqMfUSW9IYUt9uqG8rJjTsdJrRcal8NDLKC1WoURVyNeOr4cAbTJY82oi5DS+te5mrEo04YvoaqiNVi5y9lOvga6uBR9G6hk4DD6hRq7ezcJoL2iQi6KxUFDOkOQDEILpbN8L4EBZlI4fP4lXXh6Oye9OxIVzZ3H2h9NYtvRTBg6b13wKkyqegQOFJDmLoyTQcJuAQQksBCORGXIQM6eMZQbis2XLUFZWxpu2VyPE11UKC6DQAOFIEeBQeU/xdW5qRly1G08eUeOPOyuwJtGIaqsbrno5bEkwD34AgxJAEHiQgIMEHrRWJ6bkZeFf48Lwf8V0Zg0IQCwozIeRaj90Ag921jyYLDYQ+1CoN2FhYa6UyakDgCAW4vmcVMTZbXfKrRn4nYER+E1HoMrZjNXJFiyJNqDc5JYzyUn1ZiQbzLe+0dqmBA4+G4zYWCkqRNhgtLZ47TAFePA5LYTNJe3lvr1G4bzlfb4Fjc0tOJBnx/RwA2Jr6wOpXBEAD6DNm4o7LY0xosIsqDIp/aGYjGKy3gw4kKKfwYNywrYDDj7vGm+UDBTkySsbSt5JLRulXm82V8ttZkHs7EgDvko1g4SVgcevPwLkYaaUmEaLFSVVNfjqWgW+TTaA8tOL60M9GToSUGiWK0dLAELUcuDKxZSKtZ3GgXQOncOVBHjg0Bg5VInBg2zE1je34bTKiRVR1YgqrIbRKhuud4paGpTN9EcGTGTg6Y0WpJfWYOz5KmzKsMDV4PGCZgGeO4612WTCN2uWM+PwxqsDsXb1Uhw6sBtnTh9DWMhlpKYkwGDQob6+DimJMXjrtcGchYnYiRNH98HpcuHA3m18jlK1Dnu2Fz4YNxIfvvcmHE4H/zbv+NO4y0COQAU5HEhAd7jQgQ+CNQgprIXFZmd9zE+5BM7mNnwab8b/3F6B/seqkF7TkXGQU7K2C5n0hU2KdUnZizWKwEb0tWiMe/ttvD9lMi6eP8epVRct/ATjx43Dd6uWoDb3GocpuSsS27MLxDgUhUrtdoEEsxRhcBRHIvz0TowdNRx9n3gCO7bvgMVqbQcIqSiiaDcCDXQ/iWtOG/fVMhd6HFbjr99XYEu6CSZnB/BwA8ZBAIj24EECEHE6AwakJ+Cf/Bj8ZPT/j7gwJOkMNwEPBCJs0JttuKJW4z+pcJyfz/pfCeH4troCzT+Dlfr1V7jANwRG4PcbAVdzG3bnOvBBqB4ZtS5fqFK7Nc8HGEh/SoUrRfFKceyuq2OdFWm76uvkaBGlRkwRQUKARNnYdiOnLiVtkG0xWn98rZn3aZenGetSzVgcb0KR7c5JTvJrXd0uzTxQHYeDhU4WnCZrnHL+dDGxSIzo26jFpkwbNSFbgXhJnMMgQ04H5kW6AkQoBNJecEAUvoLG9yFeORRGsXHyBJbBAxmnheYGzkLwQ6kL9PsDj193BMiAJC83VYyurtUjTaXGkrAKbEozQeNoRCMtNnJKVolxkMCDj3GgWg6tUvE3Bg8kivYPGoS3mzzcbLhSr9Q5XL8OAg5XylxYElmDC5lVUNfoYHM4+TN/3ZH45T+d/kcCZhQCUlmtw8XMKrx2pgpXyhzsxVd6oYUhKRb0mmoNVnw6Rzb+/x09H/z/uBGT8ORjf8LzzzyKTeu/RFmpCp8vnYu3Rg7GW68N4vbO6KFQq6tQXVONuTMmYOzooXh75CC8O/ZlrFg6F0Y585IYeyVwo99MYY5J2gbMDKvFxrhKVGsNsNM1aLl9QN/Yeh3bcq34X9vL0feommvItMumxIyDLzW02OyUQKHjsW+NonAlK5YsXoLnhwzBurVf49u1X2PihPF47ZVX8NH7E1GWGoJ6TSbqKhLhIE0D6RkYKITDWRwJfXYQdJmXYS8Mbg8sbgQmikJhK4pASfIVhJzajQUfTcGjDz2IkSNeQ3x8At9DXiDIOhbSOMhhAgoGT1xf6sU1p97Z2ITTKjvXguhO1ajzrbC6RIE4CUgwUJBrOwjQIPrO4KEOVrsLG8pK8Z+JUX6NfmIfxuSkQ2u2ewvHcbiSnG2Jjy12GM125OkMmJaXCQpV6ggg6NybBVkobqj75W+iwCcGRuAOHQHKIBlVXY9pYTqcV0nJIThUnOvW+Gwvsc45nG7k5BUhNDIOwWHR/lt4NILDYxDcqadzHVpEDEIiYhAaGYuE5AzoDKZ20QS+tUhKekLauVqnBzMjDNicaeM6EHfo0P8iP7vLggfyfCbpGjEv2ojj+VbO1iFNXAEeqPchXtqYBXDwBx4EVeYDDx40cKErnzha2iz9Awd+TjZEedOUY355AtPmKjd67pTKgfEhOuRZPIFS6r/IbXDzDyGj0OlyQ6s3okJdg7DsCiwKrcCuTDOqSEDd5Ls+7UADV5AWWZV8aT8FeOAQJTkdKAMH4d1WgAZluJKrqQ0RVW58El6NfYkVKC7X8G8i78vPFere/D//dZ+le5BAuNlqR43OgIIyNb65VoG3LlYjS18neYFEqJKY/3yPNHNV6e+++RyD+nbD26OexbQpb+L9CSMw4a0X8Wz/B/DEI3/AkAGPIDkpDulpKbgWEYroiBDERIYgNioELpeLAZfZbEJifCxio0KRn5cNp8vpzbrkBQ9yjQf6vcQKqaweLIs1YnFoJXLKa6A3mdkTRuzS7Tzocy+Vu/DAfjVnFDpbZGMQ5QUP5DlTeMfIOSH+Fhupv14CD40wGk0ICgrCa6++ikFPD8SI4S/j1ZeH4Y3Ro9Gvb19s/HIxjEXxqKtKhVMVzuCAgUNJJAx54Yg+fwD7Nq7CnvUrkHTp+9sMZQqDKu4svv38E7z03DPo0+txrgPx4P33Y+eOnbBYiH3wxRR3dJj4NmoJNHT8m4CHrb4JG9LN+MueSjxzQo1rlQ7WNpDO4UZah5uBB9I+VFpseCsnHf+Vqk/7ET3/15gQBGlqYJGF0kYCCxYpVSuBBpPFweBBa7LicHkZ/nCDNLD3pkTjtEkXKDp1OzdI4DVdYgSoPtGKRCPWJptgc5HOQWSPkx2yCvuL1rvcfBU++3IjZn/yBT7+dI23zf90DW7Ylq7BfG/7CvOXdm7zFq/G/CVrcPZiCNeEaGZnbQu8vZxuXbLBWhBZ5eYMmDFUlPUOChX+pSdVlwUPjqY2fJdhxaJoPaqtFK7kRxhNlQwVE1gJGoRIh84J4MAxdsQ0MOsgVcjlmF4R2yt6Oae52EC9wEGmzHweOprAPsOUJjMZp25PK6aGGbE12x5gH37pO8LP55FomYCl0WyBukaLkrIqBGWU4+PgSmxOM6HEXI/GJula0fXxhiqJtKytSuDgO1aCBxZGU0iMYB06hCtZG1txsdSJRZE12BNfhrySSqirazmcigzwnxpr7+ff/M1PkRFNc5q89lq9iYFZQn4l5lwtx6xwHQpN9T4Aobg3yAOUn5eLGR+Mw/PPPIIjB3ejvLwMqsI8xEVH4v2JI9HnsT9h8FPdkZaSwPQzjS+PcYc6DsTyiPPesZfBmxe4ydeEBOk1rhZ8lWTCexfLEZ5bBU2tFiarlY17ev/tqE4KrR70P1GNP+2s4PohVrccniSnIFWuRRL72dkLpwQPPsbBAyr+dvHCRbz5+ig89vBDeHHoUMyZPRtbNm/CyRPHMXnSJCyc/QE0WRFwllyT2YYQOFThMBZcw8EtX+GFwQPwdL8n8dKQp/HFgmmwF96OcDoMCZf2Yu2yOVi9+CMsmDERrzw/mGtATJv6AXJycjuBByWz1BEs0N9NsgNF6iVWtsbpwbxrBvx5ZznGXKpFod4tAYefELYksi5JAmoXTms0uOcm7MOIrFRozTZflqV24EFiHgwmGxJqavF6VopfEPJPsSFYXlkCa0vzb36fBb4wMAJ/byNAaedPl7gwOViLfD2FKwmWtXPEB611ZGMdPnEOS1euR3JaNjQ1Om+rrtHB22r1HCFQXSP1NVo9fM2AGq2BHVXU1+qkVl6pwYGjZ7BizSZm8b2gQY74oP2GWotsf3maWrAmyYyVyWbU1t0+2/z3dg3+1t/TJcEDGS1x2gbMvabH5WLJ6ydlVZI8fGJjpoJDxSWVSEnPRnJaFrekDj2dT0nL5tfQ65LSspGcno3svCI4nC4UFJVAU61FoaqMjb2iYqlXlZTz5K1QV6OkvBIlZZXQ6gzQVNeiUl2Nsko13xBl5VUws9fOJ8IlYydZW49RF2uhsjUFvFl/611wk/eTt5mMQgKENrsTtXoDyquqUVRSgfCsUiwNKcWX8TpEVLlgqZdiIyUAIRgHOWRJNl5JHM3GqpxZifUNCsNWeLtF39R2HYUWD77PtmBRWCUOJpYiv6SCDW1iQuwOFxvH9DvvtAf9ZgJQxJwYTBIwKy5X41pOGaZfLsf8KIPEQDCzI4nRpYW8BdlZ6Zg6+Q1QxeglCz7E0YO7cfLYfuzesQFvjhjEKVwXzHkPFRWlzDDQmAuQ4GV56JwMHrzAQb7eLI4WmZVkxqHS0Yxvks0MHM6mlaO0Qs0bE4WNEftE1+xWD3NjK6aG60FVlD8M1cLg8GUWkUTSvnhdSXPl3wsn1iglcKDXU4pUSsX66MMPYeL4d7B7xw6cOnEc27duxYrly/Dm6NcxedwbKE28IKVgFalXi2NwcMsa9O/zBGdMOrzlc1w5uB5hxzfdJngIgSn3Cow5V5jJoOPwE5sxbfxoDH12MK5cucr3EIduCodIu7ji9mFKDB6aWtCkbC0tDCZLrA0YfbGWq1BTtjGdvR5OAg83YSD8hS0ReLDa3dBZHZiUl4l/jg31a/j/3zHBuKKp6QQelGFLRpMNaoMFW0pL8N/pc/yELw3JTkGcIyCcvtU9Enj+7h+BMkcz5scYsS3dwimpfTUcfOudcm0j8LB7/3F8s2k3KtU1zFiz47ahEaXlVTCZrRw+LiI/GuoboSqpYLuLbC9vKy4D2WBVmlpvKCV9N4VBLV+9AWaLzcc4iHWqWdhetJdLrdTayOnFgyrcaGq99bp/N17RLgkeiHXYkWPHpzEG6Ox1nVKxio25ptaA77buw/szF2PKjIWYMmORoqdjf38vwnsfLcKnX3yLKnUNjp46z3TYzr3HcPZiKKPnH84H4ezFYMTEp+D0+avYf/g0jp26iLjENERGJ+DClTAcOXEOZy4Gg16bm1fEBbCEUUphL57mVsyKNGBnLrEPXXPy/mY35I9gzQKBSWIfNDValFZUobC4DEm5xVgdVoyFYWrszbYg11APt4cYIqnoGwul2yRRtAQaWqWwGNmYVRq1AjCQ4UrxoDXuFgRVuBicfBpShvMpxchXlfF3k+fFaLYyI0LG8J0IHuj60W+nTYBCl8gTVFGlYWB2NaMU0y6VY16kXspu1ehj4Og+MJuMOH5kD95/dxRefaEPXhr8GIZRe/ZxjB39HJYsmI70tCQ0NDYwaJDGXs5qJYchMevQgenhayCel9kfykFebm/CmiQT3r1QjhPJpSguq0SVpgZ6oxkudx1f71tdA/qcXXk2/GVPBYacUiNHR15zEgBKFZTruBicL2RJrEPKXlnXoePmStWj9+3Ziz69e+PN0aNxYN8+fL97J5YsWsjsw+zZszHytdcwdeLbKIk75dUyUKYkdXownh88EKsXfQRt5kXvc8qMSj/lmLMvFQYj9NhGjBw2FPv3H4DL7fYK4ZVMgzj2ahzI40fAgtkmwUDI17+lBfVNLQipcKLXETUeOViJ04VWTlV8s/ClG4MHF2sfwmpq8XBStF/NAoUzvZmdDh2HKUmhSgI4UE/hS0azDQaTFcEaDXqmxPoFIf+WEIHdWg1abwNk/mZrW+CLAiPwG48AsQ5cUytIi1KTFPUhOUp8YeK05tH6xmufHN2hBA8MHChNa0Mj9h85jazcQpBYupE1ph4OM96y6xDWbfq+U/t28x6cPndVqkPT3Myf4QUPVhsznhzxQYyDDCCE7SWiCqj+05pkM75INKPG3TXZhy4JHtIMHiyINuAcxxoLtsEXGiAmbVZuEabMWIzBL4/DxGkLMG3OUkybs8zX5i7DND9t+rxlHJtXVlGFo6cucNu57xhTYzTR9x0+jSvBkUhKzcSh42eweecBnDx7BSkZOQiLisOZ80E4ePQMA40TZy4hKyefMwkI1Cv1bYivqcMr57XQuFp+49u/630daQpoYbI5XNAZjKiqrkFJeRUKVGXIylfhVKIKS0NKsCqmBruyzIirqYOpnsTUQhx9nUEDXTvh+VYCB/Z0X/8Rdc1tzDT8UOzEukQ9Pg2twNYoFRJyilFQXIbi8ipUVddCZzQxs0Ue7zvZFiGPP3mXiUEh7YC6ppY9SfnFZQjJKMG8q+Shr+Xq3rY6D3uFaCGnRvqEvLxsXL5wCieOfI/jh3bhzMlDSIi7JqVqbW7xsQ2KcCWRzYp6GndmHWSgIMCDOEcC9fiaek4jOO1SGU6nlKCwuBxllRrU6vSwWO28wdE1vdUjWd+AJ46ocd++ClwqscPmokKU7cGDyGuuBAzKYwEeOgIH2kz1BiM+X/E5evXogdUrV2Hn9m1YuGC+BBzmzMGcOXMw7MWXsHzeVFQmnfEBhKIQJFzah+kTRkOXdcl3ngvDiaJwtxO65KsJIVK36jIvYv60d7Bu7Vro9Xq/gkQfaJATRijAA4UQcHgTb+JyRrPWVpjqmrA1w4K/fF+BkedrkFHr9Fvb4WaaB4l5kMCD0ebArPwciTXwo334t7gwhFVL7IO3SBzVelCCB7MVhXojZufn4B/8fMZ/iQnGzNIC6Jo8t5oqgecDI3DXjkC1qwWfJ5qwIZVSjLcPU1KudXwsJ6eh9a0jeKCQcAIdYZHxKC1X82cxePB4mM2+cCWcna/kgFW2MxeCERufKukbyBnR2MhiamYeGDzIYUqKlOuSzSVCkiX2gZLXjLmiRay2AV1R+tDlwEPL9es4oXJiRrgOams9axqUugblppyVU8jg4bUxU5khSEzNYIM/KTUL3DiEKRPJ6VlIThc9HWchO7eQKbDImET2UKek5yA9Ow/RcUnIyMrjMCeKxUvLzEVMQioj51qtATn5RcjMzuesAgVFpUhKyWRPN4kNveCBDNKWVtQ1teClMzWIqK67owqE3YmrInmVaczddQ0wW21sOFLIGXmgC1SlyC0oRkp2Eb6PUWFRUAlWXVNjS5oRBwvsCK10Q2XxQF/XDIenFXXNrahvboW7qQWWhhZUOZo4ew8Bht3ZVnybqMXikFKsDVchNK0IOQUycCirRKWmGlq9gT31NG9bW6/fsawDzQMaV2JneFwtMvtA41paifyiUlzLKsanwSWYfFnNoVvFlgb2DNG9IITnfF8omRyZWu4EzpShYhSuROBBCRrkkCUCDnSeirdROtYPQ2ow61IJrqSXIF9VyqCRAByxDpQBhEJx6D03ezibrmNmpBF/2FGOT6IN0Dnq4eY4X2IdKFRJout94MHnzOi4oSrXKOGBo764uISBwgvPPYdVX3yBz1eswJzZszBnzmwGDnNmz8HgQYOwe93SdiCBDP2ia8cRd3ZHO+BATAM9Z8m7iuKYE36fEyChHStRFIKa9POoSjnL7/1m2SwsX7IQZWWlNwYPMkgQGekE68Bhal7gQOueDCCaW1BmbcSUEB3+uqcCK+KMMDnbF4cjtuGW4MHhgpWa3YWYWj3uSYjyyz5Q6NLk3AwYLHZF+FJ78EBMoM5kwe7yUvy7H+G0VHE6EfGB0KWb3SqB5+7iESAjO1nbgLGXa5GldXVKBCEct0rgQJo+Wt/2Hj6F1eu2seaQWAZfa+BMmbSHePViCg2rSDZBIIEapWYV5+iYwssJaJAYm7IqCtKE+/cAACAASURBVNZBrDVeu0uZAKVFiv6gulvf59vh7oKVp7sceDA3tOK7dCs+jzdwyIdyY1ZuynSeqDBiHt5+dxYb85SWlSZxexG0EEx75CJvUjYleg0ZAmRgUKae6lqd5F01mhhUULw6xUqTIWowmWEwmmE0WTh2j7ywdM5qp4kso10W4rahldJ9cupPyXj6OtmMpQkmeLpo3N1vtc6SkUvsg8fTArvTDYPZyvHuQrNCIUx5hcWsdUnLKcTJ+EJ8FqzCvKslWBlZia0pOuzIMGF3loWN4L05Vu53Z5qwPVWHtbEaLAopw8IrxdgZrUJUeiF/Vn4RebrLGKTQd9Xo9CySJqOIhKQklL5VuMxvNUY/93vIa08bBAmn6X4hEXJ5pRqq0goGZnHZKmyKUmHKpQoONbxa7oLe3eQDDwQcZMBAgMILGhTZqyRmR2IamPkRrIMSPMjn3E2tuKapw+pEEyZfqsQXocWIyS5mlklVWgm6DhRiZbE5eLOi77zVNThT5sajh6ow8LgaKTUuuBXiaNrwfPoG5XF7Gl+sVWKDVQIHen9CQgLXcCCx9NIlizD/448ZTEjgYTZmz5qJwc8MwKUD62DND/KCAQEAqBcgQJxzlkRClx2CAxtXwFbQPm0r/a1OPoPi2BPejEzSZ4SjJP4Mwk5uRVH0cexdvxQfz/oQOTk5itzpyjzqIjRJaBykcAGa3yxU5LXPF2/M6x8VCmxu4exjjx6s5DoZkeV2L1gQoEH0NwxbksGDxe6EyebEhNwM/LcbZF76PwmRyNQZYfKTqpXClgg8UCOG4vmMpE6hSwQe/kd8OI7oa0FOrMAjMAJdbQSIWT+pcuDdIC0cbp++oePaRvuBr5HB70FQWDTmLVmNLTsP4cjJC53a0ZMXcPTkRf/t1EUc9dMoXPzA0bP47MsNWLdpNzMWYs0h8CDtK6KXiruKvYb6H4odmH3NAGJTutqjS4EHUgbkmDxYGG3gvMKSt0/aoDsCB5qsncFDe+DA4hxFtiX2msk1HAg82OwOpsPIc3wtLhnxSek4czEIIRGxCI+OR1ZuAesezl0OBbVLQRG4eDUcCSmZzGxk5RSwQdVKk1jUCiDBLYtuJSMpx9iAoT/UwN5067CJrja5f+n/lwxEMhTJayEBPAsb85WaGpRVSMYueaZzC4uRlVeIzNxCpGYXIDSlAEfiirAxSoXVISp8EVyEL4JVWBmiwrpwYiuKcCGpAHEZBcjILUR2voqZDGI0SFhP+goSiTFwMFu5KjMZjndielZ/14S89hTjToYegWliVkhPoBzTzDwVziYVYXFQCaZdqcJncUacK3FC7fCgSZHNygscZCDQETTQ817wIAMHek1r23VQRqsr5S6uGj31qhpzLqlwIkGFzPxi5BWVgoBDeZWGHQEk8CanABm4dB1uBh6oEvWoS7X4065y1sUYHZKHjJgHKVGDAAy0Fv10xoHmY5FKhRUrVqBfnz54643RUriSYBzkkKWPZszA8BeeQ+y5HV5jX4CFjj2lbqUMTHVVKTAUxuK7lQuQGXLACy7o9Zb8IET/sA0HNy731oOg97nKYmAsjMbOdZ/h/N61OLljNaa/NxFJycmdmQfOaKJIiyhEijLDQF5A3yauABAU/tfaBmNdM1bEG/HHHWWYE65FDVWf9pN5yR94oFStzDo4XLA4nLDanQiv1eI/EvwUe4sOAqVtXaUq5PSs/jQPrHswW1FsMGJpYR7+0Y9omkKXFperoPMEQpf8rQWBc3f3CKidzfg8wYQNaSYJHCiyWQoAQXubDzhIayKdi4hOwEfzV2Dl15uxeccBbN55UOp3UH8QW+RG57fIjV+j+Fuc9/a7DoI0EHMXrcL6LXvZ4Ut7kW/NUYYqCfAgJd8gW6Da2YQ3LmmRbep6afO7Fnj48UdEqOsxI1yPElOdt8y5P+BwK/AgAYcmLxMh6HYu/uaRCiBR1VlCtpExSQwOCCB8u2kXduw9ihNnLjOYoOfXbtiFtRt3YcO2vdi2+xAuXA3HldAovln0RpMEHJRpPxXgwdXUgoEnqlFqD2Rd+i2WXYqJJ4ORvMXEDBnMFs7ARGlTyyspjKkKRSXlHN5CICInX8UMAgHRrLwikI5GtMzcIlDj5wRoKCQPdyl/BmXgojRyFCIjAQcLs1VEvVII1d3yIMNbYh+aGJSRKL1Wq+cQLQJOPJ5FJRy+lZBVhL0xRfj4cjFmXK3C0hgDdmXbcE3jhtbVhMZmuWK3EjwIwKBgIgiwtLS1wdrQiiRtPXbn2PFZvAkzgtT46IIKW6OKEJ9ZiNwCFYdPEQtC10JTQ+FKJpl1oOtwc9BO/9vOPDvrHEae10BlcMPFqVkbUUf1Gyhcycs8+GcaxKaqXKcE60Bgo7CwCCtXfoF+Tz6Bbn/9C0aNeBXz5szGrJkzMXPmTMyeNRsUsvTh9OkY8/prSL26tx0I6Agc6G8GD8URqNdkwFGegqvHtuPLJR9CnXLW+15bYTCCj27AktmTUBxHYU2U8pXAQyxcFUnY890KfPvZHOz9dinGvv4qNm/ahFqttj2AUIAHuq9Emmqp4KIcouT1ALYHD+T5o42e9EVPn9Cg79EqnC20+mUfbgge7FLIEjEP1HQ2B0ZlpUmGfwfdAhn+/VPjUWm0stZBAAghmCbWgRhJCl3aW0ahSxF+sy4NzU5Bist+t9y+gf8jMAK3NQK0FmYbPcw6xKmd7ISjtU25rrUDDQQi2JnSyNEeB49ROtWNHAVCGSipWSw2WKzU7LDKzXtso+KO0vNWm533a9qzqZFjlxod6/RGtsdWfLmJMyoye81MtgI4eO0vWoMk8ECOKE9LKyYH63Cp3Akq/NmVHl0KPDS1XseZYhdmhuthZ8qs/WatRLx0fCPmQaQDI3GOCGHygoemZil8qbmZ1fyUqpVSe5LegQyhxJR0FkZn5hRw2At9R2xCGmIT07jKYUZ2PgtGKQSGBLmUxtI3meWJq5i8za2tGHdViyvlzi5dsOS3vGnJU80Aoq6BFxujxQqtwYhqrY6F1CSmpfRxqrIKFtdSmjiK3yfvdV5RCfIKfY3Ok7aFXkNGMnm36b1kqBKjQeFu9Nn0HRTWQ15mMlhvFWP/W47HL/FdbMy3tKGurpEXdApfovEkjQfdN5R2j7UlhSUMwoilORJXiFUhKiy4Woo5IWp8HKnF8jgjNqZbcazQidDKOgYGWcZ6ZBvrkaJrQLi6DidVTmzOtOKzBBM+iTJgTqgG866UYtnVIhyMLUR8VhGy81TMIJEgnq4JXVMSc0t6ExtcdSJs7Oasg8bdjGHna/Af31fgWL4FNrckkvYVpCTWgVr7tUj5d7vNVc55zmtVQyNKSkqwfNky9O/dG28/+ABGdb8fzwwcgBGvDMcLQ4di6JAhGD7sJbw7cSKmT5uGMaNH3B54IK1DfjA0GUEwF0Yi/9opzHpvDLasXgBbgRTyRCFK6UH7sGD6BOz8eiGnaq1JO48rhzZgy5cLMX3iG3jrtRfx5cIZGPniEP5dO7Zvg9FolEGCFK4k8qoL4CDYBp/3rzNoEOEE9BpzfRM2Z1jw513lmBpcC43F3QlA+AMPXOfB7ma9gwAP1P+gVvtP2xodxEXgTlSpvUJppWBahC1R1qWI6mo8m57YKXSJUrj+ITECp42BgnG/xLoR+Iw7ZwRI7xBT3cAJDrT2egYGHde2TuBBEdnx/YHj+Gbjbs5i6bPBPEhOy2FbitZEYYcR6IhLTEVUTCIiYxIQFZvobdfikpCdV6BI1eoTTBPwEGuLlFlJtrm84EEAB9lJ1daGr1Is2JhhhbXx5o6kO+dK3d4v7VLggcSq+/OkFK0Uc9xu4nagytqBh0lC80CF34ht8DEOBB7EhPX2zRLzQGIcYh8IANDGQt5qqhVA4Q40SSnFI/1NPYl2qJEnkj6H3kufzSk/RciSUhSqOF6TYsHaFDMoBVrg8euPAIW/sdfBQwCxQdau2LlWAWlZqmu1DCIoNp5AAIXfEBAkcbXUKlBcRq2Sa3wQWKCaAWSgVlRVM9NAoIFqSpARbbLaYKO50eABpYi7VZjMrz8Cv/w3EHiQNCXNfH9Q6ladAkDQGJKImrUlMgtBTE5qdiFCUwuxN7oQq0NVWHRVhflXyzA/qBLzQ9VYEF6NhZE1mB9RgwXUwtSYF1yBeVdLseBKMb4IUWHntSKEpBYiJSufHQbEGBHIo6xKdI3oGhJwoOtB9zGJpGmTozlwsyTJ5Gnbk2fHvXsrMe5KLfL1bhaGM3Cg9Uf2qkneNf/god0aJQMMWpuoqdUabNywAQP7PIl3HuqOg70fx4cPP4iHuj+Avr17YsSLz+GNES9hQN8nMPCp/hj/zjt4ddhQxJ7dDrtC3+CPeaDCcIVRx7Bg+jv4bN77WDb3PYx4cTA+GP86zHlXvexDbcYFbFvzCSa8MRyRp7awBuK7z+fi5SEDMerlIfjik2k4sOEzjHl5KB665694fvAg/PDDD7DaKCWilF2JBYrMQIh0rDcOVZI2dtrQJa8ggQdyrqTpGvDsqWo8eaQKF1Sd2Ycbggc5dMkLHhxOqM1WPJ4ci/8SHdyeOYgOYj3EuJx0OT1rR8G0pHsg9qFIb8BHeVn4h46fERMMKhi3vroSda13D3v4y68IgU+820aAahZdKnNj7OUaON0Ustk+HasPOEiiZvpb6aBVggfhtKXX7Nx3Ahk5BbwXCxuMbKp1m3fhi683c5jTF2s3Y6XcVn2zBYdPnueQUVqDaB0ODo/B8tUkmLbLIUsKnYOwvxRO21ZF+nVKdPJxtKHLFYzrMuCBNnmtu5k9jt+mUIowCTyQh482YjFxlZWjvcxDR/AgV5DmCdzkHzw0ejwseg6NikNEdDyiYpIQm5CKi1cjkJiSgdDIGIRFxvG5nLxC1j5cDbnGBhIBBu8m6T1uj3jJcKFGXvCzJU58EKpDQ0sAPPwWCy4ZhdQo0xGlSqXFx06A0OZgwbveZAGBCAo1qtZqOVsWpXYlJoGbupoLAdIxxfZTWBJVrqb6EZSBi97LoMFi5ewPDpdbAg7NPuBA3383PcSY0twnAE2aEpPFBp3BJDE6sgaCQrmoQB8xAmTkkz6EwsCIyUvLzkd8Rj6CUwpwJqEQB2IKGRhsjSzC5ogibI8q4nMnEwoRlFKA2AzpPbTxEBChwo70mRw2VlohMUBVFKqkZeBAIWoUF0+AkbUOt6gobWlsw4QgPf68qwJH8qywuEjrINV0oDkjmpJluNGxAAxirbJYrDh27BgXYBvd/QGc79Mbh3r3xHPduuGFwU9j7fL5uHx0B8LP7GPtAZ17bsgQDBk8COf2fdMOAPgDD8QqlMadxOz3x2DEi0Pw6gvPYvLbI3B61xrYCn1iawIhyZf3YM57Y7Bg+nhmIlIu78GJ7Stx5dC3UMUcR9Sprfjg1Rcw5aEH8Mz99+H1kSMRExsLd12dl6WVAISUIrF9zLFiLRRZtDqGFLS1wVzfgtVJFvxpZzk+jdbDYPdlWiItze2CB8q6ZLY5sLyokDUOHYu9kej5gaRrKNSbvKFLvrAlH3ioNZrxjaoI/xob1h6AxARzNqfJqlyoPY130y0c+F8CI3DTEXA3t+FwgR0zwnRyOJLsMPHaXzJoaKDENFJyGlrvBFBg8LBpNxd4o3NNbIc1ITUzF9VaveRwJXuMAUEDEpLTER2Xguj49o2yW9Ja7/GQM05y1IaEx+CzduBBZhwIMPB6I+yvNohCr8IGS9bW452rtSh3dK3q8V0GPNCs5kJPySYcyLHKqRF9oEGAB/YCyhO3HXjIV3n1DWIydwIPMuPgaWpiSozElfuOnGYETEVJ9h/5Ad9s2I3DJ87j+wMnsGHbPhZIX4tNxr7Dp1j7EBOfymyDFzzw5PVNXB/iFZljriO5tg6vnquFqyngybrp6vULP0n2O8XqExtAjBSFstidFEPtZLaAPJAEJMiDrjWYGBRQ2AtVEqdGnmwCChSWRHUb6LXk2SbRMKWMIyaKDFX6bDKqRWaluw04KC8LMRBU94HS7lE2MgIQBKSopgKBLAoBJJaGGAEK8yJDn1iCnAIVsvOLJF0Ja0sKvVoSEq7TvextDBRUXj0K6RroM4TWhD6bWCARNkYxsSSQttgdcFGWq6Zmjnu96XX48UecLXWh5+EqjDhXjWytm68lASMBGkTvDzAovXIdgQN51eLi4vHaqyPw/P334+STvVA28Cms6PEo+vZ6HFu+WoYLh7Zi5aLZWLV4DqLO7cPi2R+g3xO98WTv3vhuxcecStUfaBDnCDxQeFJ+1FFEnd6GiJNbkHZ1L0xcQbp9ViZTzmVcPvgtxr8xHCsXTEVp/CkWZEuZl0IReWorZr36Avb37oFVPR5Gn273YcrkycjPp9AB2uylgnDKcKVbhiyRU0V2rNBm3tJ6HWFVbvQ/rsGLP2gQVdE+89KNwAOBBWYdbE5YbCSalsBDht7IIUodwQMVjPufcWHYU17uBzxI2ZYk3YMVJyoq8HhSjN/QpcfT45HsDOgelPd+4PjuHgFbYwu2ZlqwPNaIRmZdO9pfSvAgOXWV4IFqXxGTQGG+FMLrtzmdsDud3kgOjuhwueCQm9Pbu5nhdrlcrJ2gOhArvtwoJagRYMHbk/1FYUpS4VcBHqREG22osHsw4nwtVJamu/sCdvjvuhB4+JGLby2LM+F0oY2Rr/DiScBBmrgC8RIqvR3wIGgyQcGLngAEFb0KjohFVGwSrsWlICMrHxHXEjiTUmhkHB+nZeRyqAqh4aCwGJSWVUngoRPjoAQQdExhHpQ5phX5pgYMPlUDZwA8dJjev82fFG5DYI+MIGKuKNuLZKyQYeLg0DUCBBR+ZLKQ2JJ6G+sY6Bw9R6wFgQ4KT6L3UiYempc0nzg8RmYabmqw/jb/7q/6LfT/kSCtsamZw/1oPCQAIQnTKY0rGfUEIjiUiUBEaQUKZSAhaUtIU1LMLALV35CalMEqr6CYNSeUApf1JqQ1KS5nNoNBQ4VaCh2rqUW1Ts/iaNKbMHCok4AcXetbXYemth9BOcD/tKsC2zPM0NvrmSaXQpQ6pyj0ByDonBI48HrV0Mj1HBYtXIj+3R/A6h6Pourp/igc+BRmPfIQxr85ArGXDiPkxE6MHv48BvXvg3nTJuKb5XPx3NP90euxR7H+s7m3BR6E8S8Ahb+eXkOtOu0cdny1EG+9+gJ2fr0ImtRzLKCm91w5vB5zhg/BuT49ca1fL7z74APo/dBD+HbdtzCZzJyOmnUP7bKc3AbjIBwr1Le0otrRhMUxJvxldzm+STbCdjt1HmTBtBdE2J3MPBisDryYntzZ8I8Owv8TE4J3stNhMNN97Ksw7dU8kNPAbEF8jRZvZaV1/gw5ZesVsxGUgCHwCIxAVxgBKpq6LtWEtckmiXnwMg4EIkSoko9x4BBxmV0gRy1lrKRsSwuXrcXKr7dg1dobta1YtfZ22jasXrsVJJSe8fEKbNy+n8OkWBDdyf7qDBwEeNC6m/Dy2VoUmptuuS/cTde5C4EHIM/swZJYEy4WU1VYmqwC+UqbOaFhJdLtCB46Mg4EEJTggf+mVIMtUtYQuiH0BqmQFNVtIO0DKfzJO200WVnvQB5m+i2kfaBj8jTT+yXqXqrl4GMbJNDAwIFjxCVAUWxpxNMna+DqgoVK/h5uRtr+yZikxYTir5uaW9HQSHU+PBymQtfdSboWl//mdNUxa0HedgIfjZTuV2QNapMqIP89/J+/xW+gcST2gQATjYPEQLi4KB6FDVEYE4WDEYigkC/SiBBLwLqSsioO+6PMSAQouJWUS+BABggU8kSNXkMaCtKiEJNBugbSqFDWLBapk97EZGbgwrokBg7NTFnfCjjQOBWaPZxC+bFDVUjQOOXMSsqUrLfWOLQHDtLmarXacOTwEfTr1QtTH34IOQP6wThoAFKe6oOpDz+IBR+9h7KUYORFncaKj9/H9jWfYOaUt3Bww2c4t2ctzu1di7yIw+3qPPgDBT/1HAGIsvhTWL9iDl4f/hx/rwQgQnFs2xeYP/RpXO3bE3kDnsSZJ3vgpQe64en+/REXG8eCcdYu3BI8KLKfEGBg0C7CCqSiTSeLHLhnTyUmXa1FmcnlFU7fiHngdK0dMi5R2BK1feUVfg1/Cl3qmRKLAjl0yRe25GMe9GYryvQmLCrIBWVp6shg/GNMCL7XalDfFmCLf4t1JfAdv/8ImOpb8VWSCRvTzWgk/Zas3fLZYbKzxONLRCMBCCl06UpwJKdUpaiNc5dCcO5SaPtGKe+V5+QU+Ocuh4Ha+Ru0k2evMKPx9YadbH9JdWTksCWFtlQKU5L2JpHum85RzaEXztQg39K10i93GfBAG36+uRFL46jGww3AA8XXKTIoKcFDbr6KY++8YEFkVaJeFv5RLwx/OqZUYlLdhgxcDYlixiE4IobFshHXJB1EaEQsV6NOTs0Cxd2RcIeyAwSHX0NpeSV/njRpJaDAG6YiDSVVyS20ePDMyeoAePid10eaY5LxKxWUYzaCgGAzGTYtMlhtYmBB4EI0T1MLPPLcofcQkyFClH7nf+l3+3oaRxoHCmEinQAV5iPvv5HCmCgUzGDkUCYGEdW1zEaQ8U9ggoCAaAQqRBOidPEcvZbeU1ldA01tLTSySJ3CzIhtMNvsHDpFAIauFdHVt+Mppt++P9+Obvsq8WGYDhVmSgutFEj7Bw7ENFC4kl/GQa6KmpeXjzFvvoXn7u+Gs316wzhoIKqe7ofEp3pjxsPdMeuDCShJuoyShHM4sPEzpF7Zw7UW4s7thC7zIoOG22EUbgYeKB2rszgCrrI4OFXhLJ6mz7QXBiM/6gjmvD8G40YNQ9z5nfzc5tXzsWhgX0T07cXgIWvAk1jd42H07XYvV8Curq5R5FW/EeOgPK/It05FM2UGgoB7pqEBI87XcNrWS8U+4bQ/8OAPOCgZiGKDGf89NrST4U+hS1QL4khlRQfmgTQPNk7XSuBBa7JgfXER/jWu82cQAFlYroK2qWsZHL/bghL44t99BEz1LViXasb6VJNPZyonjZAcJVIyGuGkFcCB9KNkd+0/cporTBNTLBLMUE8JaERPx8rmcrlBjc5R73bXdWokkiZgQRWmyVFEe7C0pkihSkr7S4r2ELaY1OtcTRh2tgYFAfDwu8+xX+0HlFg9WJloxNE8i5QakZgHBQJWsg40gW8XPCgZB2YdSITj8bAhQ3UcNm7bi0tXw3H4+DkcOnaWY/Z27T2KPQdP8KQlYc+FK2HYsuMAduw5yjfJ9u8Pcz5jCoVRTl4CC6KRp5taqq4eL52p6ZIl0n+1yXKLDyYDkViknPwiSQyfmIbi0gouMkMGJrERnEHougQE+FpxmJkUbkZia0q5SteW2Cb6nNJyNb+HvrqrBzMI8EBaD4+HROkeZm9IB0EZzCiUiXQIpBUhHYkkTtcxI0GZkYhBII0EC9JZlC4J01mczgJ1HQuxa7Q6BiE6g4G1KV7Nid0BSajeyAwIgzpZIH2ra0MpoT+ONuOPuyqwJ8sspYWmeg4izlfOmsRrj+JY6BzaMw6SN468cyazGYcOHcITDz+EOY8+zOFK2mcGoGhAH6T3fwILH30Ibwx/HtHn9qI28woLlnMjDqEm7Ry0GRe8hdxuBgxu/RyBhBBYCyPgrkxmECHeQwBCn3UJqxZOw5SxI5EWtB9UC+Lz+e/jiz6PM8Ah5oFaVN9eeKP7/XiyRw+EhYaxQFLatJUgwd+xDywI0CDWRwJ35vpmLI0zskh9fbIBNqeUtvV2wQPpH6hwHPUmmwMD0xI6sw/RQQwIpudl3QQ8WEApW4+Ul+P+pGudAUhMEF7JS0denfsWK03g6cAI3B0jYGlowXdpZqyMNyjAQ+fQTLK9aA0UzAT9TeDBm21JU+uN+CCAER2XzCJqAhnCeUtRH+FR8bgaFt2uUZVqCg9PSc9hZzBlbaPPp8K9kmDaIQEHZhykdKxifaHeH3jQOD2sOVVZA5qHu2OmdvgvKLSUqtFSzN3WdLM3bEls1DSBeNLyxJUQ8C3Bg4JxaMc6tEipWmu1BhZJE5V24ofLrPoPDouBWlOLMxeCcersFS65TiEUNKkJXFAj8Q5VmyaPKYlxmW0QE1fBOgjwcLXChYnBOtQFsi11uOq/zp+0qF0mCnXxKrzz/jyMHv8R3pw4ExM+mM/VKikNr3iQEUwP6gWooGM6TY3OaWp0mD5nOb7ZsIs9sLcyTsVn3+29NE5SGBOBCPL+13H1YDczAgQiSC9CBr9PnG5iVoIARS0J0+WejkmgrvM2EwMPg9nM7/cyDTJocLkpD7mHWSO6/wgIimt5q3GnkKXXLmjR64gaUZVOyUGhAAkdQUPHv8Wa5KPzJdYiJycHb7w+Ci8/cD+C+z4BwzMDUDqwL/IG9EHugCexseejGPrYI9i97jMYcoJQkXAauowLUvE2WZsgDP2f2xNAKIo+hqPbVsNZEgmnKow1D9aCIORFHMHW1Qvw1ogXsOHzudBmXIQ27TzmTH4b3/Z6DMQ45A/sw+CBAMSmxx/Fk/fdiw+nTYPJaLwN9kEBHDgmub0HkEMGW1pxIM+Ov+6pxKxwHSpMkobIH3jgOg+UqlWIpuVCcQI8EIBYX1bSGTzEBHMRuafT4lFtolAl0j1I89A7F80W6Kneg6Yaz/kDIDHB6JYSjRiH9VbTKfB8YATu+BGgtdPpacX3OVbMidCzs0BypsgaBxkw8NonH3sUmZYEeFi3cTc7hkS0B62R2/ccBdXHogQUAjwQw0A1IVau3dqprVq3jZPW0OvJYUEAhMHDlxu5xpASLLQ79mN7kQ2WbWzEW5e1KLcHsi3d8RPV3z9Ak5e8UtszLfg8XhbsyIJEARx84EFCw1l5hZgyYzHenjSLK83S8+3DluhvKTWYmLRNrFeQQpkoswrFT5OXlIwXyg5Axk59QwNrHgxGC6f2JM8zCWfJi0ox3aSHoDz3FK7BaLfDLO/JgAAAIABJREFUpFUyD2TUUAaDzxLNXa7Cob/r/Gufo8Xm9LkgjJsyFy+89i7mLlrNmbN27zuO+Uu/wpxPVnEmJeXv6Gh0yniCX0LPlVeoMfyN9zF/yRoWjyrfGziW9SRtbczUEAtBGwbrSFx1nCJXYiMoTt0uidIJUFik+HMhYm3Xk2hdFrDTe7jiqMPFn0UZs4jlIL2FVFOjjUEDXaeO19HftSHOiYrQPX5YjfdCdCg01EletJuAh46hSj7Q4NNk2Wx2nDlzBr0efBBzH3kY1U/3h+bpp5BPnnzZIL/UpyfXe3j7tWGIOLmVQ5SIJSCgYMkP+mVClopCkHBhJ2ZMehN5kUdQmXQGMWe3Y/2KWZj45suYOflNnNyxCsWxJ7hoXNqVvZj6+jDs7PUoAxwCD6LF9+uN4Q/cxyLurKwsXktvzD7IwMErZOzsFRTZUGKr6/DiD9V4+Uw1IsrtXq2RzVGH9s3NLIMSLAjmgc5RS9cZ8I9+ajVQ6FL3pGtI1uq94IEArNQsLJim0KUcrR7jbyCa/pe4UFy2GLs8y+jvPgqcu7tGgNbOhuZWnC5yYMJVLRv6BB6Eo0TYYFTXgdY/Ot/R3hKpWolVJvBAER+UKp3YZVrDlREgxEKUV6o53TbXUSqv8oavklO2VqvnvZbYy1uBB2IbGER0sMOE8zaowo0ZEQaonQHwcHfNWsV/425qwZECG2ZH6OGWgQNNMi9oIMQrUK+nCdm5Re3BgxBId2AcvKxDs1wxtUUCDySMJkqNjMP45HQOa0lISgdVnc7OLWTBZnpWHn+nQLhSGjAS5UjCHAEelIBBTFrRTw3V41SRA82BInGKq/3rHKpKyjFrwRd47pUJOHLyAmpq9XC767mRgVpZVc0Ak75dME9frtuO/Yd/YAApfhXFVp44c4W9I+u37MELr03Cx4u/5AWNKNfUjFxs2n4AW3cfZq8Ked676kMY7iykbm2TNCQe0pA0sVffXU+C9Ho43G7YXS5OSECAgsLKOjU6T0CBs1q54aAYWBKqy8a9p6mVP582DGaKlEjvdi7Aj8DnCRb8cWc5tqSbYXISa3D7GgcBHOg9vvdJGZZmTP8Qg7rdx1oHw6ABUDHrIHnzySDP6v8kvun5CPo/+ADGjXoJIcc2sM4hP/IIls17D6e/Xwdt5iU4ikK9Rd5uxUAQ0yD0DOI4N/wQZk56E8OeexqjXh6KsSOHYfHMSTi752vQd1F9iBPbVuLs7q+wZ90SfDCoP048+TgzDgI4UE/sw+c9HkbPe+/BunXfwm4X1V07hivdnHEQayf1LW1tqHE14+NrRtac7Mow3RQ8sO6BgIJNTtkqhy0J8GC02HFvYlTnsKPoIPwpPgK7y8s6gweTBXojAQgrqgxmzMnP9i+ajg3BAX0Nmq53rcq0t3MbBV5zd40AreHNrW0Iq3Dj9Qu1sLgFcFBEfLDt5RNLdwQPh4+f5XSq+YUlzDzTGi+la3VxXSA6djhccmufrtVJ2ggKYRSNdRB1oGQlJrMVlEr/8682caiqcj0RYUqib70uAQlhe9GetCHdirXJZpCmoys9upRgurm1FRdLnZgapkOtg2KZfRO3QQYOAgFTT4VE2jEPMssgEK4XNMjZkTjdoCx8JVBCKSXPXw7lWD0KRdp94Dh7rcmQPH76EiKiE5CQmAZNdW2HHMKihoMcY+dH50CTlhrlN3/2ZDVyTQ2sf+hKk/f3+F8pXGnk2Ol4f+anrF3p6I0WfxeVlGHGvM/wwcylOHziHCbNWIzx78/nkDVir5at2oBR4z7EohXrsHD5WgwaNo7BAwm7roZew7vTPsGKNZuwYdt+zP5kJa6ERHn1EL/H//338p00vjTvafEmrxGL0Zt8QEIUYSM2j0BBp1avKNTGOgQPBGAgw/P6dWrX2RssruVP+d/rm9vwfqgef95ZjnMqG7iS/Q3Ag2AcKGxJeOAEeKBzAjzQ/0J1HahOw5vdH0Dp00+h5hmJdehojMf264V5jzyIPt0fwOD+T+L1l5/FsCH98coLgxFz8RCsheG3Bx6oAnVxJByqcFAV6T3rl3EtB1XsCWhSziE37BAzDokXdyMr5AAKoo4i4+o+HNywHO++9QqmjH0NQUc2YOUn0zC3Zw+EyWJp5e+l4+C+PTG42314YehQVGs0itAlRYVXb0pWASrahyspN/uWtlY0NLfxhv5v28vweZweFoebAUR71qEOHLZkbx+2RCFMAjhQb7E6MDY7o3PoUnQQ/jk2FDPzs+WQJUkszWFLJivrHbhYpNGCFUX5+Bc/wmsSTX+jqYSztWsZHT/lfgq89u4ZAUqAkVTjxlsXa5Crd7PTVjhuhf0lnLntIzya2SFHTteFy77GO+9/zPsj7ZG30yZN/wQd27vTF2KS3CZO/QTvz1yCU+eucrp1sZ4IgMB/k4iaQsevS4V5+Tk5w+JHEUb8oHKgvotlu+wy4IFuQUKPcRo35kQZEF/dYfJyikxfNUMGD/6YBwXrIImjpbSqEnCQix2x5sEDtaYG274/jIPHzmDb7sPYc/Aktu46hEPHz7Hm4UpwBKcco0JhxDgI1oEnpqxxEIwD9WIyU09eUWq1riYMOKGGwd1yW2EVd89S9Pv8J2fOB+PVNz/AzAVfMCV6o1/x5bc7MGT4O1zLgzwiJN4a8Pxb+Gr9Ts4E9MLISZj1yUro9Cakpudg2OtTGDwQxUqfPXHqAn4PMVefLPua81aTh6SrP8igF0a9OKZNieLdCUhQqBH1lOqWs1h5mjl3N9HhIgUuPUeNXkeMjvAq8X11/edXaaffQ4UoqWBQ78NViK1yokEGKB11Dcq/OwEHWSwoqt1TyNLhw0fQq9t9+PSxR6B/pj9rHShkSWmMkyeftA8x/Xrj68cfxtAH7sND992Dbvfcg61fLYWxKA6u0mhwtiTKmHST5igKQ11VGuzFUQweqFDcu2++gucHPYVXn38Go4cPxZiRz2P86JewZvFU7Fq7GC8Oegr9evXAS4MHYN/6pYg9txPvj30NX/V4GGlPPdGJeaDfntX/CYx98H483K0bkpKSQYXiSMQohS8pGAcBIEQIgbdvBQEG0WiDp3X0SIEdf9lTgVnhWmgsku7BH3hgoNAhVasSPFDK1u8r/Kds/ceYYLycmYxakwAOUs+hSyYr9EYCERZsKFHhzwkRndgLAg+zSgqhb+paQsuuvoZ11f//ett1FBrrMS9Sj8N51nbgQThyhfPWH3ioq6/n0KOUtGwkpGRwS0zJwM1aEj2fmokkb8virJdJqb4+OS0bVP+HUuVLNpjPaStssY6AQthfVJj3jUs6JNbWo/V611IrdjnwUGFpYG/U+hSz5O2TqTIRY0eTlzQJVETqwLGzeGPCTLzy5vs4eOwswqLiFC0eYVH+mvSa8Kg4BIdH4+S5qzh7KRSUS/jMxRBGt96cw1fC+FxIRBzCryVILToB4dSuxSMzOw82h6OT7kFMXOqPFDowOUQHlydAff8Wi3JKejZ7LF4cOYmBARk7ygcJeunc+zOXYtBLYzkLBBmVlA60/9A3MfnDRbyQDXllPL7bso/fWlGp8YIHCmd7bex0vDz6PXy8eDU+WboGM+Yux/ote1Fdo1N+VeBYzkpFS7YAEtRTmlsCFAIU+OLoSb8gbQzidYLBE5/xtw5qhLoOfY+p8dalWuTp3bfMsNSZdRDFkoTewQONphqzZ87Es93uw/k+vaF9pj/yB/i0A0oAQccEIij7UnS/Xljy2EN4/J6/Yt+m1bCVJsNVFssiZwEcKL0qVZKmkCRxjvuiUNRVpkIVexIfTXkLpXGnOCRp73fLMeGNV7mS9UPdH0D3bvdh/KhhWPnxVAzs0wuzJ4/BtVNboc28gO1fLcRrfXrjYO8efoGD+K1UdfrRe+7B5k2bueaDFzhQ6CZpHIQ4mms7+FgHYooEaFA6X2ijv6apw9MnNBh9oQbpNZQ5S2YaFLqHmwmmBYAg8JCtN+Gf/OkeYoLxVGocCnRGhWBaTtVK4EFmII5WVHBdiI61Hgg8vJKbhrKG+r912gXeHxiBv+sREOutwdWE7ZkmTAvVSdoGOUxcaX+RDeYFD1TzyJsOnzQOsibCQ7q0mzcqQEmiaEkbQQyz9FkcOeL9TAoxJwewVATOCxJEghpmG+S9ROHAFTZYXE09219ltvZ2wN/1xfiFflwXAw/X4ajzYHuaER+F6WGr84UuCcRL/dlLIez5fX7ERAx84W32GNPxS6Mm314bPQVvTpiBNyZ8hFff/gAvjpoEMja5p+NRkxXHk274mQRadu07ziJrf6wDsRFvXNLiWIE9oHf4hW6IW30MCXW//m4nhgwfj9fHzcCm7fsRE5+CqOgkbNi6D3MWrWKtw+drNuHZl99hLwcZstFxqQweKPsDFTWj5+Z8spKFX5Ti9aVRkuaBjqfOWsoAhTwilIPaaDJDpzdyStdb/b6u/LwXQAhQIbMUXoAg/01Agc7RQ7yHj//mwfsRBwoc6La3Ep9cM6DaRkXh2usdRDpW5XnaOJUVVpXHtPkVFhZhyOBBeK37/Sga0I/rOhBA6AgalH/T89T29XoMg+67F5/OmQpNViTclUlwFlNtBgksUO2H4ztWwZx3tT14UIXAVRIFU85lDj9aMmsiaxkoFWtl0g+ccSkz+AA4bCn0AMoTTvM5TcpZWPKvIjfiMD54ZxQ+fKQ7ovr1YmG38vcpjy/2eRxP3ncPJowbB5fb7a3bwKlYhUBaMA2txBa1+EBDG4UTCPG00Ipdh8rqwdgrWvQ/VoXgEtstwQNrHmxOTtEqgAP1ZrsDBrMdf4jvzByQaPrh5Ghc1dR46ztw1i+zDToGD1K61qtqNYbcIONSz/QE5Na5/uaZF/iAwAj8vY8AyccaGltwpdiCEeeqUWNv8GpMbwgeZINfyq5EyWmkBDUiZJwS1IhGTrsWanIY+QezliAntxAtrS3MTFNqdGKaiaXmtUVeUyTHg7R2CDtLgAjqxTnqBWiQ+uv4LN6Eb1JMnIyH9pKu9OhS4IEmDIksL6nMmB5aixi100udMXhoakJ9fQPWbtiFQcPG4qnn3vjJjbzLb4z/CBXqGg5rOXrywk/+DPG99Fkz569ASVklGzvtJ+6PKLc1oe9RDfL1brR1sYn7e96kFD703dZ9eHHku3jmpbF4dvg7ePaVd/h4+tzloDA0yrI16cNFeG3MNHy2+jsMH/0egw0KU6K5tmrtNjz78jiO3xzz7hwMenEMhy1RijlK2ztizFSMnTIXS1euZ4H2d1v2wmiy/J7/9h333b/1Yk7ftzbFgn/fUYbvUkywuam2Q3vwoPxbAg2CYWhEfWPnqvd1dfVIS01Djwe7Y/KDDzLroCJ2YeDNwYMwzuP69eZ6CkOfGYD0iDOoU6dzbQbBNBDzsGTWu5ydiRgIH/sggQt6HdWIoMrRg57qiUUfjcepnavw/7P3HdBRnMnW3vDevk322/z2XxtQRgFFRAaTs8lgcs7BJAMmYxOcTcaYnLMACQkkgoSEEEISKIdRztKMcs6+/6nq+UYtacCwiw1YPef06Qk9PT3VX39dt+6tKt9L+/DoxlEEexxD4PWjCLt1gpOzafuckGvY9clS9LAyw05r8yZVlsSxiXVAOzt0MTJAWzs7aDQ5knSAWAbBOMiBA4EHWkiqpH0uBw/iRp9dWo35N7PQ8rt4HA3WcJNBiWmor7hErznH4QmyJaq8xN2mcwvQ6aFvE9kRgYf/d+8mPouJagAeGEAw65DD1Zd809Iw/NGDpnkTXm54+/4dPCwqeO2uLeWAFQs8rwWIESYp6aO0AsxxT8fhkJyG/hfloIqiNA1AQ30jXs6JEBUutQVqJOZAkowTcKjRgoeBI6dz8E43j4iGkmI+0Uocq6prmX1gUCHyS7XbiPmkMXAgf0tdWoUhV9JwOSYfFdU1Ojnt89rldd2+WYEHijaStk6VXYCNd9Pxsa8aJWWyPAcq/VVRyUnNQ8fO4UgxOfDPu5C2vc/QKeg3dAq6Dxz33N8Xv0f72bH3CKhvQGPgUPd9HT7x02D57XRkFJTpIqmv60B8nY6bnESaxGJiE+Fy4w738qBkK6qcRZ0uaZzRNlSWl6RuJ85exo1b3lxOTji0lBh9+64fy9lIv3n77n2uqkTfJZqWuh9Td3JKrPe658/AQXz3dbJVczlWOjc1td/jI+8c/GVPHL57nINibbdoAgz6kqPl4IGeixwHwTzQe1QlxM3VDW0MWuFDSwudZInKswrn+2lrYh/WWJrCwcgAl4/uREHcAxTFeOqSpsnZJwZhcJ/OiLhzUgYe6nMiaBuqoLR20XRYmpnC3MQIVq1NYG1hAlsLE3R0sORGcKkPnVj+dO3YFxjcpxsWm5uCwMuzsCSDjaS8h9i4eF0JxXr5EuUx1IMFvskzeJDyG4ROmSrU8c2+thallTVY7Z2Nv+6OxZ4AtV7woK/DtLxUqwAPOXkFmBv2uKnz7+mKv/l4YE1kGLK4s3SjnAetbCkkPRsTHwc1/b6XG97y8cC9grzmcpko/7MZW0CAh4zcQhwMzMAUt3QUlGr9Ly67KvlfOskSlWOtquSFikacueDCrPyCZRsQEBTCTDwzENoiNcw8EBNRWYl9B0+iU+9RmLt4HUuHmWlolDdF80Z6phpf7z6ICTOWsHIgJTVdKsvaGDxoc0zlftih0HzMvpGOxxlFXB2zuZ3aZgMe6ObOjllVFVfTOP4oC7PcMxCQVqRDvzRoSRdHjh11/HXzuAvn67effblxB87axeWGJ6TlDjuY5GSK5dqNhl0P9XVBdPPwgn9gMDugRJ3RscsHblZJFXqcT4WXSo2S8soG8ovmNohf1v+lc0IODiXLU8SDNPaNH3Tu6HNaN37Qe9L3pLK8JG8SD3ZGyWGi6Gut1GtAfKasXz0L0PkqrqzBojvZ+Oe38TgZlst9WkTFJME4ECCQL7rqSo1YB7FNTk4Ojh45gratWuHrNpZ6qyz9EHigCkyjTYzxwfTxUD24jhLqDB3ljkLOc6CO0W44/MUaTBjRF5lBV5sACAIPtE1G0GX4uxzA2T2fYP/mFTjw6UdwOvgZHt04wuwEbRfjfRpLZ42DpZEhPm1jjuAfkFfxsXewx1QzY5i2aIH7fn4MnnWyApYY1AMHBhSyyCFdG7TII4R0HVJZyC1+Gvxpdyw+98tGTiHlPFBzwXrmgcCDPgDRQLaUV8AVl04lJjV1/j1dYeR7GycTErhcqwQgRKUlKeeBKi7FpGdjdvCjpt/3csNvvd1xJz9H6fXw6l3SyhG9YAvQHEn3Qso/8lJlY9K1VFyO0fZnEEyDWGsL0xB4IIBw994DTJ+/CktXfYxpcz/kCoS3PH0RFhWLsEgVr8OjYkHLxSvXuQfTpi1fY/KsZZi9aA3Co+IQERXHn9NzWh6FROLQiQsYNXE+Vq3fiilzlrMMmX5PXqBG7ncR40CvKVGaGsMdfpQJdVEJV+lDM7uKmw14oOuATjrp46jOe0hiFpbcSMI67yyUlleikhJzGiTnSFSZaP6mb80Uma4yiCgjKF9TtRD5a6HN1XPDkyXjCIqMBqoYrPIBTBfhyrvZmH8jGfFZeVxNpnmp7V7wrKbsTrHAf2ABuh5p0ZRWY5Z7JowOxMMpKp9BgmAcBBh40lo0RhJggmWUFZXIzMzCp9s+43Kmp+1tkNDR8ZklSzpQ0cEey8zN4GBmihtn96Mo4aG2O7TELjA4iLyObWsWYNywfsjQAyDq5Uz1jETj99ICLuOr9R/A3MQYBi1aYqiJIc7aPzlZWnd8HR2wxtIErVu8A+crTqioqGgQ/dPNoQ3yG2gOlemURYKjdh6lZOqvA/Lw1z1x2OSTiex8qVxrQ+mSVKZVSJeIaZAzD5zzwOChEEnqXPQO8q0HAJ6u+B+v65gQHIC0bGpIKCVK6yotaROmCTwkZqnxQViw/l4PXm64lqNGjSI7/Q+uQOWrr4sF6FqmvkgJmTn4wjsZE1wzkF9SUZ8gTeBBxjgws1BdjbMXXTBvyVrs3HMAn3+1G4NGTeeiIoNHzwAvo2Zg8KiZGDxqBnoMmoCRE+fh7NmL+OyrXZyzSu+ThFi3/egZIFlT36GTMXPeChw/fgYr1mzm8uhFJaVSMEIP20B+GM31h8PyMOlaMu7Hk3qlnN97Xc7BizrOZgUe6KRTJJcag9CkfsA/BZNcUuCVVCR1itYOXBqwYtCKcqxS52htWVZK2NMuuhubDiRQmUGtXrexZlcWMZNHynTlWLURNDlQaPCc5DB1dYjQlKPz6WS4hqVBTeXFqmsYGL2oQaHsR7GAYoFntwDNK8RCJRVUYKJrBmyOJsJNlQ/qME+MgxwwCHBAEqV6mRJtI1VZ4m21/WcIQKSmpmHVylXoZWwE17Z2oHwHudP9Q88p8n/Yzgp9jA1g2KIFZk8ahRg/10bsgwQIcsNdsXjmeAzs1RUxd880rcD0hNKu1MU6yusUVi+aCkszY7S2tEZrKxsYtGyJQcaGOGtn9YMMxFZLc1i2aIEjhw9x8rhgFBqvRVWlBvOnYB9kAIK+921IPt7eH4/VnhlIy23a60FUWyL2gYGDvoRpLXjQ5BYgITsXKyPD0MbPC+38fbA5OhLJDBzytdWWJNlSpjoPGdlUqjWH7zOp2Rp8GBGCX3u5Ncmb+OXd67igyUTlf1Ai+NlHqrKlYoGXZwGaJ2tq6rj3DuUNXg9PxQTnZBymsq0i14F9L23ug5AjVVcjLDwaM+atwsgJc9nh37h1OzdkpYISVB2zjBbtHBoRpULXfu9j0qwl6Dd8Cj7+dIfUUJS7V2sbAVdUoqi4BMReUGEaAhvEQBw6fp4DFw38LgEitHJkKo8/4koajgWkIl2dyyXASZLV3B7NCjzQySVKmxpHUYQoIiENazwSsfR2FpLyRUkviSZrABpoEMsGstDWNQQQBBooWUeUFqxnGcQNjxq66XS5MqZB3CDFDVE+cJl90DaEo4uvsKIGk9wysPlOIqJTsrijLu1feSgWUCzwcixA1yXNK6rcSox2zkDHU8m4FV+A8jLRRVUkRUtrKTFalGQlgNEQZAjWgdZUpnXhggXoZ2wET0c7hD+lRCsBCVFlKai9HS47tMGs1iawatUKRgaGMDI0gpGBAbZ/sgppIZ4oiPHing+i4zQxELlh17Bx+Rx0bmeD/Z9/hIT7F6AOcWHZEn0uWIq8cDdkBzsj+u4pfPvZKvTq2gGGLVvAwr4Duk5agu4zV8O6U08YtmrFrMleG0sEttff64GOe0cbC1i1bIndO3ewM8BzokiM5j4OUvdoaa5s2POGbK9btPMqbUeaZMODCfjwTiYS1MXcFE7OPMgTpgXrwMyDrFEcJUzn5BaCwAMvOfnQaPKhpiWHlgJdh2lqECcYCCrTykt2DtKzczgv4n/uXm8CHqh864msNJQrXaZfzsWr/OpPagEKspCUU52bh/jUDHx7PxFjXVIRnFWiLanatJqS1EOrCtQk7tCxc9wNOjNLzT4Zqz/kwVxtwDY4NJIlSE5Xb3C5VvKRBFPJPpg24EC5FL5+gdh34CQ8fR4wABH+l/C9hBKE5vmKmjqsuJuNxdcTERSfwXmM5CvSZ83t0QzBgzR4KZk1JT0TN0JSMOlKIr5+qEFBWYVexkEwESKrvyFoIFmSaGqkBQ4yxqE+0a+RLpducjImgm52dGGJgUtrIVviwVtXh6q677lz6hinBPhEpiAzWwOi2Aj1Nr+h+9NcqjQpNMeJ4aex7s/nV2iMhGnKMOxKGnqcJzaz8AfBg2AbCDwQ4yAHDeJ5UmIS5s6ayeDhTlu7H+zv8LiDPfd32NimNdoZGjBoMLd1RPuhk9Fp5HS0bmMHUyMjrFwwHQ9vnEZqoDOyHjszQNCEuCDW5yzcT32DxTMnwNSwFXp1a8+Vkx5eO4hYnzOIvXeWu0nfOrODu0e/27EtgwaDFi1g1LIlTI1NYN9jMHrOXoPuM1bBunMvGBoYwMHQADtsLOD/BACxz8YSbVq2xDdffdUAPFAlJdHLQQIOkhMgAi201jG38ue1tTgWXgCTQwlYcjMdcerCJl2mm4AHwTzoAQ85eRKAkAMG6TmxDoJ5aAgeuFxrdg4ysnOwITIcv9PTZZrAw8GMFJTU1Px8LgblnygWeIIFOGm6ohpUhCAtIwv+0clY7JaARTczoSmmXgxNwQP5XXLfi9QeDX0wbeBWlGB9gv8lgQdZoEHOWIpgrmAZtGshG6f5nZ5fUhVihFMizgUk8fEXFhdzMYdmiB3Q7MADDQLqNJtXUMgnPy4hGXt8EjDmchKuxBSgrJIGahXnRjDbwANXK2PSMhCMdhvIlIRUSZvjIAMFAjzQjU9+w+PnYvBqB64+4EDv0TETK+YcV4R+55Nx+mEiElLSkKXOZVkEb/OEi1V5+/ktQOeKIhJZ2RokJachPSOLqyjReX/ZD4pyUPUtolxpXCiPl28BOg2U7B6YVYpBTqnodSEF3gweJMmSkCrRWi5VYppdD3AQzY90zMPCxehtZAi3ttQvoalsidgG6ixNjvkhW0sMNDaEcSsDlg51GDIRvRd+gr7LPkffpZ+jw4hpMDW3Qqt3WsDe1gZDB/XF0rlT8M3GpTj05Tp0drRG6xZvw6zFOzBu0YKlTgQMTAxbwb5NazjaWsDW0gSWpkawNjeDVWtTBg0WrVqiu6EB+hgZwtrIGA59R6DXws3oMXMNrDv1YhDTplUrfGNtgcD2TcvMCuZhz65dUqM43RwqGFyJtRUOQD2QkPLHmgCI2jqcjCiA2aF4LHRPgyqrQC/zwAnTBUV4Yp8HLfMgBw/EQBBwIJZBnUNSJTl4yGVWWzAPNEeTfGlzZDjevOuul3nYm5aMIgU8vPwLWTmCH90C5KsQECgoKkZGlporITkFJmLs5QTsCMxBUXkV5KoPHXDg/g1SDwf9UnEK4oryztrnPIfQ/EFLfSU2HUupm2NqGwRt6RgFaBD+F/lJJVLaAAAgAElEQVRrj7MrMNYlDbt94hGdmMr+F6lY5IVOfnQDvkI/0KzAAzlbtBANRnkPGdkaJKakIUKViM03VZz9755QhJIGuQ8SmKiq1kqXtE1IpAEsR7zEOhB4kG5mQqokKDIesALdNloz4yBjHQTjIAZudW0dfFJL0P9CCnZ5xyEsNgmpGZnIy6dKBVUMSl6hMfXaHgqNjaKiYty4eRfzlqxHz0ETuZlb9wHjMWriAi6dSlHil/m47x+EafNWYv/hM6CGdXTM+QVSv5KXeVzN+bfpHFBELSirFIMvp6LnhRTcJfCgrawkwAPJleQLgQchbRJMA63l4CEtLR1r1qxGDyNDXHSwbpDvICRKJAdydrDGHHNTWBoYwMTMHPY930OPWWsZMBBo6Lv0M/T+YCt6zF0Pu56DYGxiho8+Wo2Lly7h+PFjLBcaNWIErA1a4aK9DU7ZWWOxuRneNTKATauWMDc2woBe3TB93DCsnDcZB79Yg2NfrsGU93pjsKkRdtm0QVA7B3g62GKmmQnMbduj/aiZ6D53A3rO2wiHvsNhbGyK3kYGcGnb8H+QbGmLFeU8tMTxo0e1OQ/ipi/d+CXQIACEFjDIbv7y6ijCOSDw0PpwAhZ5pCE2q5DBw79XbakQ+sGDPtlSQ/BAuXUEHrZGReJ/vT30gocdaYkoVMBDc55Cms1/p7mSgD/du0jml5yagei4RBz2jcNIp0QcCslFQVmlBCAocKsN5kpS8SeBh6aKj4bBBZnMUUgchQ+mfU2+llga+180t1DTyUmu6fjIPR6B0UlITstg6RXN7eS/0f9qbo9mBR7o5EqDt477O6hzcrmZV2x8IoIi47DYNRZTXNNwL6UYJVR5iduWExIWwKEa1VR2k2kxqRmJlOOgj3GQapALhkHc0GgtBjZ9JgYsrcWgFe/TsVbV1sEvvRTDnJKx5ZYKgVHxSEhOZdROJc/optocB+6PcaHShEZl3qgTeK/3JmHy7A+xdPVWLFi+CWOnfYD9h09z1F+MI2IiCIjKIw88vmokCRqdayr/S+dbPMR3xGta0+e0D5qEaH/EVtFD2pdE0YpzHBEVi03bdsLJ2Z2dzLz8QuzcdwyPQyJ5P2I7+f6V5z++BQg8UCGDEVfT0fVsCjwTJfAggIPEOmjBAyf5SbkOAmDIwYP8eVZWNr784kt0MjDAAVsrXadmAg4kUfJytMEOa3P0N5ZyGixsHdHp/Tnos3ibBByWSKCh+5x1aD92PhyGT4PDsKmw6zkE5m3sMHHiBFw4fxYRYeFYvGgh5rY2RXzHdvBvawd/RzvcsrfBFisz9DRsBQcTQ4we0B1bV8zA5mXTMaCLIyaaGcO3fVvcsLNGn7/9Gf/8zX/j//3pf2FqaQvbviPhOGoWus34iEGLpWNnOLRqhUuNQBCBh2VWZmjdogVcrrmydIHlSsTuaisqcRBGdsMXcyhfO+J9ki1p51e69o6GF8DoYDzLluKz9YOHJpWWZJIlebWlJ4MHfbKlPCnfgYCDmmRLGnwaFYE/eetnHranJqKg5uWzmj/+VaL8gmIBsMyQCknk5uUzq0/qj7DoOHxxOwYjnJJwMaYQhWVVDBxEvoPIM61nHWRScb2Mg/CzJOCgYyZl8wP7ZNp8UuGHCR+MXtO9tLbue8TkVmDezQwscFHBKzSeezCRGiG/sIh9RJr7m+Oj2YEHOsnknJN0KTe/ABlZ2UhITkF0bDz8w1RY7hqDCS6pcIktQD4NYAEgGjMO3MlQyzY0YByoJrk0cMXg5BuakDnJwEOTHAftTVAg2eKqOtxIKMbwS0lYfyMG/uFxiE1IRnJaOqN2SjxqrgP3x7hYgx6HY9TEhRg0agYOHjvH0RHxO/n5hdxQhpxAcvioidudu364duMOHgQEI0udw44Lbffg4WOEhEUh8FEYrrjexN17/swSJSan4vqtu7h2/Q4SklIYLFBH6Xt+gXgYFIrgsCi4XL8DL9+HDGpJMnXb6z43mKMJloAHVanwDwwBvabIzfa9R/He+7Px3ZFz8PZ9CPp95fHTWkDIllS55XjfOR2OJ5PhEVfA40RUAKExo5Mscdfp+mRqOViQmAepIgg9z8vLw8mTJ2HXqiU2WbXWNVwjmdIl+zYYZ2oMk5atYGLaGvY9BnGeATENBB56LvgY3aavQvsxc3Wgoe3waaCFQcTQybDp1g+mltZwsLdHa1NT7LS2wox3/oXf/vev8dv//hX+/JvfoPNf/ozjVubMDrxraIAehgYYY2wI23fexpY2Fgjv6IhPjQ3w61/8Ar984w28+Yc/wMjMErZ9RvBv0e91HL8Ilm27YJCJMVzb2uj+BwGHsA72mGwq9XkICAhCZVWltikczaOyqKEsp4HmVh1Q0Ace6upwICQfLfbHYcWdDCTnFDVhHprkPGhLteYUFHIvIH3gQSROP1m2lIdMTS4430EHHnKwjcGDfuZBAQ8/7fWq/NrLtQD5LORXkfOdma1GYkoqVPGJCImKwzd3VDoGIru4EpXV9X2UGgIHOXjQypS0fpeYF2it88HE3CHKO4vPnsI4lFfXIii7nLthz7mqwu3HsVDFJSIpNQ3Zmhz2D+g3mid0QPPLeaDLhhAllV4tLC7hQZCSlo7YhCRExsTiYVgMPrwWg+GXEnA2Ig+ZRRVMoTVMipZVVZIl59BAknIctDc2Agy6QatlJ7SvBdIVa0a8WhRMaFdTVoMTEQUYdjEJ227G4EGYCtGxiex0ZmRms1SlskpJsntR0yCdN1d3T3TsNQofrv2UOzrr2zcBO3LSZy5czczEguUbuX70J5/tRmpaJvweBoO6k78/eRFmLViDSbOWoVOvUfhq1yF8uHYbZixczQ1sps9bhZzcPERGx+LdAeMYsMxbugETZy5D/+HTsPDDTdjyxR5MmfMhBoyYjsUrNyM2Pok7UZOEase+o7h01R3jZyxFp96jMWzcPN6WKlIo7IO+M/fjvkfjIqWwApOvZ8DySCJcYpqCB8EySABU6qb6JOBQzvKlSs5tcfe4CQuDlphlbsy5DeRwB7S3w8dW5pxvYGbeBu0Gj0PvhZvR+4Nt6Dl/E7pOWwHH0bOZZWg7bKrOiRfgQawZRAyZDJsuvWFiao7tbSzR8a03GQT8SgsG/virX2Fpq3fgZG+D+a1NMcXECJNa/BP/95e3MNjYAHutWmP6v/4PYvs//O53MDCxaAAe7AdPgJmlDZbo6Tod0sEOg4wMYWFijMSkJJ5v6XpswNpqAYKYT+Xggd8TEUUtm0vf3fUoD//YG4d1dzORkff0akvEQOgqLj0FPBBoEDkP+hOmJdlSBgMHqrgkZEsReOsJzMOOVEW29ONencreXyULEHig8vLFpaVQ5+YiNT2Tg2GRqng8Clfhy9sqDL2QgJ2BOUjIK0N5pVyuJJOKk+/F/pc8x0FSfDBwIF+L5gWtz8VAQsvyC3VHA/9LAIk6agJXy4HbyddS8cE1Ag4qRMUm8HES60CsSXl5JSsGmuv9tlkyD3SyKTeBIvc5RJ1lZrEUKDo2ARHRcQgKi8anHtEYcCYOXz5QI1JThpJKqbdDfSnWxsk5RLFL4IGjZSIyph24ugHciCZrMHipjFlVLaLzKrHVLxuDzsXjm9vRCAxTIUoVzwOXgA6VmS0qKeP/8CpNCq/zsZC86Mo1D3TsORKrP/6SoyL6/g91H1/z8Vfs0Ps+CGKwSDKiHgMn4PrNu/D2DWDwMG/JBmRkqrlDOIGBjr1GIyAoBKWlZfz9/sOnMuNA4IFyKuYtWccsWExsAibNWs77cLl+G2pNHgMPanJDr2/fvY/RkxZix96jTPlu2LqDm+V4ej9ACTW3kXWp1nf8ynsv3gI0n9CNKae0CrM9MtHiu3icj8yHXLLU+DndeARwYFBRUQEBGORryrEJDAiCtXlrjDQ1BpVgFeDhEytzGBsawqHPMGYa+iz+FF2nrYTjiBkMGkieJEDCs6xtOvfDWsvW6Pv3PzcAD//1izdg8YffY7mxAd5r1RLG//wH3vr972D89r/Q/p23YfnmH/Hfv/qVDjz88Xe/g5G5Nez6j9b9vm2fYbAyt8QeG0uWWzHjoO1Z4dfOBh0NWqFT+/bIzc3la4qBAwEGESFsNI8KwNAARNC22vmV5uDP/XPwl92x2HwvE+oC/X0ehGyJu0rnFYFfUwK1dhGlWuWyJQEapHXjUq3UYVqSK0lJ01K1pU+iIvDmE8DDt+nJKK5VAkEv/spU9viqWoDuUzQHUuEaTpxOSWP2ISI6Fo/Do3HIOxrvnY3F8tsZ8E8vZhUIJVLXB3Eb+19SwFbkmvK8IcCDFkDI5xLhd9FaSJVo7qiq/R7JRVU4HJaPIReTsNI1Gr7BMYiMiYcqPolZBwoIFBSWoKqqplkH6poleKALiiKFFRVEnRUjS5PDZVvjk0i+lIDwKBUeh0XirG8kxl+IwdRrKTgbmY/onHKUVpIGXVok1Cvocwk86G56T6DS+eYmEK52Te8RaIjNr8KZyAJMdE7GFKcYXPCL4gspMiaOBy4ld9OFRnIruvDoPyiPF2MBwSj0GTqZGYU73n5cMpLepyhoYWEx5zsQbbloxccYP30JQiNi+Mf3HTyFPkOn4MjJS7jleZ8df2IaqJMmfX/Y+HnoOXii1CukqpqTnfsNm8qyJwIP9NnqTV/yvtLSs7BszTZmNkgaRaDmyMmLGDBiKi67eDQADzk5edj8+W4GMiSdUh4vxwICPJRU1GDxnWz8fW88jobmaWVKsn4OWskbgQUBHGgtwENZeX0DI95Gu310dAz69enDlYzcqeJSRwdmIPbYWMCmVSuuZtRz9loGEJ0nL5XYBq086VlAg9jGtv9ojDI1xhzDljrwINgEkiP9969/hf/7+1/RqUM7DOjXB2NGjEDvrl0YRPzvm2/irTffxB9//wf87S9/gbl9RzgMniiBh2FT0aZzH/Q2M8c5+zYNJUsdHXDO3gq2xKxMn4biEsrjqq9MJw+6iOfyNc2dHF3Uggy63miprKnDRl8N/rQ7Fl8/yEJuATEPEvtQnzRdDK62JGcd8uslS/pkSw2BA1Vb0gcetD0euNeD1OdhfUQ4fv+EUq2HMlJQKsuLejmjWPlVxQI/nQVozqRk6KLiUmTn5CItIxPkf8XEJSA8OhahEdFwfRiFBVejMeZKEvY9zkVodhkKyimIS0xDQ7ZBzAGin4MACuJ9nlPEHKHH/6qoqUVqURXc4ouw0CMdoy7E4qB3NAeSKaBMx0W5phRopoBziRK8bZ6yJbpEaPDSIKSSnDQYMrLVSEol+VIyolQJCItUsQb93qNIbLoejQGnVVh0Mx2XYwoRrinXImHKbyDQIAEHwTjoUK+IljWi1BntklNaW4eCylpE5VbiqqqQq4IQ2v7MIxp3gyIRHB7FF1JMXCLik1KRlpnFFxpdcFXVzRv1/hjTXFJKGren7z5wPKbNX8XO+sPAEPjcD8CRExdx5oIzQsOjmDkYNm4OvHz8WT728We70XfYVDhfv4279x7qBQ+UgC1K/3535CyzBZQzIcDDmk1f8V/SDx4ucBfMxuAhN68A2776Fn2HToGz220kp6SzI/pj2EbZ55MtQHMJOax0Ta71UeMve+KwO1CDQuowre16KnJl5MCBQYMWSFAwgMEDAQheKlCh/Sw9PQMrPlyB9gYG2GljqXO+L9lbY5ixEcuBqIdD3yWfsVxJgIHnXTsMnYI2xsZYZGSgAw8EGghA/M9//Rp//fNb6OjogM8/+wxenp4IefwYJ48dw9jRo9HWsT269h2MHoOHw759J1g5doX9wHEgyRTt19yhE+ZbmOGWo22TilHrLFvDvGVLHDhwgIsA8I2+sUxJBhIagwd5wEZEEgsra7HMKxv/ty8O+4PUyCuUgEI9cCjRAQedZEn0eXgu5kGeMC11mM7SiIRpSbaUlq3BmshQ6GsS9wsvN5xUmsQ9+eJSPvlZWoDyxIT6g4KhmWoN5/nFJSZLAdzoWIRERONBcCS2347CyAsqzHRLxYnwfARnlUFTSuX0hdJDBHBpLcuREpKlJ/hfNI+UVtchoaAKt5JKsN47E0PPx2PltWi4P9T6X1GxfDzxiclITc/gPEOq1ElBveaeb9psmQeOFhL7UFnFuQ9Ur5tQJTmQpC0nmVBYZAxCwqPxKCQS1/3DsdY1EkPPqjDLNRn7HufALb4QwdllyCiuQkllDapkCTvyiBgNUnpdXVuLspo6ZJVWI1Rdgevxxdj7KBezr6cw0l3vFgnXBxF4FBrJyJsoPJKxECKnhnbEkBDNR5UKyFlRHi/WAgT6iOVZ+8nXGDlxPvoMmcyOOUmMRk6Yj0MnLnDvBzd3T8xdsh5bvtyDA0fPYtYHa0DOf2JSKgKCQjFhxlLs+e4EA1M6TxNnLsewcXO1jW1qcOyUE++fQEmMKgFDx87F5s/38J8hZmn95u1YvPITroFN1SZOX7iKMVMWwdXdi4HM1LlSqdaCwiKcv+yG0ZMXYfaitXwMxIzQ2FYeP50FBHigYMRXD3Pwz2/jsck3G9mFZbpSrHLQIFgHAR5YpiQDDdL79bImKh987tw5tDEywuzWpnislS75trNlmZGxgQHsew5G70Vb0G3majiOnKmTCz0XgBg2FRY27TC41ds68EBswx9+91sYGRqic89+6NGzDzZv3ICoyEg8DAjAlStX4HrNBdMXLcfyA5ew4cIdzPx4Ozr0HADrdwcweLAfOBZW1vbYYW2BoA4NezxQmdkRJkawNDND0KNH2mBMPfOgAwZaB4AjidqgjO4zIQWltVaGkFJUhek3MmFxOB7nwjV6WIcSbQJ1sSRRkrEPQrL0ZOZB6vNA94yGfR7yIICDlDAtgYeULA2Wh4fg115NO0z/8u51XNJkoep7ZT7/6a5Y5ZdetgXY/6qt07EP1LQ3PTObZUFUDERSgMSy//U4NIqDqdvcozD6vApTXZLw1UMNrqgKEZBZhpSiShRX1qCSA7kSkJDPDeI5AQtKgs4pq0FkTiVuJZfgaFg+lt5Kx/DzKixxjsIl3wgEhkSw/0UMCB0HKQBILk7J3QR0SkvLeZ562TZ82b/fbMEDGZ4cO4l9KEduQSE75xTdJ3mQxEDEs4SJAURoJAIeh+Pmwwh86h6J989HY/j5OCy4kcIDmeRG1+KK4JlSgvvppQjMKuNMfRrcfhll8EophWt8EU5HFuDrh2os8kjFqItxGHchBp+6R8DdPxxBIRHMdhBlx8CBGQcauBk8cKkrY3FpmcI6/IhXDU1q1BzOzcMT2/cc4cg+rZ3dboES1TnCXFXNFY/2HjyFz7fvx+nzzkhLz2R9dkpaJo6fdmInn6ITtD96TSCDvkvRFv+AYBw6fp4npWx1Dg4cPQf32978ryinghK3L129zklZtH3Q4zCWLkVEqUCRmVPnrnK+BDmhxJpRednPvvmO5VCUzKU8fnoLSHNJHU6G56P14UTMcs9AXE6pJEnSyo8EaJCv5fkNEoiQqnk12Ka8Ag8ePECXTh3R38gItxzrpUvf2VqhrUErWDp2QffpK7mnQof357HT/jTgQGyAw9DJDSVOw6bCtsdQWBn8C3/4n/9h0PC3v/wJ1rb2GDV7MZbvO4vR81eif//+uHr1Cnx8fHDp0iV4eXlh+uKVWHnUBRsv+2DRjmPoNWoybHsP5+OwfncgulhY4YxdU8nSRXtrdDZsheFDhyEjI7NegiTyHYT8Uys5YNZBHknUAgYCDfVLHR5ll2PgpVT0OJuEO3F5PwweKN/hGXMenpYwTflookGcyHlIzNRgUVgwfunl1qTPw6/vXodrjho1zbTc409/pSq/+CpZgHIfKPc0v6CIo/rkf1EAVwAI8oNIHkyVCIOCw3E3MBw7b0ViysVoDDsXi5muSdh2PwvHw/O5ie6d5BL4ppUhIKuM54Cg7DL4Z5bBO7UU1xOKcS66EHuCNFh+Ox1jnBIw6lwM1rtGwtkvHAHB4fw75O8J4ED3W1KkUFVOAjhFJaVSeVYlQNd8ZUviAqLBW0Hau5JSUHIcJcNQA7bEZAIQSYw8I2JiERqpHcAhEQh8HI4HVIbzfjg+9YjCNKcYDD0bg2HnYzHmUjymuyRiplsS3nNWYYZbMqZeS8T7TvEYfj4Ww87GYLpTNLZ5ROPy/Qj4BoUjMDgcjwg4hEexXIqi35JUqR7xqnPzuCsjORh0zOSUKo8f3wLkFD7N1k/77Mc/uvpfoONUHi/HAnQlkuNaXV0Lr6RidD6djD4XUhCYXszgQQ4ExHMBGsq0VZUEcBCfE/CUL4kJifhw+XI4GrTCdmsLli5RrwdXB2uMpTKn5lboNGoGd3XuOH5hQ1CgJ//Brt9IOPQf1XA7khgNmQwLizYweKcFDFu1gm3b9pi8YhM2XPRiYLBk7xn0GTISSxcvQmZGJjQaDa5du4YpC5djzakbWHv2JkYuXA373kN5XwRSLNp2xmTz1qB8DTpmkSxN5WaXWZiCOk/v3/8dioqLdaUVOVooy33QRQ9l8iV6j8Z9PWiQAAS9fy2+GG2OJmLCtVSEpVN36cb5Do2Yh2cEDxJweBLzoG0QJwcQ2TmIyVBjdsgjvOHp2gQ8/NbbHbfzcvg/vJzRq/yqYoGXZwG6fin3gXIIcvO1AdyMzIYAIiYOYVEqBJMKJDSCQcSDR+G4/iAc39yMxLwrURh5LgZDzqrY/5rsnIi515OwyCMF824kY4ZrEiZcTsDQc7EYcjYGky5GY+P1KJy7FwEf4X+Fkkwpmv0vynGgypYkVaKyrKRIobLoVFqW5KekUFAezbRUq/zEk/NH0V0aFKRl0+Tls/6OAAQj4MRkru1L2fbUoEugYHL2yeknIEGMhG9QGG49DGfa64R3JD5yC8Q/jzhjqWsAjnlHwOl+BG75h+N+UBhvT98LColkiZIADRExcYhWJbBsKiEpVcc4EDUuBi4lCimOovwMKs8VC7x8C0jlB2uRnFeOEVfSYHIwQdfrQQAC+ZpAg1gEkBDSJjloEM9JunTtmivsrKwwwdQYPo627IhTydaNVq1hbmCAtv1HsXSp06QlDUGBHvBg1bEX2vYeAmYphk9vsL1tn+Hs8LdubYFxyzZi46W7DBw2XbmHdedvY+q6zzGg/0CcOnECLlevYu/u3Zi4YCnWn7+NuV8cQNdhE2DXfwxLp+wGvA9LKztstjLn8rJy8HCrrQ16Ghmgg6MjIiOjuESryBcTYOFpa33AgUFcbR2+C8nHP/bFYcmtdKRpezxQXwd5zgP3eRD5DdQcTo90SVRbkvd3oCRpKXG6qWwpW0PSJS37kJ3L3aUfp2ViwuMAveDhT/c84FuY//IHsHIEigVeggXI/+LKSxWVKCwuBakrstQazu8kx50kQ1TliMqkkn8kScmj8Dg0EkHBUiCXfCm/oDDcCQjHVb9wnPSOwEGvCHznGYF9nhE46h2Ji74RuOEfAZ9AyV+T/C+SiEtBWwoOU5CY8l3p91gqnpquAw7UjJUYEiXXtH6QNGvZEpmBBi+j36pq1rKRk05RfkrgScvIYsqKBhINqJjYRNbECyqN6C2qykQ5CkEhEoNAA9rvcRgWuLvjr8eOYNJ1NwTQIA8O58FO0iTanmg4SgiixGzaH+VYkF6daDKSTVHtY9LYMXAooIFbzt2HFeBQP3iVZ4oFXhUL0HVJzENxWSXmemTgr3vjcCIsl5Om5aBBPK9PjpZkSgQg6DMBFhqv6bOoqGhMnTwZXQ0NueQpOeK0HLG1Qk8jQ9h264+ec9ajy9TlaDt8+lPzHtq074l2A8ag+8zVaKst7SpkTtT7wbr7QFhYtsHSvWewwckbBBxoIVnS0v0XMHD0RCyYMwcuV6/gu2+/xdh5y/Dh4SsYOnsZbIl1oDKxw6bCumt/dDUzxyFbqyasAwEKqha1etVHyM/Pb8g6CLmSbC0SpXWMg2Ae5OxD3fegZOlP7mu4x8PWe5lcaamgqAS0yMGDqLQkBw1UkpX6PYi8B33goaFsSV5tSZswraYmcVSuVcp58ElNw9CgB3rBQ0s/TwQUFbwqw1g5DsUCP6kF2P8i1ramBmVlEoCgAC6VO6aIf3JaBlc5IhWI5H9JQVwGERHRDCLIn6JgLvlWws+igG5gsPSe9Jz8L0nhQduS3xYSEcWKEpIoUXCY1B4kV6eqSiQVT89ScyCAGJHikjJtN+mnKxF+UuO95B9TwIOuDXkdqOlaSWk58hhAEANBAzibk2WoC2JcYgqzArpBHBPHOREEAIiRCAmPQUhEDDwehcLA6Rx+c/oYWl+5CLegMIRGSNsQwmXAEEUDNk4HGujioK7DpK8j3Z8ADpQgTZQeORMKcHjJV4vy84oF9FhABCAIPFRUVGHr/Wy8sz8eG+9lI62gXFeWVccwcHnWplWVGgOGxq/JwabEaQdLS0wyM8FdLftw09EGc1qbwMKhI7pO/ABdp6/8waTpNp17o92wKegxdz1v27gnhFW7bjAzNcPgyXMxc/MurDruio1aELH23C1MXr0N748ejcCH/nB2uYYxcxZjyrov0HHASFBDOG4+995ErrI0pbUpXB0kyRKBneAO9nBzsMYgY0O0d3CAt7c3Kquq9IKHmjpq8iR1ihXJ0gweRI6DABC6198jJrcS025ksmzp6GM1A4GngQduDidAAzEQgo0oKGIpa05uIUSfh4YMRH6TUq2CdRAdpskJcklKRreHvnrBg13gPYSWFOkZVcpbigWahwVI9kmNcauqpd5bpAChXD7q4kwFRKjKkZyFoCIyFGwlJiI8Kpb9KfK/JB8smpOsSYJEig5pkd4T25D/RTIoiWmIZ1Ai2AZSm1Dgln6XSsjm5BewpJ3mdVKo0FyvPCQLNHvwQGagAUEL0WcEICibnhgIijqR1o3KuJKMKTktnVupExNBCFWwEUR10WAm9BoaHYfVXt741fkT+MXZ4/jzhTNY5OmNiJgEUAdF2pYy+IlloKpOxDQkJLBpg/kAACAASURBVBNooEFLaDebUbc6N5+PgRKkaeAqeQ7KJatY4NW1AM0fNTXUO6YKLqo8tDuRiIGXpLyHJmyDyHNo1O+hMVjg1xVVqKSlsgoVlZVQqWIxc8YMtDc0wJfW5njU3o4bx1G3aQtzK3QcMQ3dZ69D+zFzn8o82Lw7AB3fn42e8zboBQ92/UZxrwZTMwvY2LfDoEmzMXXdF1hxyInzHxbvOYVBw0djy8ebcOTEaQwaPwM9x0yTukprm9PZ9hoKSwtrbG1jDqoM5e5ojSN2VviijTmmmZnAumVLTBg3DgkJ8Vy3nSRLcnZBeq6tnqLNf6AACi86sCC9lsubXOOL0fZkEkY4JcM3Phd5BUXMOpBMSS5dYtmSVq7EzeHE8+cCD/JSrVLOgwQgpEZxBB6OxsXB0s9LL3gYFBqAuPLSV3dgK0emWOBHtoDIGSMfhxqvkTyosJgAhOR/ZWZLMqYUAhEpaVy2nvwm8p+ILSCpN/leLC2PiWNQQcBCvlCglj6Pionn7SkArPO/klJ5v+x/UeBWrWHFBxXRoVxYARyae2nWxsNAAQ8yi9BNidBlZSUN4HJOUKbSXCQdopsAgQhqZkKUFg1iorcISFBlAF4SU3A3WgXjyxfwBoGH8yfwX+dPoo3LVdwKj2HmgrYjHR/lNJA8KTk1nZEugQYatARWCO3mFxWhpIyillJEjo5NQb2yk6U8VSzwClmArk1qUFRWUYVYTTFGXk1Fq+8S4BxTwLkNBCBIqtSkEdxTpEqNwQO9ptwHJ6fL6NKhA4abGOKitunaLhtLtDU2gePAseg5bxM6jFvQII9BSJLE2q7nYHQeP5+rM1Fp18bMA712eG8i2nTrB3P7DjBrTSDCEQPHTcX4FZ9g1pbdGDZtAfr17o0Fi5ehU9+hsO05mHs6SL0dJsOy/bvoYGKKDVbm+MzaAjNbm6C3sQHaW1qgT/fucLS3Q/8+fXD27BmUlJZKlZZkZVgJPBAoEH0fGidG64CETNpEzeF2BuXiH3vjsexmKpKyGoIHuWxJDh6YfciXJEs/JFtqmPPQEDzQ/C3YB5It0X3jq5go/PPezSbJ0tTjYb4qApmVla/QSFYORbHAT28Bmj9pkQBEtQ5AkGSIZOQ6/yszCwwiUtM4kEtqDfKnKJgrAroU1G28EFAQ25CCRPK/UjloS/tLy6z3vzS5+VwSnwK31HOHKnLScSmPhhZQwIPMHvIBTBWYCAGT1o1YCAYRuaRpzWFJEenxiI0giotqABMISE7NwAcP/PCLCyd1yxsXTuJNp3P44N59JPA26bw9fY/kSUSPkTwqOyePmQ6KkhHapd+mKgS1NbUcafseCl0mO1XKU8UCr5QF6OoU4CG/qASrvDLx971x+OyBBppiqaO06OsgAIRgJBgkNKquxGyDlnEgSY9YiH1ITknBti1b4dDaDHPNTXDH0ZbLoPYzNoJ972HoOX8TOk74oAkgIKfevt8oBgW2PQah09h5+sGDNl+BAcTQKbAfPB423frDwq4DzMws0drcCh2690XHXgPQ2sQEtja2sHLoCJvug2DXezhse76HNp17wbS1FRwMWqGHkSHsjIzQvm1bTJk0Cbt27MB1V1ecPHEcA/v3R/9+fREbG8u6ZwYLMjAgEqibAAdtrpocQNBz6hI7xyMTrfbHYY9/BrJzyBGoZx5+avCQnq3B2ohQ/E5Pd2kCD58lx6OopuaVGsvKwSgWeBkWqPe/apmBoHmSHPiG/hcVIdCwQoNyUtn/Ss9gVQj5YCT7psAuBWbFQq95If8rTeZ/ZWTxfjhom5MLUnsQWCGJIwWPqQcYBZOJcaBjUx4NLaCAh4b24Fc0UKihCGXWk06ZBhLRaJQLQVQaIWF1jhRVIsef8hMysjXwjU/FP6454RcXT4FAg1h+efE02txwxdXYBGYvMtVawKDJZVaD5FFEkRUUFXPOBbENRN8R2lUYBz0nSHlLscArZgGeM2pqUV5RhaLiEpwJU8P8cDzec0pBZHYJl2ylim66TtM/kCCtAxQy4EAAgsADda1+/PgxJk2YiPaGhtjWxhyX7NtgvKkxbN7thx5z10FvxaWhU2DTuTesOvSAhX0HtBsyEe/O+AgO702AXd9RsOszHDbdB8Cmaz9YdeoNq47dmT2waNcNFm27wMK2PUxNzWHYsiUMWrRosBibmMHMyg6tLW1hZm4FE2MT3s7M2BhDBr+H9evW4eSJEwgMCOT+JdXV1SxVOnXyFDq0c8Tp06cl9kHGPAgp0rMAh1qas+vq4JlSCseTSeh5JgG3Y6g2O8k/i3WypaeCB5H38BTZElVZon3SmiorNWwSl8vMcRYnSuciU5OL+CwN5oc+1tvj4VdebjiamYYqpczyK3Y1K4fzMi1Ac2lt7feoqpLmU/a/qNiB1v+ifguUj8CBXC5MoGG/itQbvGRmcbEbAhe0UKBXWrK1/peGmQz6Pl2/dD1TcJhACs3dBFrk/tfLtMWr/NsKeNBzdmjwsg5P20SOECgNKJIREYigQZZXSEl0BeDKG7l5SFPnYbJ/AN64fAZvOJ3BG5dO1y+Xz+CPLpcw0f8BVJlqLgdL36UBSxdEQWEJMxzkWNCgldCuIlPSc2qUtxQLvJIW4Bte3fcsM6SEv8iMfPS/kIS398fhelwBisu0wEGb7/BE1kHkONC6EXDg15T7QGUNi4pw9cpVDOzXD72NDLHFqjWmmpnAsn03vDt9JTpPWcZJy0KmRGtiEKwcu8DY2BRGBobMJBBQMHfoCHPrtrCydYSDYzt06dINffsOwLBhwzFu7DhMmTQZUydP4fW498dh2HtD0PPdd2FtaQnqbm1kaAwTM3MYG5vAxNAQfXv1xphRo9DWzg5jx4zhPhApKSnw8/OD89WriI6OQllZOUfzNJocDBsyBJMmTURWdnaDJnHMKojchsZrOTtBz7//HiVVtdgXTCVa4zHHLQVx6Rqen3888EAggthoCUiQZIllSwI8qHPwOD0T7z+hTOsf73nAOSdb4ZRfyStaOaiXaQEJQAgZudb/Kq33vyjYSvJuyQfL54CuBCikoC4BA1qytAtfm8wu5DHDQN+j71NBmoLCIhSXlLJ/R8FikikJRvNl2uBV/20FPPzAGaKoFznzNKCqqqoZRBASpsFWVERAohj5RcX4NjoOv3d3wRsuF6TF+TzeEIvLBfzC5QL+5eGKL6KikVtYjMLiYka5JVpdHckUhLaOGDK6eJSHYgHFAq+PBYgpJNaQZIekm1/rmY5/fRuHFZ6ZSMqTuk2T469jFRpLleSvnwYeKiuZgchWa3D8+An06NoV3QwN8K6hAcxt2qLrhEXoMvVDXblWkh85jpwBh74jYdOlD6w6vAtzG0fYWttg5oyZ2LhhI3bu2InDhw7j/LlzcHZ2xq3bd3D/vh8ePQ5GeEQEIiIiEB4egcePQ+B33w+u165h04YN6NmzN+wo+Xr0TNi+2x8Wrc3xyaaPeZs5s2Zh3Zo1SExMxJ3bt3Hw4AHuTJ2SkoyqKqn7Ot2kVyxfDjsbawQHh7J0iXIcmG2Ql2D9AfBQ930dwnMqMN41gxmf3X5pyMjSsHMhBw9PSpiW5zw8rdqSxDzI+zxIOQ9ZatJla8ED5T1oy7S6J6eg68N7epOlTfzv4m5B7uszwJUjVSzwE1qAg7jMQpD/Va2TMsn9L1JriGAuAYpcAgVaYMDgggBGvhSopc8p6Evb0/eIZSA/jiTixBiT0kQJ3D77CVbAw1NsJdx3GsR0kyPnQIAIchLKyip44D3IVsPB+y7s7nnhNzec8YbrJWlxc9I9/6P7VTj4eKG73324Z2Rr5QvkSFTzPmnQEk1PN00FODzlpCgfKRZ4BS1A1yzp84mlpBsS3ag8orPR4UQCbI4l4l4KdSd9ei+HJqBCyzxUkFxJHwtRVYW0tHTs3LED3Tp1glGLFlKn6TFz0HXaCu7fQIwDg4cRM9B++FR0HDMXnSd+gI4jZ6BP/4G47+eHzKwsSTJUU8Nzj7hpi3lI/loENkpLS3H75k3MmD0PnUbOQN+ln6HDyGkwt2iDb77+mpmFXbt2YcWHyxEWGgq/+/fx7b69OHBgPy5euICAgAAUFxfz7x0/fgxtLC1x6uRJVFZWSvPg04CDFkgQ20ALzc1VtXU4E1UIw4MJGHEpEb4xGdygjUqsijKtBBz0gQc5cODn5IRopUuiz4Mo1doQPNSXam0AHrTMAwGIY/FxMPS9oxc89A8JQGhJ8Ss4mpVDUizw6liA5h/J/6rl4EJVdTUHaSiZubRcykvlYC4FdItLWR1C7K98ofcpqEM5rJRHQd+j79N8TUFhEbAQc92r8+9f3SNRwMMznBv5TZQGMS3k7NNSUVmD25nZOJySDI8sNf585ybecL+CN25ckdbXL+ONG5dh6XMb51PScTo1Dbezc1BMdYMpwlYnXRi0T/E7z3BIyiaKBRQLvEIWEDc4CgbQzYmiXcmZGsxxS+bE6S1+amQWUhEEqexqk7We5GhypGmhPAeJsahkKRPdPGkRsqbU1FR8u+9bdOvSBSYmrRkYdJ2xCm1HzmxQrpWqKrV/fx46jl+IDu/PQY++/ZCZmdkAMDyLSem/Eni45+2NpctXwXHg++gy7UM4DHyfwcvGDRu46Zubqys+WrkSD/z8UFZairCwUNz18mRGIy4uDuXlknTJ/4E/HO0dsHTJEs7naMA6yEGEdu7lz7UAQgq21CG5sAoz3TPx9r5YbL6ThKTUTI7+ExiQg4en5jyIakvPBR4aVlvS5Tuoc5GmzsFn0ZH4/ROSpVfGRyOjsuJZTK5so1igWVuA51dtYFX4XxTIraySgq8EAGju5aCurLIdBWykoA3NuzRnar+j9d+E/0X7p0V5PLsFFPDwjLYSw0oMMDHYqMKKprwSldU1qKiqwd88b+GN2y5446Yz3rjlLD2/5QzHh/eQWFiO8qpqFFRVc6RM7OsZD0HZTLGAYoFX2AJ0U6MbGuVGkZaWdLYXQzJgcSgejieT4ZdazAUYmgAHAhRPAg8sc5JABAEJARzkawIRqWlp2LB+PdpYtUGH4ZNB4IHAgjzngasnUQlWWoZOgUO7Tiwpet55iLYnMOB//z5Wr1nPlZhIFmXXdzjMLG2weNEi3i8lda9bsxo33d1RUFDAzeBOnTqJ8+fPw8fHB2q1mpOmY6Ki0bVTJ0yeNBmlZWWSZEmAAzlg0D7XMQ7aG351bR2uJxTD5FAC3j0ZB4+wFKRlZHNCM/VveBbwIO8yLVgHWutjHupLtYrEaZHzQNIlSb5EhTSiM9VYEh4Cqqr0RqOFkqUPZKSgrLb2FR7RyqEpFvj3LUBKjcBHYbjt5atd7uNhYAiy1Tn/9k7JD6P5RwQQ1JpcePs+RGxcog5I0Bysb5EkSVI5WDlooINpPAcWF5cg4FEoomLimFH+tw/4Z/xFBTz8hyeXBp1Yqmpr8Tfv2xJFfeeatPZ0xRt3rqFdoC9SSyt024rv/Ic/r3xdsYBigVfAAnQ9i4gYaWjzC4o4mTY2LRvvX07E3/fEYqufmsu26gUPgpEgeZL2OVHqtPBrrWxJDhqYfSAGQstCHDt6FO3atkX7IRN+uMv0sKmwtHVEaFjYc98c6b8SeAj098emTZ+AulVzQjY1lrN2wMTx4xEYGMgAYv3atSxTysnJQVhYGO5638U9n3sIDQ1FTm4uSopLERsTje5du2LRwoUoexJ4IOCgbRTXGDwkF1VhsWcW55cscU9EdEIKUgk85OTpyrQSgBCyJfk6r6AYtLwo8EAVmESTuLupaRj+6KFeydL/3vPAtVw1O0GvwPBVDkGxwAu3AM1d67dsx/jpSzBh5lJMnL0c0+etwubP9yAoOPw//j0CEsGhkfjgw49x/tI1XREGmoclRlILMrSqDnpf+F2NSQZidjU5uZyLRQcWHqnCyg2f47sjZ1BYpEgL9Z0sBTzos8q/+V51XR3+6nurSZSJIk/tg+4jtbz839yz8jXFAooFXmULiJsSMZEEHgoKi9l5zcjKxtmgZFgcioXV0UQ8TJdKAQqAoFvLcxrk4OGHQIMWPBCQOH/2LLp27oR2g8dxzkNj5kHOQtBzSztHToym5OXnedB/JdnS48BAbN26DVYde4J7SAwYyxWc+vXug8tOlxEZEYllS5fi8MGDSEqIR0pSUoMlNSWFXxOD0cHREfv372eJFkcVtQ4AOwKCcWjUZZqOg5rCXVIVweBAPHqcjIXr4wQkJqchLVPNVVUIGMiZB305D3LgQDKnZ2MeqPstJU7TWjAP9QnTVKb1eHwcWvt56gUPdgH34F9U8DxmV7ZVLPBaWYD62kyfvwrvDhiHLV/uhZOLO1as+wzdB4zDpk93MYsq/0NiDhXv0Wu6/vU9xLb3/YMwdOwc7Dt4ElR8hh4CGDBLoWUVRK6W9Lm0X9oHPUgW6nM/AEdOXeJ8NXqPmtJduXaT36c5Wjyedkximycds/j857JWwMMLPJM133+Pv91/CnioUPStL9Dcyq4UC7xyFqipqeNEPErWo6ZD1JU+OikNU68mMPuw7E4W0gqoc3ylXqkSJ0cLtoHWVVQFRMpxeNKamAf67PKlS1xCte3A97lUa9sRMxrIlhqDB6t23XDo0BEGAs9jSLqBEngIefwIX3z+BfeCYPAwaDzM23ZGOwcH7Nm1C/d8fDBr5jSsWL4URw8fwv69u/D1l5/j6y8+49cPH/ghOiIcn27ZjLZ2tnj48CFqqqvZYWDQIJMn0Gvu+yBjeuk4EguqMNYlHW/vU2GNexwiVAlISknnSktURltUWpIzDyLvQQISDVmHZwEPXJ6b+zw0li3Vl2pNzc7BtuhI/OEJ+Q5To0KQXKEEk55n3Cnbvl4WEOCh1+CJuHjlOldCOnLyIjr2GoV5S9dzg9ybd3zh5OKBgKBQHDl5CU7O7sjK1jCj8O2h0/h8+36cOHMZcQnJOoY0IioWB4+dwxc7D+DjT3eiz5DJDB5KS8tw9tI17D9yhmVLZK3zTm44ePw8AwuSUVGnafrutq/2Yf/h03gQEIyAR2GY88E6jJu2GN/sPowbN70RGh6NQ8cv4NoNT5ZSlldUMJDY890JfLH9O/6dzCw1z1XEUtC2Xj4PcPj4BXy+/Ttcv3mXK0S9Xmfs+Y5WAQ/PZ6+nbq2Ah6eaR/lQscDP2gLkzBJ44HKtxSXcY4AaSKakZeBGaAraHo3HO/sT4KwqQAlX+tCWbWV2QZYcLcCDHuDAEiWWKVHyX33SNCUMOl91Rp9evWDdsQcc35sIh6GTmRFoDBrEa+uu/bFy5Uecj/A8J4b+J8mWwkNDsWP7dlg6dpWYh/cmghrKUdfp9wYOwLgxY9ClYwf0eLcbevXoge5du2Dh/PnYv28vLpw/D5erV7Bpw3p07tABK5YvgyYnp77SUmPmQQYk6PfpUVxVh0Oh+fjH3lj0PqmCZ3AcYuOTkZyagcysHDSstNS0UZwOPBRQ80+qGy8tP8Q8CPBAlZekZnGNmAd1LsIysjAr9BF+QbLVRvkOv757HV+nJir5Ds8z6JRtXzsLCPDQuc8YTJy1HEs/2oLRkxai93uTsH3vUb5Ot365FxNnLmNGghiEjVt34PgZJ8xauAbrNn+DwycuYsHyjViyaguiY+IZRCxbvRXjpi3BlzsPYsWaT9F94HgdeJixYDUGjJjOTTnJYAQKaL8aTS4SklJYNkWvV6z9FFu/3AMCKMfOXOZjGj5uLjZu3Q4n5xu45emLWYvW4sudBzhHg0DNpFnLsfWrfTh47Dxmf7AW6z/5BimpGbjqehPDx8/D5NkfYs93JzFp1jIMGzuHpU+v3Ul7jgNWwMNzGOuHNlXAww9ZSPlcscDP1wLk1FJ0i2huKglI9caz1BqkpGcgNikVm24l4P/I0b2QgsS8Ml21JKlqUn1StKii9ETWQS5xErKmqircu3cPY0aPhpGRCVc9smzXFXb9RnNyNDEDAjSItV3vYRgxchQ0avVznRQGD2VliI6IwLd798LSsTPsB1OX6pHcuZo6UI8YNgxHDh/BnTt34Of3ACdPnsSQwYPRrXNnbmw3eOAADOjbl5mS+XPncB8J+r+iXLVIiGQGQqZhFsChtu57PMwsR7uTSTD9ToWvPWMREZOAOMp3SM/iSku5skpLT2IeSLLEsiUCD3mF/Jzfe+ZSrVK1JZEoLZrEUX+Hzk/o7/B331u4oM5UmsM916hTNn7dLCDAQ6deozBy4gLMWrQGi1d+gqOnLiE9MxvJqenYsGU7eg6eiI3bdsDXLxD3/ILw8ae7MGLCPFy7cQd5+YX4Zs8RBgSXXTxw6Nh59B8+DQeOnGWG0eX6HQwaNVMHHsZPX4pu/cfpwAM5/L2HTGInn1gPYim+2HEAySnpSEvPRHpGFidcE3BYunoLolXxzJDc93+EiTOXY8uXUn7Gmo+/wvgZS+Hp84A/37B1B/oOmYK79/xx5oIz+g+fii92HORA0eGTF9C17/u44uLxup2y5zpeBTw8l7mevrECHp5uH+VTxQI/dwuQc0td4kvKKrQVl3KQmpGFxJQ0PIhKYl3+X/fEYtsDDXJLKlhvq8t74ATphuVYhVRJMA78ugF4qGcgKCn57JkzGDJoECzMTGFkaART8zZo07EH7AeMaQIi7AeORbv2HUClXoVT/iznR4AHSnSmfAZzcwuYWljDxMwCxkbGsLVug6+/+goajYZLzdbU1KCwsBDBwSG4fesWN6G7cuUyrrtdZ2CRkJDAQIplSYJxICCm7Rwtkh/pd8WSUlSNuTcz8bfdKky8FAO/UBWiVQmIT0pFSqZUaSmvQF5piRKjSxosOuYhv6ieddCCCcE+6Ku2JJgHynUQzIMcPGSqc3EwNhZ/8fHQm+/QI9gffoX5z2JqZRvFAq+tBQR46DFoAg4dP8+sQVJyGnd0pj8lwMP7Uz6QZD41NZyvtHrTl5xk7ffwMf/3Y6ecMHDEdBw5cRGbtu1Ej0HjcdPTl/sz0DYi54FkSxJ4GNsEPCQkpjKrMXj0LLjf8mlg08ehkRg9eREIIFDjX3r4B4ZI4OGLPfD08cPC5Zswf9kGHZvwzd4jzHg4u95ipoTAw5mL17jAhZu7F7r1H8ugosEP/cxeKODhBZ5QBTy8QGMqu1Is8JpZgMQ05PBWV9dyA8mCQqniEkXZklLSEJeYjAsB8Wh9IA5v74+Ha1whyoVESZvfIFgHARpoLYADy5S4VrmUCyG2pfcp6ZkWKokaq1KxhGnqlCncfI1AhImpOazadgaxDcQScKnW9ybC3NwSwSEhT0xM1HcKyIEvLytDfKwKp44fQ9dOnTFxwiQMGzKUE5/37tmDbLUa1bW13MtGgALqa0P/hxIUSUNMx0/vCZBAax3T8IQcB/rt4qpa7HmUi3/si0O7oypcexiN8KhYxMQlIkEkS+fkcxUlkSytj3kQVZZ07IOQLRGAeArzIEq1ysEDVVki1oGWqEw1VkSE4ZeN5EokX6LiGWsTVFA/Z5K6vvOgvKdY4FW2gAAPJFNydrvV5FAFeJjzwVqERcTw5/kFhcwMEJvg5uHFcwTlIfQaTPu4jWOnnTBgxDTsPXiSqyPduOWNwWNm6ZiHyXNXoEvfMcxs5OUXYODIaVrmIR1HT11kh5+qPVEFJWosl5Obj5CwKIydtphZEcqJKCkpZQaEmYcv9iA8MgZrP/6aJVe+D4IYmBDz0HPQRGYtzlyUmAfKr6C57bqHBB5On7/a5D//nN5QwMMLPJsKeHiBxlR2pVjgNbMAObbk/NbU1qGsopI7nGooaTpLjeS0dNbchqsSsc4jDn/ZpULbE0lIyCuXukc/JTm6AXjgZkhS+dYq7o4qgYbqamqWVL9QnfLEpCRcveqCCePGw7K1OYwMDGFkbArT1pYwa2MHS/sOzE44OV3mfgvPam4GD+XlSEyIx9lTJzF/7mx43r6NbZu3YGC/vrjm4syggIBBjQABsrWQJHHJVe374j05eODnWrZBHBv1dPBNK4XpoQQY7Vfh61tReBweg4joOKjik5GUmiElS+fVJ0sXFpc2qLhUz0BIydL/DniQKizVMw9y8HAjJQXdA+7rZR3e9PHAicw0tov4T8pascDP0QIMHhasYqmQy/XbTf4i5YJRjsP8pesRGRPHn9M1T9KluUvWc44B5TqMmDAfxEYkJqUyKFi86hMMHj0TMxd8hLFTP2CJ0LeHpGpLJE2iqP+UOSuwYNlG9B8+heVF1A+CAjgzF61Gn6GTMGXOh5i9aC127z+BtIwsUO5Fr8ETMGbKIuz89hhc3G5zDgO9Twnc7rfvcW7GtHkr8cGKTzin4csdB/izi1evo9+wqTjv5MrggUDPuwrz0OR8K288xQIKeHiKcZSPFAs0AwuQYy11nq9CYUmJlPeQrUFqegYSklM4Oh4UFY8h51R4a1cshl5OhbpYisJTJF4f4yC6p0odUqVOqix10rIN1VVVDYADyYRoITBBfROysrLg43MPK1esQNfOnWFmbAyjVgYwMjCAQYsWWLNqFSqeoxIc/UfaPikpCRfOnsGKZcsQFvwYhw8cwLD3BuPM6VMSoyBYBbGWSZJ0YEGWCM3vycAE/Q4t9BDPI3Mr0fF0Mv65R4X5V6PhHxzJrEOUKgFxiSlIScsEyYYIEBDbQMBBDh7qgYPU90HOPjxrwnQ985Cnky0RmKDu0hnqXOyNVeEtb3e94IFKdvsqkqVmMBMof5Hyv0LDY1gCRM5740d5RSVU8UnMOhALIB403xFb6+MXyOwD9YTQ5ORxPhnNA2pNDu76+oNYh9CIGK6YRBXWaN6lJpMPAkJA+RFx8UncT4IkSLRPAibEDJLUiViMu/ceIi09i/dLjesof4HyLCjvgXo+BIdGcXUmZn+rqlhS5XXPnyVWxFYQs0z7zMzSwD8gGFQcg17Tf33wMBgZmc+XSyb+/+uyVpiHF3imFPDwAo2p7EqxwGtoAbq51dZ+D3L0oJjXngAAIABJREFUS0rrO02nZWZx5ItulqTNv/M4FvaHVfjjDhWWe2Uz+yAHDnzDElWVSKpUSdIkbX6DVupEMqXqajlwkECDAA9iTSCivLwclBORnJyMkJBQeHl7w8PDA106dsSg/gNQWiJpfZ/F5PQf6bfTUtNw8dxZrFy+DI+DgnDt6hVMGj8Ou3bskHIdGsmWnggYGgEIYiQEWBDHw05DaQ1GOafjT7tjMeRMNO48DENwWBSzDixZSkrl/BJiAUS+gxw8UI6DlOcg5T7Q88asw39SqpXAQ0SmGgtCQ/RWWfqF13V8EBuJ7MpK8beUtWKBn7UFyKGneYican0PAhjEUNL1LX/Qa+oSTTIg+rzxgz6jYAt9v7qmRlfGlbaj11QKm36Tvkuv5Q/+vLJSByjoswa/VyMdD32X9i8etD+ag/mYauqPiX9H9h8bvxbf/7mtFfDwAs+oAh5eoDGVXSkWeA0tQLfAurrvUVUtmsVR3kM+0rOyWboUn5jM7EOkKh6X/GPxr72x7AzvCtLwzVAHGqh3A+cyaJkGHXCg10Kq1BA8CLCgby1JmoiNqOHvE5goKyvH/LlzYW9jjcysrCY38KeZn/aXlZGBS+fPY+Xy5Qj0fwBfHx8smr8A69asgVqt4Ru6yHegG6pgFnTPG4EGHbiQdYKlY6Abe35FDZZ5ZeNPu1WwPRSNa37hoETHkIgYhKsSoEogyVI60rXN4ai/gwAOgnnQBx7y8uulS8/KPEgJ01JzOHUO5TpIpVqps7RrcjIs/bz0sg7/6+OB/ekpqHdHnmZh5TPFAooFFAu8uhZQwMMLPDcKeHiBxlR2pVjgNbQAObpS5EnbLK6YpEv5rI1l6VJSCmvzY2ITER4Ti0PeMVwx6M2dKnwrAxDMQgjwwHkOEusgAQoJPEjMg5TnoA8w1L9XzdE/6bUUiaPoG712cnKCnbU1PD29+PWzmpwiihq1BpcvXcSqFR/Cz8cbwUFBWLf6I8yZNRMREeFSIrQ8CVprGwYPAkzoARBkQ1roQevy6lqs9tbgjztjYXkgBmfvRbAcISRcSpSOjk1AvJAsZdf3dxDgQSRN6wUPBXrAww8kTNdXW5LLlvKQnJ2DHTEx+DUlSuvp79Ar2F+RLD3rAFO2UyygWOCVtoACHl7g6VHAwws0prIrxQKvqQUk9oGaxVWiqLgUufkFoKg0sQ9JqWmIT0pBdGwiJwmGRKqww1OF325X4a2dKpwIz2MGQt4ATuQ6CCaCQIMADvUAQb9kqaZGBhyqa1BDC0sJJDlBWmoqOrZvh3Vr1z5z3gM59LW1tcjLy4PLFSesXrEc7jdu4JaHB+bOno0pkyYhKChIYhr0gIPG4IETp2XAQgAHOv0EHDb5avDW7ji02BeLQ3cj8PBRGB6FRIDAAyVKx8QnIZ7qtmdksZ2pUpK+fAcBHsS6Pt+B+jvImsTpAQ8EGARoEGup2pLEQGRp8uCTlo73Hj3QCxx+dfc6NiSqUNhIQvGaDnHlsBULKBZo5hZQwMMLHAAKeHiBxlR2pVjgNbYASZcqq2pQWlbBiXVUdYkS6pLTMpCYnIqYOCn3ITxahbDIGHx9Oxq/3UESpjjsDJQkTPISrFI+RFPGgeRDTwYQ4jMCCo0WbT4C6YbHjx2Ld7t04V4Mz2pycvCLCgtxw80Vo0cMh7WlBcyMjWBiaIBNGzdwt2idDEkACMFCyF5zeVY9OQ50HPTZck81frNdhXf2qXDIMwwBj0KZdaBcByrPGq1K5MZwJFlKy1QjW1uiVbAOYi1nH0TSNIEIAhAMIvKKkJun7fdQUPjEUq1yEEGSJSFbylDn4XBcHH5390aTjtJUorXlA09c1GQ9q3mV7RQLKBZQLPBKW0ABDy/w9Cjg4QUaU9mVYoHX2ALkXNfUyKVL1G06h6Pj1DCOZDYS+xCPsP/f3plAR3aWZzqeAAmQEDYTQ2YOSQATGBgTJ+xDBpIQljBgmJCJB0JMSAJhJ8YmrF4AsziA7W7b4N3Gsdtub7jdq3rR1q19l2qRSipVSbXv+6p+57z/f//S1drq7nKCVZ/O+c+tKlVd6b51u3Wfer/3+5xu9Sk6AeI3rvfgN6934ZqesJoBsewybD3fsBImbNCgXIeaChEyDKhWrYZbb70dr37lK+FwOLesOI8vl82i49hR/N1H/x8ufN0F+PSn/hmPPvoYEsmkKt1qwIOBhlNs7Y5DpbaEf2oL4hk/nsZv3ziNWw6PondgBAPD4yrrwC4rbO/o9nC2g19NlQ6GY8odWC/vQHjQsLA8KI73TWBazXUwA+LWcR44fdqAg3EemGUxQ+LGgmF8fGxoXdeB8HDx1AhmC4Ut6ytPFAVEAVHgl1kBgYcmvjsCD00UU3YlCjzFFWB5TqN0KZVWn4rrmQ/afeBcAnZeYukNL4ZZhvOjww4853rtQHy6LYhUoazat+quSrqz0ko42KhcyV6epEuU1OsMNNi2Ho8Xr331q3HjjusaWYONpOcFPkuWcvk8/PPz6D1xAl/6wpfwj5/4BMLh8NpSJQMMxm2o1xVYmIFw3J8dGvhzk8U63vuwH0//kUs5DvccHWmAgylXUq7DtG7POrsQwEIgrFql8iLfXrJkdx6Wy5UMQCznHRREbMF5oLMRjqdg2rUSHkLRJB73zuPcDSZK/1bnQVzrm1XabKSrPC4KiAKiwFNJAYGHJr5bAg9NFFN2JQo8xRXgBXKlakqXsohawWnW5nNgEbMPLF/iJ+jKfZh0YmjciTu7XHjpzdP4zevd+MCjC5iI5FGqMBh9OvCwynGoWvctaOD052q9phZbD37g/R9Qg+Q+cvHF2HHD9ejo6MTM9LSaEZFIJNXkarZ69Xp9GBkeRsexI3h49wO45ttX4l3vfCcu+djfYm5ubi082LIMdCKYbzBb6mPAgdtybQm9wTz+6J55POs6twpHP9o9hr7B0RXlSuNTbky5PKpHPF0H30IIi8GocgFWt2glPJiSJW5NyZLeWiVLSatcyZ572GTCtHYeCBC6y9JkIIIvjo+v6zpwovS7RvtxIp16ip/N8uuLAqKAKLCsgMDDshZnfUvg4awllB2IAttGAV4Qc9p0sVhGJpdHPMVwbRwB1bZVuw8zs/ON8PSEU7sPQ+NTeOC4A6+/w606DP3h3V7sm80gW9LwsHnOweY4NALSq0qVFDgsw0OtXsN9992PN/7xH+NV55+Pl/8eB8j9Lv7gFa/AhRdcgLe++c34s7f/Cf70f/0J3vbmN+KNF1yA177qVTj/Zb+P81/2MvzxhX+I737nO8jn8+vCAyGhsSx4oDZmESay5TpuH0/gxTd78BvXufGOu6dwsHtIOQ59tpxDIyQ9zazDPFgCthDUrgMv6lmytNp5MPCwmfOg2rQmbKHpU8KDLlkKRuN4bG4eL+lsWxcentVxAFfNTaO0QZ/7bXOyy4GIAqJASykg8NDEt1vgoYliyq5Egae4Arw4ZukS5zLkckUk0xkwOB0KR7EYCqm5BAxPq/Kl6TlMOqcb5UtDY1M42D+J//OACy/aOY3/+lMPLmsPwx0rIGdBxPrlS3bHoY6a3XGw2rM2XldfhgoGsj2zc9i1axe+9a1v4R/+/hL81Qc/iL98z3vx3ne9q7He99734kMXXYSPfeQj+MJnP4d/++G1OHHiuBpC18g42N0GOzjw9ip4KFSXMBkt4eI9i3juDW6ct9OFTz0yga5eCxwGR1VAWs10sFqzcpo0h+1p1yGoZjuEY4nGVOmtwsNy5iGNOMEhwa5LGb02gIfVrgOzDv88PrwuONB14ETpI4nYU/xMll9fFBAFRIGVCgg8rNTjrO4JPJyVfPJiUWBbKWBatrJ0qVAoIZ1lQDdlZR/C8C0G1CfnDE9zQrLOP2iAYDchXjB3DE7im/ud+P2bXXjeDdN4230+/GI6jXCubJUymY5KNsfB3lnJlm1oQEOtpqausnRJB6f1JFY1UdW62K8t6cmtxVIZ+UJBuQp0FoqlEiqc6GqVHBGOlKtgQUEDIEzWwfp+43HredX6EkL5Ku4cT+I1d8zhudezTMmJ6w+OorNvWDsOFjiYnEOjXGlmDjNzfqWdPxBCMBJDJJ5SXZOMy2CyDvayJcKCvWxJ31/OPajp0luEB7ZpXYzEcf/crM46cLbDqvXMjgP44vQUctKedVv9u5aDEQVEAUDgoYlngcBDE8WUXYkC20ABXbpUBy/ClfuQstyHiHYf2LqVn6DPzOnyJYfLgwnLgdAAMYnekUnc2eHAn97jwgtucOHFN8/gk4eCGAzmkSxUVK6iagcG++1GiRLLlAwscFCcXgYeFADU6xoEuLUWIYKrUXZku62AwEDCVuCBr1XTouvoXMjjbx5fxPN3TONFO5y46N5JPNY5hOP9w+gZGFE5h8GRCTXPgToQHBgsZ4eq6Vkv5uYX4FuwXIdoArzwN46D2RqA4H2WM60HD8ZpMNOlGwBxCuchFEliIhjGR0cHN3QdLhzoxqOx8DY4i+UQRAFRQBRYqYDAw0o9zuqewMNZyScvFgW2nQK8wOaFOGc2qJkPNveB5Uv85JzhaQKE7r40hwZAOFwYHp8CS5j6h8dxuG8C39rnwGtvdeGFN7hx/m1z+GpnFH2BAsK5KkqVGqpmCJwBBZvLoEPSZsK0AQkbGFjwoIHC+r6ChzpqSxZYbOAkrB78tsJpYHC8voRgrooOfx7/eCiIl9zswbk3uPCGO5y4dt8oOnqHcLxvCL1WONq0ZCU4sBMVwYHlStOeeRU0n7M6LNldBzssmNvcanDQWYj1nIdEMqvgwwCEAopV8MByJV2yxKxDCv5IAj+f9eBZ7fvWOA50IJ7VsR9fnnEgK67Dtvs3LQckCogC4jw09RwQeGiqnLIzUWBbKMALa37Sr9yHvC37YIWnVfnSvB+zXp+Vf5iFwzWDCYdbXTjzAnpwbAoDIxPoG57Ag90T+NhuB17xMzeed4Mb//3OOXy9M4LuhRwWMmUUCBB0HOwZB5Vv0N2V+Lh2ITQ4qHIl4zZYToNxHPRWw4MChNUOg7m/2oGw9sNMgy9TwVFfDv98KIiX/syDF+5w41U/c+Izj05ib/cQunsHldtAx4GQtBE4uGe8aj7GnH8R84shBEJRcLIzswrJTA7pXAGEhfWcBz6mHYjl0qX1ypYaALEpPCTRtxjEOwePb+I6dOGgZB22xb9fOQhRQBRYq4A4D2s1OeNHBB7OWDp5oSiwbRU4aV1Il8pVFAtlK/uQRoTh6UhMhacJEHQfPHPzKgzMT9kZoB63AQQdiMHRSQURPUMTuKdjCh/b7cJrbtHlTLww//j+IB5wpFRJUyBbRtECCXZUWl50FZaWS5MMOFjOA0uUGvBgORh8bIWbsBoaLEeCryvWlrCQraInUMAd40lc9Kgf5904jRfvdOHC25345MMT2N0xgu6+YeU2nOgfVmVKhAaWKplwtHEc2JaVLW3ZXWl2fgHeRbZmjai5Dgygsz0roSFzCnjYatmSKl3aBB7mI3F81+kAA9Grcw68/9yug7h0ZgrFen3bntNyYKKAKNDaCgg8NPH9F3hoopiyK1Fgmyhgui5VKnXVtjVH9yHDoK4OT5vuS/P+gHIfCBC8WHZOa4DQDoRTDZEbHnM0AIKf0p8YnMCd7ZO45CEn/uh2F35npwsv2DGNN93rxRVdYRWuHgwV4E1XkC7VUGYewkCCHRrMbRsE2MuXNoIHPs59Jks1zCRL6FnM40FXGl84EsKr75hVzshLb3LiTXc48LlHJ7GrfRidvYM40T+07DYMjSm3gc6KCUfbwcE548U0wcHrVx2qOBCO06Q5Z4EX+nQUCA52eDBOg3EijOtgB4iNnIfNypaC0QQO+xfwu92H1wWHX23fh7eP9KArldgmZ68chiggCogCaxUQeFiryRk/IvBwxtLJC0WBbauAmmcAqNBxuVJDvlhGNp9HMpVWrVs5tZiTp9XwOP9iI0DNdqQECH7yzonKDA1zzgHLmHiRzYttAkTfECFiHI90j+Mrexx4xz0uvOoWF87dQZCYwR/93ItPt4Vw+1gSh7w59AULcMZLWMxWkCrVkC9XUa7WULHAwg4NuvSJYWsNCblKHfFiFf5sFVPxMnqDBeybzeLG4Tg+umcBr7p9Fs/f4cZLbnTjNbc48K57JvHtvaN4omsY3b26RIlOgwlF91szHHg8Q+MOjE66GuFo4zhMe7zwEBx8i/AtBrEYiiAUjSOW0HMdCAiqZMnmPGwVHtYNTFuuQ5zh9kQKsbhu48rMw1QogktGN27Nem53G67xecC/BfIlCogCosB2VUDgoYnvrMBDE8WUXYkC20wBlX2o1sHypXy+iJTlPqjypWhclS8tBIKYtwCCLVwJEGzjygvpKac9B+FU5T2qjMkCCOYhCBLt/WO4p2MSn390Cn95rxOvv92Jl//UhRfumMa5O2fwytvm8J6H/PhMWwA/6I3ilpEE7nOk8LA7jT0zGezzZHBgNosDsxns9WSwx5PFw+4M7nWkcNNIElcfj+AfDwTwjl3zeNmts3jhzhm8aIcb5//UiTfdPoUP3jeJf318HPcfG8axEwMq06CAgdBglSgRGuxlSgQiAw4EJR4vOyuxVImTuOcMOFjlSnQd4sk00pbrsBoeFFAQKmwTpu2uA4PTvL8ePGxUthSMJXGd24VnbFCu9Gvt+/H+8QHMlQrb7MyVwxEFRAFRYKUCAg8r9TirewIPZyWfvFgU2LYKKPfB6ry0onwpzaFkelpxKKzzDwQIbwMgdAaCDgS7MLHrkGrl6tDTqHnRzYwAswJ0IYwTQYjgZObO/jE80DmB7x6Ywt895MR77nXhLXe6cMFtbrzspy6ct9ONF9zgxvN2zOCFO6dx3k0z+J2bPSrYzAwFb//2jTMKOp6/Ywbn7pjGS2504eU3O/G6W6bw1jum8L57HfiHh6Zw7YFxPNI5jPaeQSvLoDsoERh6rfarhAYDDvy97fkGQgMX8x4utmRlZ6V5Pc9hfiGIFeVKDEmns8gw62DlHbZStrS629JW4SEcT6F9YRHnHz+6YUj6lb3tuDPo37bnsByYKCAKiAJGAYEHo0QTtgIPTRBRdiEKbGMF6D7UamzdWkOhWEI6l1PlS7FEUg2PY/4hEArBbwEEJ1BzBgRnG6hBctPahTAQMU6ImNSlTLwQN+VMuqRJOxEaJMbROzSOjv5xPNEzgbvaJ/GDg5O49HF94f+RBx346wecuOh+J95/nxPv59ZaH7zfib/e5cDf7nbiUw878JXHJ/FvBydwz9Fh7OseQqfVZvVE3xC4CAurgYEug3Ea+DvaocHMcKDboMCBQ+Asx2HWHwBnYfgDYdVdKRxNqJapKiRN18FyF7aSeTC5BwMQdueBEMGuTXbXwV62NBGK4END/RuCw291HsS/zDiQrla38dkrhyYKiAKigFZA4KGJZ4LAQxPFlF2JAttQAdXutNG6tYJ8UZcvqfwDASIaRygcUSVMnAHBEqY534Iq3WFoWOcg5tRFNi+22ZGp4UTYIUK5ESYXsZyNIEj0Do2hT5U6jakyJ85W6BkcR7e1jvWPw766+PjAuHqOev2Aziwwt2Bfxl3os2Y1GIfBDHsz0EC3hIFoQgOdBoKQKVNyz+ghcOw8xeNW4LC4Ehx4oU8QIDhkc7rL0lbhwYDD6rKlzeAhGE/iCscUnr5BudLT2/fhrUMnMJhNb8MzVg5JFBAFRIG1Cgg8rNXkjB8ReDhj6eSFokBLKLCifKm63H2J+YdGgNoCiEAorIbI+RYC8Po4B4IuhJ4FobsxaYhQLoTDrdu6NsqZmInQJU1s8coLd17Em5C1KXEyW+NObLTtH57AwPAEBlWugtChy48MIBhnwb410GDKkzaCBroNzDdwjgOPjxkHlm2xVMkXCGFRzXOIK8fBDg4EhtOFh5W5B3a8YtnYqmULTEcSKeye9+LczoMbug4vPXEUOxa9WDq51BLnsBykKCAKiAICD008BwQemiim7EoU2KYKmNat7GrE8qUiuy/lCo0ANWcXKAciEgMBYjEQggII/wJYxsQgtXYh2NLVuBAz2oUgREy51Cf7/HSf3ZlMhyZzEa/KmxRQ6LkRZnYEwWKjxecQRkbYKnZkorEIJQZM1oMFFYSecDachtUlShoarHyD16/nOPgX4VsIqlIlBQ6RuJqJwZKiRs7Bas2azRcbbVpPlXlYXbaUSC3DgypZSqQ1SFjwwJ93dDGAC3raNwCHfXh+Vxs+655ESsqVtum/VjksUUAUWE8BgYf1VDnDxwQezlA4eZko0EIK2N0HTp5Ww+MsgEhm+Cl4ymrhmlBD5IIsYwqGwEFy8wuL8PoW1DwInYVgKdO8ChjzE3yH24MplwEJ3d6VMKGAYkrnIzRMMCfhVDAwzND1KdaIBSF2ADG3CQhcvG+HhdWlSXRIuBj8JjQQfFiGpYa/eXWZkmnHynC0aslKcOA8h0QaiXRWdU8iaHEp52EDeNio25LdebBnHggKZjHrwDUZjuD9Q33rggOHwT2jfT/+YrQfw1Ku1EL/euVQRQFRgAoIPDTxPBB4aKKYsitRYBsrsB5AFAolZBigVh2YzAyIBELRGHSQOowFCyK8dCFYymQ5EbwAVxAx41Ug4VQgoWdEMBehsxHMGOhFB0AvDRYaMLRrYUBjzHIwlr/nVg6CcTPMlpBgQMHkGEznJJNnIDCsgYY5H2aU2+AHB+Qx3+BbDDW6KoXs4KCmSOcUNCh4IDTkizgd58EODutmHmwA4Y0l8OnxEfyXDXIOHAZ3fl87HouFt/FZKocmCogCosD6Cgg8rK/LGT0q8HBGssmLRIGWVYAB6nq9jirzD6UKcnldx88J1AkOkUskVckOh6KFIjHQhSBAsBsTL7Y1RCyXM9GN0CDB7kymQxMdCe1K0JmwuxPLYKGD16vvKwiw4IOOBu+vBgQTejbOguma1AAGq/UqnQYOfGt0UqKD4ucxBOBf5DGFsBCMIBCOgl2VVjoOOTVYj9O5CQwKGszWciFOt2xpI+dhMZbAlc5J/Fb7/nWnSJ9zbC9e1N2G78zPoLwkOYeW/ccrBy4KtLACAg9NfPMFHpoopuxKFNjmCnAGsck/ECB0/qGiBsjRgWCImgDBMiYOkgvH6ELEFUAwC6EgYtFAhO7KxEzErNcHDyHCAgnTpcnAhGn5ytkRZmm4MJCxeqtbqLLUSHd40t2ReNssFXq23A69zznlgDAEzcXfgVkNhr7pluhAtNWG1XIbWKYUsMLRChySaTCXkMoSHAoKrAgPBiCU82CBgylTWj1Z2j4kbnXmYT14CMfT2DkzjfO6DuGco0+sgQeCwzM79uMSxxgC5fI2P0Pl8EQBUUAUWF8BgYf1dTmjRwUezkg2eZEo0NIKGIDg/IdKtY5yuaovkHMFNUG5UcZkuRAmTN0oZQpoJ4KZCDoRzESwzakCiQZM+FQnIztQ8ILegAWzBxst9RxCgGdegYDKKzCzYFsGErgPugt8jXIYrO5JqvXq/MIaaNBuQ1i5DaFwfNlxIDiks6olK90YvTQ4LMPDcvZhPdeBsGCHis3Klph3iCTSuMXjwfnHj+Gco3vXzTo8o30f3jHSg/FctqXPWTl4UUAUaG0FBB6a+P4LPDRRTNmVKNBCCpj5DwogKrqEKc+yHAIEcxAMUqfSiCV0mFo5EaqUiU4EB8vRiWCHogB8gQDmFUgsqot1wsQKoPDSAbC5EzaXQsGFuW+2Xp8CAQMECg48Gg7YWnVmlmCiQYRbtlrlIjAoaODPV61X1zoNym0IR5WjQrchGk+pcDS7KvHiP5fLI18oIlcoIl8oqdUseLB3WyI43Of14nU9HXjasX1rHAcGpJl/eE1/B/Ynoi10ZsqhigKigCiwVgGBh7WanPEjAg9nLJ28UBRoaQVMgNpMoKYDwS5M+WJJferOgWi67IbdmJiFsCAiltSlTCoPoSFiMcTsgHYjmI3wWaVNqlOTX3drsjsTdofCXPCv2FpOBsuO1FoFB43nWiVJat8GGBiE9gd061VTnsRcQyiKIH/nSEyDQ1x3VOLMBYJDOrsMDhoeNDgQIJbhYeuB6dWugx4Wp1u1spPTz+dm8Ya+TjyNAekNypXOO96G3dEg6idZcCZfooAoIAq0rgICD0187wUemiim7EoUaEEFTAmTClGzjWupquZA0IXIsb5fQUQWCdWRKdUIVDfyEBZEMFgdDHEyc0i1eV1gGDlAZ0KvZaAIYM4fwNjsAjqdC3h0xIefD86rdd+QD3vG/Oh2+uHwBjA7T/CwFiHEvnw6c2EcBs5p4M9oBKHZetUGDeykpEPRCdWWlkCk8g1qcnROAROPueE2WK5DAx5Mq1ZbWHq90iV75mE1QPB+LJnBrvk5vKmvE8+g47AOONB1eG7nIdyw4EWxXm/Bs1IOWRQQBUSBlQoIPKzU46zuCTyclXzyYlGg5RUwDoSBCM6BqFRqKBTL+kLalDJldSlTIq0D1RwsF4mzQ1FCXZTz4pzdmZiLYFmTXvzEn/mCCDwLYRxwBHFNlx+XHvTh8jYfvte1iJ39Qdw8FMatQyHcNBjC9X18ziIuP+zHl9v8+PHxBRx2BjHtCyo3QUECQcEGC5zRoOY0WLAQCNIR4e8QQwMa4knlnvBTf+02MJ+QQzabRz5fQIFlSiocTaehhNxZwIMBiNXwEE1lcbd3Dm/r79oUHJ7WvhdXzU3LILiW/9cpAogCooBRQODBKNGErcBDE0SUXYgCooDuwnTyJJaWToI5iGpVT6LmNOoVLoQdIlIpxDhgLsHsgG7x2oCJaALhWBzj/ih29gbwmQN+fLs7jLvHYnjclcTh2TQGFjJwhLOYjecxF8/DE8tjKpxD/0IGbZ4UHnMlcdtIDN/qCOJzB/y4bSCAqXk9l4GuAvMLJsNAUDBLg4xxGnSuQTsNGZvbkNf5hnxRgQPhQUEDwWGr8JDNq4A5y7vMWh2YNgARTmRww8wMXtfiE9fVAAAcE0lEQVTTfgpw2IfLPFOIywRp+VcpCogCokBDAYGHhhRnf0Pg4ew1lD2IAqKAbuFqXAiTgyBAlMo1VcrEgXL6k3mGqvPqU3u2dmWwmm6EafFKkGDIejacwE0DIXzp8CKu6wvjF64kBhczCKUK+lN9lgg1LtxL4P4LRa4iisWius1P/xeSBQws5vCIM4kf9oRxadsi7hsJYjYQVR2TTIaBZVQsSzLzGhiENmFoTm/WgWgzMXrZbSgW9M/iz7bDgylfMmVLLFHiMpOm1X3Cg5UNsW/NbYIDVyCRwk9m3Hj1iWN4+ialSk9r34fPuSexWC7JKSkKiAKigChgU0DgwSbG2d4UeDhbBeX1ooAoYBRQcyBssyCWIcKaCVGqWBf1poWpHjDH8p9UliChsxHHPDF8oz2I758IK5fBHckinVsHFgolFAkMDXDQAMHHSqWy+h63XJl8CY5IDo86k7iyM4SrO4MYmI+pWRTsmsRuUBoWUirgnUjRZTDQkFPZDXZSYgtWlinxZ6ifrYBF/9x8noC0ifOwyZA44zgYcNBh8yzm4ilc5XLglSeObhiONp2V/t45Dl+paN4O2YoCooAoIApYCgg8NPFUEHhoopiyK1FAFIAZJGd3IRimZikTh8opJ6JcVZmIhhuR03MR4pk87h2P48vHgvj3yTjckZyCBnYrosvAC3O+xly427faddDfM8Cw3jZTKGEynMOtI3FcdiSAXziiKoTMsiTtMGTUsDu6IumMzjSYuQ38GQoYCnQ3jNOxvN0UHvJF5TwYB8JsDSyshgc6HSORKD4/OYYXdx1SbVc3Ckcz4/Bp9wTmBBzkX6AoIAqIAusqIPCwrixn9qDAw5npJq8SBUSBUytgQIIORL2+pABC5SEaIKE7MzEXkcwWcdNgFF9vD+KQJ41gMq9KfDQ06C5GymGwwYMdGBogYTkNBAfzGG+XyxXlQCigqFQQzBTxoCOJr3aE8Igjjnha5w7ogmQYhLa5DKoUqrTsZpj9MhSul4YK5TqwNastLL26bMlAg9muBw/JTA7twRD+7+gAXtB5cMMBcHQcWKr0KYJDsaDA7dTvijxDFBAFRIHWU0DgoYnvucBDE8WUXYkCosAaBYwDYbox0YUwi5mIarWOVKGCG4fiuKIzjB5fGsksS4PY6tWUKlmlSSxPMqVKtk/+zcW8cRqKBAcbRBAc1CpZ20oFpXIZqUIZR71ZfKU9hPsnEkirn1tQQ94YgOZ+FYSUS+r5fA0fUw6EgpPl+3zMXrJkBwg152FVi9bV8GAC05FUBnfNs6NSN57Zvn/d4W+EBq5f69iPr825MF8qqMD6GvHlAVFAFBAFRAGlgMBDE08EgYcmiim7EgVEgQ0VsEOEuU2IKFWquGciiSu7wujzZ5DKFtR8CJ0tWC5VMiVByn2wLuA5kI4X7QoaWFJkQYPZ8mK/AQ4GILit6FWpVpEtVbDfk8Y3uiI4NJtSnZOKdBms13JrFvel9q3KlwgOBh50aFq7DNp5WAMPLFvaJPNAePDEk7jG7cQrjh/ZtKMSweHZHQdxlXcagXIJSzIEbsPzTr4hCogCogAVEHho4nkg8NBEMWVXooAosGUFlBNx8iSO+fO4sjuCgx46DtppaGQc2MlIrZXOg/qU38of8AJeuQMNJ4CuA0FiGQAMQDQgwIIHBRHVCjLFCna7UvhuTxRDwVwDLtT37dDRgAcDDnrL30c7D8U1JUumbKnRZSmbV+Fru/PAMqWecASXjA3jRafINzD38LyuQ7je70WwXJZSpS2fcfJEUUAUaGUFBB6a+O4LPDRRTNmVKCAKbFkBwsNsuozv98dx70QCCVUyxNIfXbLEi24NDgSI5XIlUzbEi3VTVkR4sGcPlBPBsiXjPLBMySpVsrsO5WoVZqWLFfx4IIYdgzGEsyXQlTDPbWyt3IR2HMzP5LaEfNECn1V5BwMPBhbMNp0rqDatwVQGt8zN4sLeDvx6+75Ny5ToOPx+zzHcFw4gW69JqdKWzzZ5oiggCrS6AgIPTTwDBB6aKKbsShQQBbasQHVpCT8bS+OaE1EsJnW3JeM4GLdhvVIlPcNB5xEMPJiLeeNCEB6M26C2FjwYCCAYmFWuVlCp6jKmmXgR3+qOYs90GiVT3mTLSeiyJQ0t/Fn2wLSBB/U7rwIIHpeCBlvZUiqbx2Akis9MjuHczkP4VeYYjj6xITycc2wv3jp8Am2JGAr1+pZ1lieKAqKAKCAKSNlSU88BgYemyik7EwVEgS0q0Bcu4gf9MbR709bsBP3JvR78psPHvBA3roMpDSI8EBoMOKiSJZYuWeVLChZ4wW+/6LeVKRloWN5WUKnoVa3V8IvpDH7UF4UjWkC5QgixQIT7oPNgK5cy+Qf9u5nfvwS6DfZlhwdCxEIqg5/OefDy40fwdCv8bELQ623ZUeljjlG4C3ksbVFfeZooIAqIAqLAsgLiPCxrcda3BB7OWkLZgSggCpymAsXaEn42nsKP+6M6IL1iWjS7LBWQTKYRi6eQSOoVT3CbXl6ptHoOH0vythrollnepjngTS89s4FzG5ZXLp9XYEDXoVqt6lWvI1Ws4SsdETzoTKFAcCBAGPhYAQ/L8x3YytU4D2bK9Gp4YOYhkc2jPRTCuwd78Oz2/TiHTsMmbgNB4rldh/D9eY8KRrP1rXyJAqKAKCAKnL4CAg+nr9mGrxB42FAa+YYoIAo8SQoMh4u4biCKTm9af0JvGwCXzebxkxvvwEUXfxLvuuiSpqx3X3QJ7Iv7/ZtLPo+Hf3FAAQThoVargc4D51DscqawcyiGubgGjNXwYNwH44asyDxYE6bt8MAuS6OxGD49OarmNjRKlDYBB5YpXTDQiV3hAHI1yTc8Saei7FYUEAVaRAGBhya+0QIPTRRTdiUKiAKnVGDpJHD3ZAZXdkdVd6WCvTSpUEIsnsAXL78ab3rHh/DGJ3G95c8/jB/vvEOVPxEcalVr1eqI5iv4ZlcUx+Yzy9mJ1WVLpi2sateqQ9MssTLOA0uV6Da4kylc7pzAczr2n9JlMCVLv96xHx93jmGmkD+lnvIEUUAUEAVEgVMrIPBwao22/AyBhy1LJU8UBUSBJiiQLNVwy0gcPxuOqTkJjUyD1VGJ94dGJ3D7PQ/iupvuxHU33qHW9TfegetvunPNuuHmu3Ema9fuPfD6FlS5kgKHWr0BEHQgvtsTwyPuFNKFkgaIdeChsKLLUxkEoXyhqDIcnmQK33A7cG7nwS1DwznH9uFlve24LeBHtlZrgtqyC1FAFBAFRAEqIPDQxPNA4KGJYsquRAFRYFMF2J51JFzE9QNxnPBnrZIlHY5WEGGmN9u2DCWrULT1Sb9pw6qC0WYGg8kk2LdWG9blYLTONSiXQZUncbq19ZhyHeqqZKlWr6Naq2P/bEZBzmy8uAwPleUhcQxom25LLFHKFIqIZvPoi0bx2alxPKfjgIaGTUqT6DSwPIllTM/vPoSPO8Ywms1IC9ZNzyL5piggCogCp6+AwMPpa7bhKwQeNpRGviEKiAJNV+AkDs3n8YOeKEIpznNYBgd2T1ITo81gOAMQBh6s8qCN4GHNALgGPOhWrIQIOzg0ypQIDnQduOp6ER5mk2VVWtW7kNMdl9SciJXdljhFOpUvIpjJYm8giA+O9OPZnNVwCmAw0PBf2vfh19v34/WD3bgzuCAtWJt+vskORQFRQBTQCgg8NPFMEHhoopiyK1FAFNhUgaWTJ/HIdBZXd0eQXQUOOnSsy34458HeilW3Y13ZnrXhPFhug4EHQoIZ/KZcB9OG1eqqVKtVUSNImIyDgQcLHAxAZMs1fOloBIfnMnrYHOGBZUqFErKFImK5AsbiSVzrmcZre9r1fIYtQgPdhqe378NLe47hi9NTmCsWNtVNvikKiAKigChwdgoIPJydfiteLfCwQg65IwqIAk+SAixZqtRP4iFXBj/qjaJomxpt71qkblu5gVwuD7OyuTy49ARquhbWKhRUzoBZAzVcrlgEW6cuD5PT90slAx8l8Dbho6rAodZwHAw41OpLqNTq+PzhEPZ50siVykgUi/DnshhMxHCz14N3DfXguVssTTJOA6Hh1zr247+dOIKLp0bQk0mBQCVfooAoIAqIAk+uAgIPTdR3M3i4cKALQ9kMguWSLNFAzgE5B87qHAiUipjJFnDLZAI3DsU1PFilScZ1MMPfGGTuHxrD8d4hHO8d1tse3tbrRN8wTvQOQ215u29ErR5u+4fR01gj6OkfQS/XANdoY41OOBGNJVR7VpYpqTat9TrqXEtLqNbruPRYCHc4ouiMxnDDnAf/e7hXtVptzGc4DafhGe37cF73Ybx7tB+Px6IoL8m4tyb+KZNdiQKigCiwqQICD5vKc3rf3Age+EnZszsP4DV9HfjD/k5ZooGcA3IOnN05MNCF/9HbjbccHsVtowlVlmRcBlOmRHjIZHL45rd/jP/5F3+NN7z9g3jDOz607jqdNq5vePuHYF987Z+976OqoxNnODTgoVZrwAMh4rL2MF5+sFflElSOYQuwwP877U7DMzv24/d6juFDE0PYHQ1JruH0/kTJs0UBUUAUaIoCAg9NkVHvZDN4MH8EZasvBkQH0UHOgbM8B9r24nef6FkBD6bcyLgOqXQG3/vRzfjA33wS7/urT+B9H/6HJ2V9+G8/i5/vegylckWVLdFtUK6DLftwaXsYz93ThV85svXjZmkSg9DP7jiAl/cSGgbxUCSEYr3exP+5ZVeigCggCogCp6OAwMPpqHWK5wo8bP2iQC4cRSs5B87yHDi8Fy95ogc7BzjjoQQ6DwYauFXB6FIZPn8AHd192H+oXa+2dhxYszpwoG3tOni4AwcPd+p1pAMHj3SqdehIJ+yrb2AUiWRag4MNGGpLS40MxOePhvCcPZ34laOnPm7VcrV9H57fdUg5tn/nGEVbIoqqlCed4q+QfFsUEAVEgSdfAYGHJmos8HDqiwK5YBSN5Bxo0jlw+Ak8/7EuXHMirMLNdnDgPAf7IkiUS5XlCc8bzHSoVKrgKlcrqDQ6K1VRrZnFeQ5merRuy6rLlNiWda3bQHjQmYcl/P3BIJ65p2NDeDAuw290HMAf9LXjnaN9uGbeI5Ohm/g3SnYlCogCokAzFBB4aIaK1j4EHpp0UWTVOctFpugp58Am58DhPXjmw8dweWcA2YLlOhho4BwHa6YDwYHlRGvgwT4Ejt9XsEB4qNjgwbRitbZqcjSnRy/PcCA8sLOSKlVaVa5kHsuUa7horxdP23MUv3LsCd2K1RrqpsqSOg/g93qO4q1Dx/EJxzj2xiPI16Q0qYl/nmRXooAoIAo0TQGBh6ZJCQg8bHKhI0DQuGCSC2I5T5pyDhzZg199tA0fPzyLxVShUabUcCBs8KDmOBjnwQ4N1u3G5OgKp0Qb10G7EHqOA+HBggZrCNwKx4HlSbYSpUabVst5cCfL+JO9Tpyzr01NgeZchhd0HcIFA11491g/PuuexK5wAJFyWSZCN/FvkuxKFBAFRIEnQwGBhyaqWj95Eu8Z68ebh07IEg3kHJBz4Mk9Bwa78fqjvfjY4Vl0+zLLZUpW9kE7DmU12yEWTyIcjTdWJBqHWrEEIrH4ihXl/WhctV7l69ZdiSRiiZRa8WQK6UxODZNbDQ10HpaWlvALTxZvPDiGl3d24m3DJ/BXk0P46qwLT8QiCJUrkOkMTfxDJLsSBUQBUeBJVkDgockCj2Wzap4DZzrIEg3kHJBz4Ek7BzIpHAvG8J3eIG4ZiVuB6bLlQOjANNu2cp7D3f/+MG65c9faddcDax+znnfrXQ/g1rse1OvuB3GbWXfZbluP3f/QHjhcM6ixPasFDBzYxsWQ8zV9cfxT7wzuWFzAZC6LfL0mDkOT//bI7kQBUUAU+I9SQODhP0pp+TmigCggCjRRAV6YF8sV3DMWxbe7wwilOQm6hGJJgwOdh3Qmi3+94od4y59/WM15OJ15Dqfz3Le/52L89I77wPInBQ8WOPB39KYruKI7iuMLeQGGJr7/sitRQBQQBf6zFBB4+M9SXn6uKCAKiAJnocDJkydVZ6RubwLfOx7C0TmWLlngUNbdlfL5An6+61Fc+rXv4nOXXWmtq/C5y67C5097XY3PX7Z2feHyq/G1K6/F4WPHVXDaOA4s42QO4j5HGjf0R+BLlgQezuL9lpeKAqKAKPDLooDAwy/LOyG/hyggCogCp6kA26aGkhnc1BfEdf1RRDLFNe1YU5kM/IsBzM37rOXH3Ly1fNz6MOfzw6vWAry+9dYi5v16+fyLWLkCCEdjqqOTHRwID4FsFd/qimD3RBTFcvU0j06eLgqIAqKAKPDLqIDAwy/juyK/kyggCogCW1CAGYNUJos2ZwhXdARwYDatgtOqu9Kqrkqqo5I1x0HNcrDmOLA1a7XKLktVlVnQcxxMZyXOctDzHDjHwT7LwbRhXV2mRGjQrsNJ7HZl8MPuIEYXkqhUa1s4InmKKCAKiAKiwC+7AgIPv+zvkPx+ooAoIApsoEC9Xkc2l4c3GMFPuny45ngI3mRRuQClVfBQrlZR5gC4FdCgwaFW0+BQs89xqNVRrdWg5zjoYW8KGDjTwTbXwbgNZktwWFo6icloCVd0BPHQaADxVFbta4PDkIdFAVFAFBAFnkIKCDw8hd4s+VVFAVFAFLArUK8vIV8oIhyLo9PhwxWHvfj5eAKxXBkGHug4aGjQWzM5ulI14GDcBcthUEPfaqjVl+/bXQYFDpvAA7MYkXwNP+qL4trOeUzNhxTg8HXyJQqIAqKAKPDUV0Dg4an/HsoRiAKiQIsqwE/4OUmasxa8/gB2D8zhK20+7J1OIVssK5dBOQ5lPfCtMQzOVqaky5JqegjcmgFwK12GFRBhDYAzjoPZZit13O9I4RuH59E24UMoElOAw+/LlyggCogCosBTXwGBh6f+eyhHIAqIAi2qAK/HmSVg7mEhEIJjZh63dntwWZsfR71Z5DhVulpRzgNzDpwevZxv4NRoLuM81FW3JOU40HVQGQfrMWuC9ArXwdaOlYPguPKVJex2Z3B52zweGZzFrG8RsWRKQQwdCfkSBUQBUUAUeOorIPDw1H8P5QhEAVGghRVgTiGXLyAUiapOScOOWezsmMFlbQtom0sjW6rAlCoZeNAZBwscFDzUofIOdeYcNDAQFBoTo3mbToMt76CcBjMQbmkJqVINj7jTuKzNh7tPzCiQIdBw+jT3LV+igCggCogC20MBgYft8T7KUYgCokCLKsBP/Fm6FI0n4V8MYtrjRd/EDK4/6sZlh3x4zJ1SGQjTVUmBg3Ec1rgOBAbdVWkFONgzDgQG4zpY8BDOV3HXRBKXH5rH3cenMeaahde/qFq45gpFMJshX6KAKCAKiALbQwGBh+3xPspRiAKiQAsrwNIlfsIfDEfUDAfXzBwGJty4u8uFS/fP4XsnwnDFiqp8SbdiZcZhORDdAIVaTU2IVq4DW7Ra5UrKdbBasNrBoVxbQm+ggKu6w/jmIQ8e7HFh3OmBZ86HhWAYiVRGzZ2QkqUWPjnl0EUBUWDbKSDwsO3eUjkgUUAUaDUFWBbErkvRRBL+QFBdvDvcHoxOurHruBPfbZvGv7Qt4q7xBHypEiqVlTkHlipx1W3woEqUrFD0ilkOS0uo1OpwJ8q4cTiBL7f58IPDLuztd2LCOQO3x6sGyoWjcdVlSUqWWu1slOMVBUSB7a6AwMN2f4fl+EQBUWDbK0A3gIFoug/sbuRbCGB61guHy4PxKTc6hx24vcOBbx+exmcPLOAHPVEMBvPIVTjHgeHo5ZwDQUHdt4ODemwJyWIVnf48vn0ihi8c8OH7h924r2sKx0ccmHC44fbMYc63gEAoglQ6q6dOL0nJ0rY/AeUARQFRoKUUEHhoqbdbDlYUEAW2owLsY6RnPpQQT6TUxbvXt6ABwu1RF/ZD4w4c7J/Cbe1TuPaIG19tm8dnDi3iyuMRPOBMYyCUVwPmgtkyQtkKAtkyPMkyegJ53DWRwte7IvjcoUV8rW0OPznqxt0dUzg2OIXRCScmndNwTs9hdt6vypWYv8jlSyooLSVL2/GMk2MSBUSBVlZA4KGV3305dlFAFNg2CvAine5DJptX4enFYAhe/wJmZufhnJ5VADE26cLg6CTaByexq2sSNx6dwnXHXPjBUQ+uOurF14/48S+HfPjCQT8ubfPja0d8uPqoF9cemcb1R5342bEp7D4+ic7BSQyPOzA+5VLg4JqZ1eAQCCESiyOdzal8BcPc8iUKiAKigCiwvRQQeNhe76ccjSggCrSoAoQHDo0rlSvq4j0SS2AxFFb5AwaY6QxMumYw7nBjdNKlLv4HRifRPTSBtv5JPH5iAg8fn8QD3ZO4r2tCwQXvP9EziaMDk+gZmlDgMTLhxOiUCxOOaTjcs8rdmPPRcQiBOQdVrlQqq7au4jq06Mkohy0KiALbWgGBh2399srBiQKiQKspwOBzoVhGMp2FBoiIykDMen2Y9mgXYso5o52IKRdGJxyq9Ghk3AEuOgpc5j63Y5NO9RzmJ1iiRGhgR6eZOR/mFxYVpIRjCcRTaRXc5tRqAYdWO/PkeEUBUaBVFBB4aJV3Wo5TFBAFtr0Cxn0gQBSLZRWgZv4gGIkqZ2DevwhCBEuZXDNeVc7ErkxTrhkQKCYJFWpNK0jgfT7O4DWBge4FuynRyWBJFDs7BcNRROIJJNMZ5PNFVTol5Urb/lSTAxQFRIEWVkDgoYXffDl0UUAU2J4K8OK9ARDZHGLJFMLRhJoDsRAMKreAXZEIEp65eQUTBAqCwerFrk18jsfrw+y8BQ2LQQRDEYSiMZWvUOBQKIHzJtjiVb5EAVFAFBAFtq8CAg/b972VIxMFRIEWVoAuRLWqS5iyuYIa2MY5EBoiolgMhrEQCKmp1Cw9oivBDk1cBAt127+gHvctLCqXgSFstmENRuOIxhNIpNIqoM0yKQMOUq7UwiedHLooIAq0hAICDy3xNstBigKiQCsqQAeCTkC5XEWhUFJBak59jiWSiFggwbkQLD3idGq1DYURNEs9HlWzI0LRhMpQ8LWEhlQ2i1yhqALanBXBnyXg0IpnmRyzKCAKtJoCAg+t9o7L8YoCokBLKWBmQNCFYA6CEMF2rqlMVkFAIplSZU10JTZafA6BgSHsdDaPXKGkQtmVah31pZPgkDr5EgVEAVFAFGgNBQQeWuN9lqMUBUSBFlZAB6mXlDtQq9VRrtRQstwIwkQ2X0Qmn1dgQDiwL34vly8q6CiWKuq1BBG1z5MnIdjQwieWHLooIAq0pAICDy35tstBiwKiQCsqYCCCpUxctZoOVpfLNXCVyjXlTpRKFShQsB4nLPC55nXcD5d8iQKigCggCrSeAgIPrfeeyxGLAqJAiytgIMJAALcGDDijgcvcN1kG+3NbXD45fFFAFBAFWloBgYeWfvvl4EUBUUAUEAVEAVFAFBAFRIGtKyDwsHWt5JmigCggCogCooAoIAqIAqJASysg8NDSb78cvCggCogCooAoIAqIAqKAKLB1BQQetq6VPFMUEAVEAVFAFBAFRAFRQBRoaQUEHlr67ZeDFwVEAVFAFBAFRAFRQBQQBbauwP8H92MQbBqSEdcAAAAASUVORK5CYII=;" vertex="1" parent="1">
          <mxGeometry x="20" y="40" width="783" height="363" as="geometry" />
        </mxCell>
      </root>
    </mxGraphModel>
  </diagram>
</mxfile>
